<svg width="22" height="20" viewBox="0 0 22 20" fill="none" xmlns="http://www.w3.org/2000/svg">
<path d="M11.3337 0C5.44262 0 0.666992 4.47715 0.666992 10C0.666992 15.5228 5.44262 20 11.3337 20C17.2247 20 22.0003 15.5228 22.0003 10C21.9935 4.47982 17.2219 0.00642897 11.3337 0Z" fill="white"/>
<path d="M17.4911 6.83362L11.4067 14.5745C11.2615 14.7549 11.0452 14.8732 10.8061 14.9027C10.5671 14.9321 10.3255 14.8703 10.1355 14.7311L5.79066 11.4745C5.40725 11.1868 5.34517 10.6622 5.65199 10.3028C5.95882 9.94334 6.51836 9.88514 6.90177 10.1728L10.5249 12.8903L16.06 5.84778C16.2415 5.59244 16.558 5.45127 16.8838 5.48032C17.2097 5.50936 17.4921 5.70393 17.619 5.98676C17.7459 6.2696 17.6968 6.59494 17.4911 6.83362Z" fill="#0038FF"/>
</svg>
