<svg width="167" height="49" viewBox="0 0 167 49" fill="none" xmlns="http://www.w3.org/2000/svg">
<g clip-path="url(#clip0_318_145)">
<path d="M150.691 48.6757C145.979 48.6757 142.253 47.5407 139.512 45.2708C137.58 43.6451 136.328 41.6239 135.758 39.2073C135.368 37.5541 136.788 36.1484 138.487 36.1484H143.849C145.534 36.1484 146.729 37.7958 147.992 38.9108C148.72 39.5532 149.684 39.8744 150.883 39.8744C151.483 39.8744 152.04 39.7888 152.554 39.6175C153.068 39.4033 153.474 39.0821 153.774 38.6538C154.117 38.2255 154.288 37.733 154.288 37.1762C154.288 36.5338 153.988 35.9985 153.389 35.5702C152.832 35.1419 152.19 34.8421 151.461 34.6708C150.733 34.4566 149.684 34.2425 148.314 34.0284C146.986 33.8142 145.851 33.6001 144.909 33.3859C144.009 33.1718 142.939 32.8077 141.697 32.2938C140.455 31.737 139.448 31.0946 138.677 30.3665C137.906 29.6384 137.242 28.6534 136.686 27.4113C136.129 26.1693 135.85 24.7346 135.85 23.1071C135.85 19.638 137.2 16.8755 139.898 14.8198C142.596 12.7212 146.172 11.6719 150.626 11.6719C155.038 11.6719 158.571 12.7426 161.226 14.884C163.102 16.3729 164.336 18.2033 164.929 20.3754C165.376 22.015 163.949 23.4283 162.25 23.4283H156.062C155.011 23.4283 154.264 22.4793 153.646 21.6295C153.346 21.1156 152.918 20.7515 152.361 20.5374C151.847 20.2804 151.226 20.1519 150.498 20.1519C149.513 20.1519 148.72 20.3875 148.121 20.8586C147.564 21.3297 147.286 21.9507 147.286 22.7216C147.286 23.0643 147.35 23.3641 147.478 23.621C147.578 23.8204 147.729 24.0069 147.932 24.1805C148.053 24.2841 148.192 24.3635 148.335 24.4348C148.59 24.5622 148.818 24.6764 149.02 24.7774C149.277 24.9059 149.684 25.0344 150.241 25.1629C150.84 25.2913 151.312 25.3984 151.654 25.4841C151.997 25.5269 152.532 25.6126 153.26 25.741C154.16 25.9124 154.781 26.0408 155.123 26.1265C155.509 26.1693 156.151 26.2978 157.051 26.5119C157.95 26.7261 158.614 26.9188 159.042 27.0901C159.47 27.2186 160.049 27.4542 160.777 27.7968C161.548 28.1394 162.126 28.4821 162.511 28.8247C162.897 29.1673 163.346 29.617 163.86 30.1738C164.417 30.6877 164.824 31.2445 165.081 31.8441C165.338 32.4437 165.552 33.1718 165.723 34.0284C165.937 34.8421 166.045 35.7201 166.045 36.6623C166.045 40.3027 164.631 43.2151 161.805 45.3993C159.021 47.5836 155.316 48.6757 150.691 48.6757Z" fill="white"/>
<path d="M73.5359 48.7254C68.3965 48.7254 64.2635 47.2692 61.137 44.3569C58.0105 41.4017 56.4473 37.5043 56.4473 32.6647V15.9292C56.4473 14.244 57.8134 12.8779 59.4986 12.8779H65.3452C67.0303 12.8779 68.3965 14.244 68.3965 15.9292V32.1508C68.3965 33.9924 68.8462 35.4271 69.7456 36.455C70.645 37.4829 71.887 37.9968 73.4716 37.9968C75.0991 37.9968 76.3626 37.4829 77.262 36.455C78.2042 35.3843 78.6753 33.9496 78.6753 32.1508V15.9292C78.6753 14.244 80.0414 12.8779 81.7266 12.8779H87.5731C89.2583 12.8779 90.6245 14.244 90.6245 15.9292V32.6647C90.6245 35.8768 89.9178 38.7035 88.5044 41.1447C87.0911 43.5431 85.0782 45.4062 82.4656 46.7339C79.8959 48.0615 76.9193 48.7254 73.5359 48.7254Z" fill="white"/>
<path d="M43.1001 48.654C41.4149 48.654 40.0488 47.2878 40.0488 45.6027V4.48685C40.0488 2.80166 41.4149 1.43555 43.1001 1.43555H48.9467C50.6318 1.43555 51.998 2.80166 51.998 4.48685V45.6027C51.998 47.2878 50.6318 48.654 48.9467 48.654H43.1001Z" fill="white"/>
<path d="M19.2086 48.6115C15.5253 48.6115 12.2275 47.8191 9.3152 46.2345C6.40286 44.6498 4.11154 42.4442 2.44122 39.6175C0.813741 36.7908 0 33.6215 0 30.1095C0 26.5548 0.813741 23.3855 2.44122 20.6016C4.11154 17.7749 6.40286 15.5907 9.3152 14.0489C12.2275 12.4642 15.5253 11.6719 19.2086 11.6719C22.4207 11.6719 25.3331 12.3143 27.9456 13.5992C30.601 14.884 32.7638 16.6828 34.4341 18.9955C35.2342 20.1033 35.8917 21.2946 36.4068 22.5694C37.4096 25.0512 35.7382 27.6405 33.1989 28.4869C32.1674 28.8308 31.0507 28.8213 30.0252 28.46L29.4021 28.2405C27.2193 27.4716 25.6726 25.529 23.8668 24.0816C23.6932 23.9424 23.5109 23.8103 23.3201 23.6853C22.1209 22.8287 20.7504 22.4004 19.2086 22.4004C17.11 22.4004 15.3754 23.1285 14.0049 24.5847C12.6772 25.998 12.0134 27.8396 12.0134 30.1095C12.0134 32.3795 12.6772 34.2425 14.0049 35.6987C15.3754 37.1548 17.11 37.8829 19.2086 37.8829C20.7932 37.8829 22.1852 37.4332 23.3844 36.5338C23.6169 36.3574 23.836 36.1704 24.0415 35.973C25.7384 34.3429 27.2593 32.3405 29.4746 31.5475L29.9956 31.3611C31.04 30.9872 32.1795 30.9738 33.2324 31.3229C35.823 32.1819 37.5226 34.8236 36.5198 37.362C35.4612 40.0416 33.8238 42.3352 31.6074 44.2429C28.224 47.1553 24.091 48.6115 19.2086 48.6115Z" fill="white"/>
<path d="M128.494 16.6004C126.804 14.88 124.775 13.5292 122.536 12.6335C120.296 11.7378 117.895 11.3168 115.485 11.3972C112.428 11.3654 109.424 12.1867 106.809 13.7686V3.00189C106.793 2.21055 106.472 1.4559 105.912 0.896239C105.353 0.336574 104.598 0.0153701 103.806 0H98.0522C97.2521 0.0024608 96.4847 0.317959 95.9143 0.878983C95.3439 1.44001 95.0157 2.20199 95 3.00189V44.1477C95.0157 44.9476 95.3439 45.7096 95.9143 46.2706C96.4847 46.8317 97.2521 47.1472 98.0522 47.1496H101.835C102.423 47.1492 102.998 46.979 103.492 46.6595C103.985 46.34 104.376 45.8847 104.617 45.3485L104.967 44.578C107.892 47.0503 111.616 48.3735 115.445 48.3003C117.855 48.3807 120.256 47.9597 122.496 47.064C124.735 46.1683 126.764 44.8175 128.454 43.0971C130.168 41.3422 131.507 39.2579 132.391 36.9704C133.275 34.6828 133.686 32.2396 133.598 29.7887C133.687 27.3592 133.28 24.937 132.403 22.6696C131.525 20.4023 130.196 18.3373 128.494 16.6004ZM119.368 35.5023C118.652 36.2405 117.79 36.8212 116.837 37.2071C115.884 37.5931 114.861 37.7759 113.834 37.7437C112.672 37.7545 111.522 37.5156 110.461 37.0433L107.089 38.7243C107.021 38.7593 106.943 38.773 106.867 38.7634C106.791 38.7538 106.72 38.7214 106.663 38.6706C106.605 38.6198 106.565 38.5528 106.546 38.4784C106.527 38.4041 106.532 38.3259 106.558 38.254L107.759 34.952C107.481 34.6193 107.23 34.2646 107.009 33.8913C106.342 32.645 105.998 31.2519 106.008 29.8387C105.976 28.7986 106.153 27.7625 106.528 26.7916C106.902 25.8207 107.467 24.9345 108.19 24.1852C108.928 23.4476 109.81 22.8697 110.781 22.4875C111.752 22.1054 112.791 21.9271 113.834 21.9638C114.862 21.9336 115.885 22.1182 116.838 22.5058C117.791 22.8935 118.653 23.4757 119.368 24.2152C120.109 24.9539 120.691 25.8367 121.079 26.809C121.466 27.7813 121.65 28.8226 121.619 29.8688C121.646 30.9114 121.46 31.9486 121.073 32.9171C120.686 33.8856 120.106 34.7652 119.368 35.5023Z" fill="white"/>
</g>
<defs>
<clipPath id="clip0_318_145">
<rect width="167" height="49" fill="white"/>
</clipPath>
</defs>
</svg>
