<svg width="188" height="104" viewBox="0 0 188 104" fill="none" xmlns="http://www.w3.org/2000/svg">
<path d="M107.194 46.7207H104.801C103.881 46.7207 103.084 46.8611 102.41 47.1419C101.736 47.4226 101.169 47.7952 100.709 48.2596C100.248 48.7226 99.9048 49.2564 99.6796 49.8612C99.4559 50.466 99.3441 51.082 99.3441 51.7092C99.3441 52.3558 99.4559 52.9868 99.6796 53.602C99.9048 54.2188 100.248 54.7586 100.709 55.2215C101.169 55.686 101.736 56.0645 102.41 56.3572C103.084 56.6484 103.87 56.794 104.768 56.794H107.194C107.756 56.794 108.239 56.8859 108.643 57.0695C109.047 57.2532 109.384 57.4907 109.654 57.7819C109.923 58.0731 110.125 58.4076 110.26 58.7854C110.395 59.1632 110.463 59.5462 110.463 59.9345C110.463 60.7767 110.193 61.5167 109.654 62.1543C109.115 62.7905 108.295 63.1086 107.194 63.1086H104.801C102.847 63.1086 101.129 62.7905 99.647 62.1543C98.1651 61.5167 96.9356 60.6692 95.9586 59.6119C94.9815 58.5532 94.246 57.3548 93.7521 56.0167C93.2565 54.6772 93.0088 53.2951 93.0088 51.8705C93.0088 50.4444 93.262 49.0354 93.7684 47.6436C94.2732 46.2503 95.0421 45.0139 96.0751 43.9342C97.108 42.8545 98.3888 41.9802 99.9172 41.3111C101.444 40.6421 103.241 40.3076 105.307 40.3076H107.194C107.733 40.3076 108.21 40.3995 108.627 40.5831C109.042 40.7653 109.389 41.008 109.671 41.3111C109.952 41.6128 110.165 41.9525 110.311 42.3303C110.457 42.7082 110.53 43.1024 110.53 43.5131C110.53 43.9237 110.457 44.3232 110.311 44.7115C110.165 45.0997 109.952 45.4402 109.671 45.7329C109.389 46.0241 109.042 46.2615 108.627 46.4452C108.21 46.6289 107.733 46.7207 107.194 46.7207Z" fill="white"/>
<path d="M122.726 63.1085H115.987C113.831 63.1085 112.753 62.0505 112.753 59.9344V43.3181C112.753 42.325 113.073 41.559 113.713 41.0199C114.353 40.4793 115.111 40.209 115.987 40.209C116.864 40.209 117.627 40.4793 118.278 41.0199C118.93 41.559 119.256 42.325 119.256 43.3181V56.7939H122.726C123.737 56.7939 124.507 57.1016 125.035 57.7168C125.561 58.3321 125.825 59.0713 125.825 59.9344C125.825 60.7991 125.561 61.5442 125.035 62.1699C124.507 62.7956 123.737 63.1085 122.726 63.1085Z" fill="white"/>
<path d="M146.648 43.3181V53.3287C146.648 60.0009 143.47 63.337 137.113 63.337C130.667 63.337 127.444 60.0009 127.444 53.3287V43.3181C127.444 42.325 127.769 41.559 128.42 41.0199C129.071 40.4793 129.834 40.209 130.711 40.209C131.61 40.209 132.38 40.4793 133.02 41.0199C133.66 41.559 133.979 42.325 133.979 43.3181V54.2986C133.979 56.1563 135.002 57.0851 137.046 57.0851C139.088 57.0851 140.11 56.1563 140.11 54.2986V43.3181C140.11 42.8223 140.2 42.3803 140.38 41.992C140.56 41.6023 140.796 41.2782 141.088 41.0199C141.38 40.76 141.723 40.5599 142.116 40.4195C142.509 40.2792 142.919 40.209 143.346 40.209C144.244 40.209 145.018 40.4793 145.669 41.0199C146.322 41.559 146.648 42.325 146.648 43.3181Z" fill="white"/>
<path d="M160.393 46.6558H155.509V49.6036H160.393C160.843 49.6036 161.18 49.4416 161.404 49.1175C161.629 48.7935 161.742 48.4261 161.742 48.0155C161.742 47.6705 161.634 47.3576 161.42 47.0769C161.207 46.7962 160.865 46.6558 160.393 46.6558ZM160.393 54.2023H155.509V56.794H160.393C160.865 56.794 161.207 56.6536 161.42 56.3729C161.634 56.0922 161.742 55.8002 161.742 55.4971C161.742 55.173 161.634 54.8766 161.42 54.6078C161.207 54.3375 160.865 54.2023 160.393 54.2023ZM149.241 59.9031V43.4817C149.241 41.3656 150.23 40.3076 152.207 40.3076H162.55C163.381 40.3076 164.111 40.4749 164.74 40.8094C165.369 41.1439 165.897 41.5867 166.322 42.1377C166.75 42.6872 167.07 43.3189 167.282 44.0327C167.497 44.7451 167.604 45.4678 167.604 46.2011C167.604 47.4973 167.317 48.6367 166.744 49.6193C166.171 50.6019 165.279 51.2224 164.067 51.4807C164.673 51.5464 165.217 51.7413 165.7 52.0654C166.183 52.3894 166.593 52.8106 166.931 53.3287C167.268 53.8469 167.531 54.4405 167.72 55.1095C167.912 55.7786 168.007 56.4804 168.007 57.2151C168.007 58.0141 167.895 58.7697 167.672 59.482C167.446 60.1943 167.098 60.8208 166.628 61.3614C166.155 61.9005 165.543 62.3268 164.789 62.6404C164.037 62.9525 163.145 63.1086 162.112 63.1086H152.375C150.286 63.1086 149.241 62.0401 149.241 59.9031Z" fill="white"/>
<path d="M187.784 55.8532C187.784 60.6901 185.325 63.1086 180.407 63.1086H173.904C173.365 63.1086 172.893 63.0175 172.49 62.8353C172.084 62.6516 171.747 62.4134 171.478 62.1207C171.208 61.8295 171.005 61.495 170.87 61.1172C170.737 60.7394 170.67 60.3452 170.67 59.9345C170.67 59.5462 170.737 59.1632 170.87 58.7854C171.005 58.4076 171.213 58.0731 171.495 57.7819C171.776 57.4907 172.124 57.2532 172.538 57.0695C172.955 56.8859 173.432 56.794 173.971 56.794H180.777C181.226 56.794 181.557 56.6693 181.77 56.4199C181.984 56.172 182.091 55.9077 182.091 55.627C182.091 55.3253 181.984 55.0446 181.77 54.7847C181.557 54.5264 181.226 54.3972 180.777 54.3972H177.408C175.094 54.3972 173.352 53.8514 172.184 52.7598C171.016 51.6696 170.432 49.959 170.432 47.6279C170.432 42.7477 172.914 40.3076 177.879 40.3076H183.135C183.696 40.3076 184.19 40.3995 184.617 40.5831C185.044 40.7653 185.404 41.0028 185.696 41.2955C185.988 41.5867 186.207 41.9212 186.353 42.299C186.499 42.6768 186.572 43.0598 186.572 43.4481C186.572 43.8379 186.499 44.2269 186.353 44.6151C186.207 45.0034 185.988 45.3491 185.696 45.6523C185.404 45.9539 185.039 46.1966 184.601 46.3803C184.163 46.5639 183.663 46.6558 183.1 46.6558H177.441C176.992 46.6558 176.666 46.7797 176.464 47.0276C176.263 47.2755 176.162 47.551 176.162 47.8542C176.162 48.1349 176.263 48.3992 176.464 48.6471C176.666 48.895 176.992 49.019 177.441 49.019H180.81C183.168 49.019 184.92 49.57 186.066 50.6721C187.211 51.7727 187.784 53.4997 187.784 55.8532Z" fill="white"/>
<path opacity="0.8" d="M79.59 66.999C84.7306 52.1328 76.6684 36.3693 61.5825 31.7903C46.4967 27.2114 30.0999 35.5508 24.9593 50.417C19.8187 65.2833 27.8809 81.0467 42.9668 85.6257C58.0526 90.2047 74.4494 81.8652 79.59 66.999Z" fill="#004CF2"/>
<path opacity="0.8" d="M63.078 44.6027C66.3005 35.2836 61.2466 25.402 51.7897 22.5316C42.3329 19.6612 32.0543 24.8889 28.8319 34.208C25.6094 43.5271 30.6633 53.4087 40.1201 56.2791C49.577 59.1495 59.8555 53.9218 63.078 44.6027Z" fill="#FBA536"/>
<path opacity="0.7" d="M22.2032 43.2423C22.9558 41.0661 21.7755 38.7585 19.5671 38.0881C17.3587 37.4178 14.9584 38.6386 14.2058 40.8149C13.4533 42.9912 14.6335 45.2988 16.842 45.9691C19.0504 46.6394 21.4507 45.4186 22.2032 43.2423Z" fill="#FF5362"/>
<path opacity="0.8" d="M64.2727 70.7991C68.3391 59.0392 61.9616 46.5696 50.028 42.9475C38.0944 39.3253 25.1238 45.9222 21.0573 57.682C16.9908 69.4419 23.3684 81.9115 35.302 85.5336C47.2356 89.1558 60.2062 82.5589 64.2727 70.7991Z" fill="#6319C3"/>
<path opacity="0.8" d="M82.4103 54.6733C85.379 46.0882 80.7231 36.985 72.0112 34.3406C63.2992 31.6963 53.8302 36.5123 50.8616 45.0974C47.8929 53.6825 52.5488 62.7857 61.2607 65.4301C69.9727 68.0744 79.4417 63.2584 82.4103 54.6733Z" fill="#FF5362"/>
<path opacity="0.7" d="M39.0532 91.923C39.4132 90.882 40.5614 90.298 41.6178 90.6186C42.6743 90.9393 43.2389 92.0432 42.8789 93.0842C42.5189 94.1253 41.3706 94.7093 40.3142 94.3886C39.2578 94.068 38.6932 92.9641 39.0532 91.923Z" fill="#6319C3"/>
<path opacity="0.7" d="M70.9296 28.0491C71.3414 26.8585 70.6956 25.5959 69.4874 25.2292C68.2791 24.8624 66.9658 25.5304 66.5541 26.721C66.1424 27.9117 66.7881 29.1743 67.9964 29.541C69.2046 29.9077 70.5179 29.2398 70.9296 28.0491Z" fill="#FF5362"/>
<path opacity="0.7" d="M67.9846 17.9107C68.8567 15.3887 67.4889 12.7145 64.9297 11.9377C62.3705 11.1609 59.5888 12.5756 58.7167 15.0976C57.8447 17.6196 59.2124 20.2938 61.7716 21.0706C64.3309 21.8474 67.1125 20.4326 67.9846 17.9107Z" fill="#004CF2"/>
<path opacity="0.7" d="M69.166 92.5279C69.619 91.2179 68.9086 89.8288 67.5792 89.4253C66.2498 89.0218 64.8049 89.7567 64.352 91.0667C63.899 92.3767 64.6094 93.7658 65.9388 94.1693C67.2681 94.5728 68.713 93.8379 69.166 92.5279Z" fill="#FBA536"/>
<path opacity="0.5" d="M49.2666 83.6482C64.1255 83.6482 76.171 72.068 76.171 57.7831C76.171 43.4982 64.1255 31.918 49.2666 31.918C34.4078 31.918 22.3623 43.4982 22.3623 57.7831C22.3623 72.068 34.4078 83.6482 49.2666 83.6482Z" fill="#E5F6FF"/>
<path d="M47.3275 81.6525C60.9733 81.6525 72.0354 71.0177 72.0354 57.899C72.0354 44.7803 60.9733 34.1455 47.3275 34.1455C33.6817 34.1455 22.6196 44.7803 22.6196 57.899C22.6196 71.0177 33.6817 81.6525 47.3275 81.6525Z" fill="black"/>
<path opacity="0.5" d="M103.828 70.9961H103.485C103.352 70.9961 103.237 71.0163 103.14 71.0566C103.044 71.0969 102.963 71.1507 102.896 71.2179C102.829 71.2836 102.779 71.3605 102.747 71.4486C102.716 71.5352 102.7 71.6233 102.7 71.7129C102.7 71.807 102.716 71.8981 102.747 71.9862C102.779 72.0743 102.829 72.152 102.896 72.2192C102.963 72.2864 103.044 72.3409 103.14 72.3827C103.237 72.4245 103.35 72.4454 103.481 72.4454H103.828C103.909 72.4454 103.978 72.4581 104.038 72.4835C104.095 72.5104 104.143 72.5447 104.182 72.5865C104.221 72.6283 104.25 72.6769 104.271 72.7321C104.289 72.7859 104.298 72.8411 104.298 72.8979C104.298 73.0188 104.26 73.1249 104.182 73.216C104.104 73.3071 103.986 73.3526 103.828 73.3526H103.485C103.204 73.3526 102.956 73.3071 102.742 73.216C102.529 73.1249 102.353 73.0032 102.213 72.8508C102.072 72.6985 101.965 72.526 101.894 72.3334C101.824 72.1408 101.789 71.9421 101.789 71.7376C101.789 71.5315 101.825 71.3284 101.896 71.1283C101.969 70.9282 102.08 70.7505 102.229 70.5952C102.379 70.4399 102.563 70.3144 102.782 70.2188C103.001 70.1218 103.259 70.0732 103.558 70.0732H103.828C103.905 70.0732 103.975 70.0867 104.035 70.1136C104.094 70.1389 104.144 70.174 104.184 70.2188C104.225 70.2621 104.256 70.3107 104.278 70.3644C104.298 70.4182 104.308 70.4749 104.308 70.5347C104.308 70.5944 104.298 70.6519 104.278 70.7072C104.256 70.7624 104.225 70.8109 104.184 70.8528C104.144 70.8961 104.094 70.9304 104.035 70.9558C103.975 70.9827 103.905 70.9961 103.828 70.9961Z" fill="white"/>
<path opacity="0.5" d="M104.571 71.713C104.571 71.4801 104.616 71.2628 104.706 71.0612C104.797 70.8596 104.921 70.6826 105.079 70.5303C105.238 70.378 105.422 70.2585 105.631 70.1719C105.841 70.0853 106.067 70.042 106.309 70.042C106.552 70.042 106.779 70.0853 106.99 70.1719C107.203 70.2585 107.387 70.378 107.544 70.5303C107.7 70.6826 107.824 70.8596 107.917 71.0612C108.009 71.2628 108.055 71.4801 108.055 71.713C108.055 71.946 108.009 72.1633 107.917 72.3649C107.824 72.568 107.7 72.7457 107.544 72.898C107.387 73.0488 107.203 73.1683 106.99 73.2564C106.779 73.343 106.552 73.3863 106.309 73.3863C106.067 73.3863 105.841 73.343 105.631 73.2564C105.422 73.1683 105.238 73.0488 105.079 72.898C104.921 72.7457 104.797 72.568 104.706 72.3649C104.616 72.1633 104.571 71.946 104.571 71.713ZM105.524 71.7265C105.524 71.8325 105.545 71.9318 105.587 72.0244C105.629 72.1155 105.686 72.1954 105.757 72.2641C105.829 72.3313 105.912 72.3843 106.007 72.4231C106.103 72.4619 106.205 72.4814 106.314 72.4814C106.424 72.4814 106.527 72.4619 106.622 72.4231C106.718 72.3843 106.803 72.3313 106.876 72.2641C106.947 72.1954 107.004 72.1155 107.046 72.0244C107.088 71.9318 107.109 71.8325 107.109 71.7265C107.109 71.6219 107.088 71.5226 107.046 71.4286C107.004 71.336 106.947 71.2553 106.876 71.1866C106.803 71.1179 106.718 71.0634 106.622 71.0231C106.527 70.9828 106.424 70.9626 106.314 70.9626C106.205 70.9626 106.103 70.9828 106.007 71.0231C105.912 71.0634 105.829 71.1179 105.757 71.1866C105.686 71.2553 105.629 71.336 105.587 71.4286C105.545 71.5226 105.524 71.6219 105.524 71.7265Z" fill="white"/>
<path opacity="0.5" d="M110.023 72.147C109.893 72.147 109.778 72.0828 109.679 71.9544L109.329 71.5176V72.9198C109.329 73.0662 109.283 73.1782 109.189 73.2558C109.095 73.3335 108.986 73.3723 108.863 73.3723C108.734 73.3723 108.623 73.3342 108.53 73.258C108.437 73.1819 108.39 73.0691 108.39 72.9198V70.5387C108.39 70.464 108.403 70.3968 108.43 70.3371C108.458 70.2759 108.494 70.2251 108.539 70.1848C108.584 70.1444 108.637 70.1131 108.698 70.0907C108.757 70.0698 108.819 70.0593 108.884 70.0593C108.968 70.0593 109.052 70.0787 109.136 70.1176C109.22 70.1564 109.292 70.2131 109.352 70.2878L110.023 71.1121L110.697 70.2878C110.757 70.2131 110.829 70.1564 110.911 70.1176C110.994 70.0787 111.077 70.0593 111.161 70.0593C111.226 70.0593 111.288 70.0698 111.347 70.0907C111.407 70.1131 111.461 70.1444 111.508 70.1848C111.554 70.2251 111.592 70.2759 111.62 70.3371C111.647 70.3968 111.661 70.464 111.661 70.5387V72.9198C111.661 73.0691 111.614 73.1819 111.519 73.258C111.426 73.3342 111.315 73.3723 111.186 73.3723C111.06 73.3723 110.951 73.3342 110.858 73.258C110.766 73.1819 110.72 73.0691 110.72 72.9198V71.5176L110.375 71.9544C110.321 72.026 110.265 72.0761 110.208 72.1044C110.149 72.1328 110.087 72.147 110.023 72.147Z" fill="white"/>
<path opacity="0.5" d="M113.695 72.147C113.566 72.147 113.451 72.0828 113.351 71.9544L113.003 71.5176V72.9198C113.003 73.0662 112.956 73.1782 112.861 73.2558C112.768 73.3335 112.66 73.3723 112.537 73.3723C112.408 73.3723 112.297 73.3342 112.204 73.258C112.109 73.1819 112.062 73.0691 112.062 72.9198V70.5387C112.062 70.464 112.076 70.3968 112.104 70.3371C112.132 70.2759 112.168 70.2251 112.213 70.1848C112.259 70.1444 112.311 70.1131 112.37 70.0907C112.43 70.0698 112.492 70.0593 112.556 70.0593C112.64 70.0593 112.725 70.0787 112.81 70.1176C112.894 70.1564 112.966 70.2131 113.027 70.2878L113.695 71.1121L114.369 70.2878C114.431 70.2131 114.503 70.1564 114.585 70.1176C114.668 70.0787 114.751 70.0593 114.835 70.0593C114.9 70.0593 114.962 70.0698 115.021 70.0907C115.082 70.1131 115.135 70.1444 115.182 70.1848C115.228 70.2251 115.266 70.2759 115.294 70.3371C115.32 70.3968 115.333 70.464 115.333 70.5387V72.9198C115.333 73.0691 115.287 73.1819 115.194 73.258C115.1 73.3342 114.988 73.3723 114.858 73.3723C114.732 73.3723 114.623 73.3342 114.532 73.258C114.44 73.1819 114.394 73.0691 114.394 72.9198V71.5176L114.05 71.9544C113.995 72.026 113.938 72.0761 113.879 72.1044C113.822 72.1328 113.761 72.147 113.695 72.147Z" fill="white"/>
<path opacity="0.5" d="M118.474 70.5073V71.9454C118.474 72.9056 118.017 73.3857 117.102 73.3857C116.175 73.3857 115.711 72.9056 115.711 71.9454V70.5073C115.711 70.364 115.758 70.2535 115.853 70.1758C115.946 70.0982 116.056 70.0593 116.182 70.0593C116.311 70.0593 116.422 70.0982 116.515 70.1758C116.606 70.2535 116.652 70.364 116.652 70.5073V72.0865C116.652 72.3538 116.799 72.4875 117.093 72.4875C117.388 72.4875 117.535 72.3538 117.535 72.0865V70.5073C117.535 70.4356 117.548 70.3714 117.573 70.3147C117.599 70.2594 117.633 70.2131 117.675 70.1758C117.717 70.1385 117.766 70.1094 117.822 70.0884C117.879 70.069 117.938 70.0593 117.999 70.0593C118.128 70.0593 118.24 70.0982 118.335 70.1758C118.428 70.2535 118.474 70.364 118.474 70.5073Z" fill="white"/>
<path opacity="0.5" d="M120.587 71.5489V70.4872C120.587 70.3483 120.632 70.2423 120.72 70.1691C120.809 70.0959 120.916 70.0593 121.042 70.0593C121.161 70.0593 121.266 70.0959 121.356 70.1691C121.445 70.2423 121.489 70.3483 121.489 70.4872V72.9198C121.489 72.9915 121.476 73.055 121.45 73.1102C121.425 73.167 121.392 73.2147 121.352 73.2536C121.311 73.2924 121.264 73.3215 121.21 73.3409C121.157 73.3618 121.101 73.3723 121.042 73.3723C120.966 73.3723 120.89 73.3536 120.816 73.3163C120.741 73.279 120.676 73.22 120.62 73.1393L119.739 71.876V72.9422C119.739 73.0826 119.695 73.1894 119.607 73.2625C119.518 73.3357 119.41 73.3723 119.283 73.3723C119.163 73.3723 119.06 73.3357 118.973 73.2625C118.886 73.1894 118.842 73.0826 118.842 72.9422V70.5073C118.842 70.4386 118.855 70.3759 118.88 70.3192C118.903 70.2639 118.935 70.2169 118.977 70.178C119.019 70.1392 119.067 70.1094 119.12 70.0884C119.171 70.069 119.225 70.0593 119.283 70.0593C119.363 70.0593 119.441 70.0772 119.516 70.1131C119.59 70.1489 119.655 70.2072 119.709 70.2878L120.587 71.5489Z" fill="white"/>
<path opacity="0.5" d="M122.817 70.5073V72.9198C122.817 73.0691 122.77 73.1819 122.675 73.258C122.582 73.3342 122.472 73.3723 122.347 73.3723C122.218 73.3723 122.107 73.3342 122.013 73.258C121.922 73.1819 121.876 73.0691 121.876 72.9198V70.5073C121.876 70.364 121.922 70.2535 122.013 70.1758C122.107 70.0982 122.218 70.0593 122.347 70.0593C122.472 70.0593 122.582 70.0982 122.675 70.1758C122.77 70.2535 122.817 70.364 122.817 70.5073Z" fill="white"/>
<path opacity="0.5" d="M124.833 70.9872V72.9203C124.833 73.0696 124.786 73.1824 124.693 73.2585C124.598 73.3347 124.486 73.3728 124.357 73.3728C124.232 73.3728 124.123 73.3347 124.031 73.2585C123.938 73.1824 123.891 73.0696 123.891 72.9203V70.9872H123.563C123.414 70.9872 123.298 70.9416 123.216 70.8505C123.133 70.7609 123.092 70.6541 123.092 70.5302C123.092 70.4063 123.133 70.2987 123.216 70.2076C123.298 70.118 123.414 70.0732 123.563 70.0732H125.152C125.301 70.0732 125.418 70.118 125.502 70.2076C125.585 70.2987 125.627 70.4063 125.627 70.5302C125.627 70.6541 125.585 70.7609 125.502 70.8505C125.418 70.9416 125.301 70.9872 125.152 70.9872H124.833Z" fill="white"/>
<path opacity="0.5" d="M127.116 70.9956L127.538 70.2923C127.586 70.2116 127.647 70.1527 127.72 70.1153C127.791 70.078 127.864 70.0593 127.939 70.0593C128.001 70.0593 128.061 70.0705 128.118 70.0929C128.177 70.1168 128.229 70.1482 128.274 70.187C128.319 70.2258 128.356 70.2721 128.384 70.3259C128.41 70.3811 128.423 70.4394 128.423 70.5006C128.423 70.5857 128.398 70.6686 128.346 70.7492L127.591 71.932V72.9198C127.591 73.0691 127.544 73.1819 127.449 73.258C127.356 73.3342 127.247 73.3723 127.121 73.3723C126.992 73.3723 126.881 73.3342 126.788 73.258C126.696 73.1819 126.65 73.0691 126.65 72.9198V71.932L125.884 70.7448C125.832 70.6671 125.807 70.591 125.807 70.5163C125.807 70.4536 125.821 70.3946 125.849 70.3393C125.875 70.2826 125.911 70.2333 125.958 70.1915C126.003 70.1497 126.054 70.1168 126.112 70.0929C126.171 70.0705 126.232 70.0593 126.296 70.0593C126.364 70.0593 126.436 70.0772 126.51 70.1131C126.585 70.1489 126.646 70.2072 126.694 70.2878L127.116 70.9956Z" fill="white"/>
<path opacity="0.5" d="M129.782 71.713C129.782 71.4801 129.827 71.2628 129.917 71.0612C130.007 70.8596 130.131 70.6826 130.29 70.5303C130.448 70.378 130.632 70.2585 130.842 70.1719C131.052 70.0853 131.278 70.042 131.52 70.042C131.762 70.042 131.99 70.0853 132.203 70.1719C132.414 70.2585 132.598 70.378 132.755 70.5303C132.912 70.6826 133.036 70.8596 133.128 71.0612C133.219 71.2628 133.265 71.4801 133.265 71.713C133.265 71.946 133.219 72.1633 133.128 72.3649C133.036 72.568 132.912 72.7457 132.755 72.898C132.598 73.0488 132.414 73.1683 132.203 73.2564C131.99 73.343 131.762 73.3863 131.52 73.3863C131.278 73.3863 131.052 73.343 130.842 73.2564C130.632 73.1683 130.448 73.0488 130.29 72.898C130.131 72.7457 130.007 72.568 129.917 72.3649C129.827 72.1633 129.782 71.946 129.782 71.713ZM130.735 71.7265C130.735 71.8325 130.756 71.9318 130.798 72.0244C130.841 72.1155 130.898 72.1954 130.968 72.2641C131.039 72.3313 131.122 72.3843 131.217 72.4231C131.313 72.4619 131.416 72.4814 131.525 72.4814C131.635 72.4814 131.738 72.4619 131.834 72.4231C131.929 72.3843 132.013 72.3313 132.086 72.2641C132.159 72.1954 132.217 72.1155 132.259 72.0244C132.3 71.9318 132.321 71.8325 132.321 71.7265C132.321 71.6219 132.3 71.5226 132.259 71.4286C132.217 71.336 132.159 71.2553 132.086 71.1866C132.013 71.1179 131.929 71.0634 131.834 71.0231C131.738 70.9828 131.635 70.9626 131.525 70.9626C131.416 70.9626 131.313 70.9828 131.217 71.0231C131.122 71.0634 131.039 71.1179 130.968 71.1866C130.898 71.2553 130.841 71.336 130.798 71.4286C130.756 71.5226 130.735 71.6219 130.735 71.7265Z" fill="white"/>
<path opacity="0.5" d="M134.53 72.1699V72.8979C134.53 73.0457 134.483 73.1577 134.39 73.2339C134.295 73.31 134.185 73.3481 134.059 73.3481C133.934 73.3481 133.825 73.31 133.733 73.2339C133.642 73.1577 133.596 73.0457 133.596 72.8979V70.5302C133.596 70.2256 133.75 70.0732 134.059 70.0732H135.66C135.808 70.0732 135.923 70.118 136.005 70.2076C136.087 70.2987 136.128 70.4063 136.128 70.5302C136.128 70.6541 136.087 70.7609 136.005 70.8505C135.923 70.9416 135.808 70.9872 135.66 70.9872H134.53V71.303H135.45C135.596 71.303 135.708 71.3456 135.786 71.4307C135.864 71.5173 135.902 71.6196 135.902 71.7376C135.902 71.8555 135.864 71.9571 135.786 72.0422C135.708 72.1273 135.596 72.1699 135.45 72.1699H134.53Z" fill="white"/>
<path opacity="0.5" d="M138.95 73.3521H137.981C137.67 73.3521 137.515 73.2006 137.515 72.8974V70.5073C137.515 70.364 137.562 70.2535 137.655 70.1758C137.747 70.0982 137.855 70.0593 137.981 70.0593C138.107 70.0593 138.216 70.0982 138.31 70.1758C138.404 70.2535 138.452 70.364 138.452 70.5073V72.4449H138.95C139.096 72.4449 139.207 72.489 139.284 72.5771C139.358 72.6652 139.395 72.772 139.395 72.8974C139.395 73.0214 139.358 73.1281 139.284 73.2177C139.207 73.3073 139.096 73.3521 138.95 73.3521Z" fill="white"/>
<path opacity="0.5" d="M140.583 70.5073V72.9198C140.583 73.0691 140.537 73.1819 140.444 73.258C140.349 73.3342 140.239 73.3723 140.113 73.3723C139.984 73.3723 139.874 73.3342 139.782 73.258C139.689 73.1819 139.642 73.0691 139.642 72.9198V70.5073C139.642 70.364 139.689 70.2535 139.782 70.1758C139.874 70.0982 139.984 70.0593 140.113 70.0593C140.239 70.0593 140.349 70.0982 140.444 70.1758C140.537 70.2535 140.583 70.364 140.583 70.5073Z" fill="white"/>
<path opacity="0.5" d="M141.916 72.147V72.9198C141.916 73.0691 141.87 73.1819 141.777 73.258C141.682 73.3342 141.572 73.3723 141.446 73.3723C141.317 73.3723 141.207 73.3342 141.115 73.258C141.022 73.1819 140.975 73.0691 140.975 72.9198V70.5073C140.975 70.364 141.022 70.2535 141.115 70.1758C141.207 70.0982 141.317 70.0593 141.446 70.0593C141.572 70.0593 141.682 70.0982 141.777 70.1758C141.87 70.2535 141.916 70.364 141.916 70.5073V71.2801L142.688 70.2318C142.733 70.1661 142.783 70.1206 142.839 70.0952C142.897 70.0713 142.967 70.0593 143.051 70.0593C143.206 70.0593 143.327 70.1019 143.412 70.187C143.498 70.2721 143.54 70.3804 143.54 70.5118C143.54 70.5641 143.532 70.6148 143.515 70.6641C143.499 70.7149 143.472 70.7582 143.433 70.794L142.643 71.652L143.438 72.6308C143.512 72.7204 143.55 72.8153 143.55 72.9153C143.55 73.0542 143.505 73.1655 143.415 73.2491C143.323 73.3312 143.205 73.3723 143.06 73.3723C142.989 73.3723 142.922 73.3581 142.86 73.3297C142.796 73.3014 142.742 73.2566 142.697 73.1953L141.916 72.147Z" fill="white"/>
<path opacity="0.5" d="M145.924 73.3526H144.325C144.015 73.3526 143.859 73.201 143.859 72.8979V70.5302C143.859 70.2256 144.015 70.0732 144.325 70.0732H145.924C146.073 70.0732 146.189 70.118 146.271 70.2076C146.353 70.2987 146.394 70.4063 146.394 70.5302C146.394 70.6541 146.353 70.7609 146.271 70.8505C146.189 70.9416 146.073 70.9872 145.924 70.9872H144.796V71.2985H145.735C145.87 71.2985 145.976 71.3396 146.052 71.4217C146.128 71.5039 146.166 71.6009 146.166 71.7129C146.166 71.8249 146.128 71.922 146.052 72.0041C145.976 72.0863 145.87 72.1273 145.735 72.1273H144.796V72.4454H145.924C146.073 72.4454 146.189 72.4895 146.271 72.5776C146.353 72.6657 146.394 72.7724 146.394 72.8979C146.394 73.0218 146.353 73.1286 146.271 73.2182C146.189 73.3078 146.073 73.3526 145.924 73.3526Z" fill="white"/>
<path opacity="0.5" d="M147.786 72.1005H147.068C146.945 72.1005 146.849 72.0632 146.779 71.9885C146.711 71.9138 146.677 71.8265 146.677 71.7264C146.677 71.6219 146.711 71.5308 146.779 71.4531C146.849 71.3755 146.945 71.3367 147.068 71.3367H147.786C147.909 71.3367 148.005 71.3755 148.075 71.4531C148.143 71.5308 148.177 71.6219 148.177 71.7264C148.177 71.8265 148.143 71.9138 148.075 71.9885C148.005 72.0632 147.909 72.1005 147.786 72.1005Z" fill="white"/>
<path opacity="0.5" d="M150.102 72.147C149.973 72.147 149.858 72.0828 149.757 71.9544L149.41 71.5176V72.9198C149.41 73.0662 149.362 73.1782 149.267 73.2558C149.174 73.3335 149.066 73.3723 148.944 73.3723C148.815 73.3723 148.703 73.3342 148.608 73.258C148.515 73.1819 148.468 73.0691 148.468 72.9198V70.5387C148.468 70.464 148.482 70.3968 148.51 70.3371C148.538 70.2759 148.575 70.2251 148.62 70.1848C148.665 70.1444 148.717 70.1131 148.776 70.0907C148.836 70.0698 148.899 70.0593 148.962 70.0593C149.046 70.0593 149.13 70.0787 149.214 70.1176C149.299 70.1564 149.372 70.2131 149.433 70.2878L150.102 71.1121L150.775 70.2878C150.837 70.2131 150.909 70.1564 150.992 70.1176C151.074 70.0787 151.157 70.0593 151.241 70.0593C151.306 70.0593 151.368 70.0698 151.427 70.0907C151.486 70.1131 151.54 70.1444 151.588 70.1848C151.635 70.2251 151.671 70.2759 151.698 70.3371C151.726 70.3968 151.74 70.464 151.74 70.5387V72.9198C151.74 73.0691 151.693 73.1819 151.6 73.258C151.507 73.3342 151.395 73.3723 151.264 73.3723C151.138 73.3723 151.03 73.3342 150.938 73.258C150.846 73.1819 150.801 73.0691 150.801 72.9198V71.5176L150.456 71.9544C150.401 72.026 150.345 72.0761 150.286 72.1044C150.228 72.1328 150.167 72.147 150.102 72.147Z" fill="white"/>
<path opacity="0.5" d="M153.072 70.5073V72.9198C153.072 73.0691 153.026 73.1819 152.932 73.258C152.839 73.3342 152.729 73.3723 152.602 73.3723C152.473 73.3723 152.362 73.3342 152.271 73.258C152.179 73.1819 152.133 73.0691 152.133 72.9198V70.5073C152.133 70.364 152.179 70.2535 152.271 70.1758C152.362 70.0982 152.473 70.0593 152.602 70.0593C152.729 70.0593 152.839 70.0982 152.932 70.1758C153.026 70.2535 153.072 70.364 153.072 70.5073Z" fill="white"/>
<path opacity="0.5" d="M155.209 71.5489V70.4872C155.209 70.3483 155.254 70.2423 155.344 70.1691C155.433 70.0959 155.54 70.0593 155.666 70.0593C155.785 70.0593 155.89 70.0959 155.978 70.1691C156.067 70.2423 156.111 70.3483 156.111 70.4872V72.9198C156.111 72.9915 156.098 73.055 156.074 73.1102C156.047 73.167 156.014 73.2147 155.973 73.2536C155.933 73.2924 155.886 73.3215 155.834 73.3409C155.779 73.3618 155.723 73.3723 155.666 73.3723C155.588 73.3723 155.512 73.3536 155.437 73.3163C155.363 73.279 155.298 73.22 155.244 73.1393L154.361 71.876V72.9422C154.361 73.0826 154.317 73.1894 154.228 73.2625C154.14 73.3357 154.032 73.3723 153.907 73.3723C153.787 73.3723 153.684 73.3357 153.597 73.2625C153.51 73.1894 153.466 73.0826 153.466 72.9422V70.5073C153.466 70.4386 153.478 70.3759 153.501 70.3192C153.526 70.2639 153.56 70.2169 153.601 70.178C153.643 70.1392 153.69 70.1094 153.741 70.0884C153.793 70.069 153.848 70.0593 153.907 70.0593C153.987 70.0593 154.065 70.0772 154.14 70.1131C154.214 70.1489 154.279 70.2072 154.333 70.2878L155.209 71.5489Z" fill="white"/>
<path opacity="0.5" d="M156.504 72.8979V70.5302C156.504 70.4705 156.519 70.413 156.549 70.3577C156.577 70.3025 156.614 70.2532 156.661 70.2099C156.709 70.1681 156.761 70.1352 156.819 70.1113C156.876 70.0859 156.935 70.0732 156.994 70.0732H157.448C157.743 70.0732 158.001 70.1218 158.222 70.2188C158.444 70.3144 158.628 70.4399 158.774 70.5952C158.921 70.7505 159.032 70.9282 159.107 71.1283C159.182 71.3284 159.219 71.5315 159.219 71.7376C159.219 71.9421 159.183 72.1408 159.112 72.3334C159.04 72.526 158.934 72.6985 158.792 72.8508C158.65 73.0032 158.473 73.1249 158.264 73.216C158.054 73.3071 157.808 73.3526 157.527 73.3526H156.994C156.845 73.3526 156.726 73.3123 156.637 73.2316C156.549 73.151 156.504 73.0397 156.504 72.8979ZM157.443 72.4454H157.532C157.655 72.4454 157.763 72.4237 157.858 72.3804C157.954 72.3371 158.034 72.2804 158.096 72.2102C158.159 72.14 158.207 72.0594 158.238 71.9683C158.271 71.8757 158.287 71.7831 158.287 71.6905C158.287 71.6039 158.271 71.5188 158.24 71.4352C158.211 71.353 158.165 71.2799 158.103 71.2156C158.042 71.1499 157.963 71.0969 157.865 71.0566C157.769 71.0163 157.656 70.9961 157.527 70.9961H157.443V72.4454Z" fill="white"/>
<path opacity="0.5" d="M161.598 73.3526H159.997C159.688 73.3526 159.534 73.201 159.534 72.8979V70.5302C159.534 70.2256 159.688 70.0732 159.997 70.0732H161.598C161.747 70.0732 161.863 70.118 161.945 70.2076C162.028 70.2987 162.069 70.4063 162.069 70.5302C162.069 70.6541 162.028 70.7609 161.945 70.8505C161.863 70.9416 161.747 70.9872 161.598 70.9872H160.468V71.2985H161.409C161.544 71.2985 161.65 71.3396 161.726 71.4217C161.802 71.5039 161.84 71.6009 161.84 71.7129C161.84 71.8249 161.802 71.922 161.726 72.0041C161.65 72.0863 161.544 72.1273 161.409 72.1273H160.468V72.4454H161.598C161.747 72.4454 161.863 72.4895 161.945 72.5776C162.028 72.6657 162.069 72.7724 162.069 72.8979C162.069 73.0218 162.028 73.1286 161.945 73.2182C161.863 73.3078 161.747 73.3526 161.598 73.3526Z" fill="white"/>
<path opacity="0.5" d="M162.451 72.8979V70.5302C162.451 70.4705 162.465 70.413 162.495 70.3577C162.523 70.3025 162.561 70.2532 162.609 70.2099C162.656 70.1681 162.708 70.1352 162.765 70.1113C162.824 70.0859 162.883 70.0732 162.94 70.0732H163.397C163.69 70.0732 163.947 70.1218 164.168 70.2188C164.39 70.3144 164.574 70.4399 164.72 70.5952C164.868 70.7505 164.979 70.9282 165.053 71.1283C165.128 71.3284 165.165 71.5315 165.165 71.7376C165.165 71.9421 165.129 72.1408 165.058 72.3334C164.987 72.526 164.88 72.6985 164.739 72.8508C164.596 73.0032 164.42 73.1249 164.21 73.216C164 73.3071 163.755 73.3526 163.474 73.3526H162.94C162.791 73.3526 162.672 73.3123 162.583 73.2316C162.495 73.151 162.451 73.0397 162.451 72.8979ZM163.39 72.4454H163.478C163.601 72.4454 163.71 72.4237 163.804 72.3804C163.901 72.3371 163.98 72.2804 164.042 72.2102C164.106 72.14 164.154 72.0594 164.187 71.9683C164.218 71.8757 164.233 71.7831 164.233 71.6905C164.233 71.6039 164.218 71.5188 164.189 71.4352C164.158 71.353 164.111 71.2799 164.049 71.2156C163.988 71.1499 163.909 71.0969 163.811 71.0566C163.715 71.0163 163.602 70.9961 163.474 70.9961H163.39V72.4454Z" fill="white"/>
<path opacity="0.5" d="M167.563 70.9401V72.9068C167.563 73.2175 167.407 73.3728 167.094 73.3728C166.778 73.3728 166.619 73.2204 166.619 72.9158V70.5302C166.619 70.2256 166.771 70.0732 167.073 70.0732H168.033C168.237 70.0732 168.414 70.0979 168.565 70.1472C168.715 70.1979 168.839 70.2689 168.935 70.36C169.031 70.4511 169.104 70.5623 169.152 70.6937C169.198 70.8236 169.222 70.9692 169.222 71.1305C169.222 71.2799 169.2 71.4187 169.157 71.5472C169.113 71.6771 169.051 71.7883 168.97 71.8809C168.889 71.975 168.791 72.0489 168.674 72.1027C168.558 72.1564 168.425 72.1833 168.276 72.1833H168.11C167.957 72.1833 167.849 72.149 167.786 72.0803C167.726 72.0101 167.696 71.916 167.696 71.798C167.696 71.6801 167.729 71.5927 167.796 71.536C167.864 71.4807 167.95 71.4531 168.052 71.4531H168.131C168.212 71.4531 168.275 71.4329 168.32 71.3926C168.365 71.3523 168.388 71.2903 168.388 71.2067C168.388 71.1126 168.36 71.0447 168.306 71.0028C168.25 70.961 168.172 70.9401 168.073 70.9401H167.563Z" fill="white"/>
<path opacity="0.5" d="M171.538 73.3526H169.939C169.628 73.3526 169.473 73.201 169.473 72.8979V70.5302C169.473 70.2256 169.628 70.0732 169.939 70.0732H171.538C171.687 70.0732 171.802 70.118 171.885 70.2076C171.967 70.2987 172.008 70.4063 172.008 70.5302C172.008 70.6541 171.967 70.7609 171.885 70.8505C171.802 70.9416 171.687 70.9872 171.538 70.9872H170.407V71.2985H171.349C171.484 71.2985 171.59 71.3396 171.666 71.4217C171.742 71.5039 171.78 71.6009 171.78 71.7129C171.78 71.8249 171.742 71.922 171.666 72.0041C171.59 72.0863 171.484 72.1273 171.349 72.1273H170.407V72.4454H171.538C171.687 72.4454 171.802 72.4895 171.885 72.5776C171.967 72.6657 172.008 72.7724 172.008 72.8979C172.008 73.0218 171.967 73.1286 171.885 73.2182C171.802 73.3078 171.687 73.3526 171.538 73.3526Z" fill="white"/>
<path opacity="0.5" d="M172.332 71.713C172.332 71.4801 172.377 71.2628 172.467 71.0612C172.559 70.8596 172.683 70.6826 172.84 70.5303C172.998 70.378 173.183 70.2585 173.395 70.1719C173.604 70.0853 173.83 70.042 174.073 70.042C174.315 70.042 174.542 70.0853 174.753 70.1719C174.964 70.2585 175.148 70.378 175.305 70.5303C175.462 70.6826 175.586 70.8596 175.678 71.0612C175.771 71.2628 175.818 71.4801 175.818 71.713C175.818 71.946 175.771 72.1633 175.678 72.3649C175.586 72.568 175.462 72.7457 175.305 72.898C175.148 73.0488 174.964 73.1683 174.753 73.2564C174.542 73.343 174.315 73.3863 174.073 73.3863C173.83 73.3863 173.604 73.343 173.395 73.2564C173.183 73.1683 172.998 73.0488 172.84 72.898C172.683 72.7457 172.559 72.568 172.467 72.3649C172.377 72.1633 172.332 71.946 172.332 71.713ZM173.287 71.7265C173.287 71.8325 173.308 71.9318 173.35 72.0244C173.392 72.1155 173.449 72.1954 173.52 72.2641C173.59 72.3313 173.673 72.3843 173.77 72.4231C173.864 72.4619 173.967 72.4814 174.077 72.4814C174.187 72.4814 174.29 72.4619 174.385 72.4231C174.48 72.3843 174.563 72.3313 174.636 72.2641C174.709 72.1954 174.767 72.1155 174.809 72.0244C174.851 71.9318 174.872 71.8325 174.872 71.7265C174.872 71.6219 174.851 71.5226 174.809 71.4286C174.767 71.336 174.709 71.2553 174.636 71.1866C174.563 71.1179 174.48 71.0634 174.385 71.0231C174.29 70.9828 174.187 70.9626 174.077 70.9626C173.967 70.9626 173.864 70.9828 173.77 71.0231C173.673 71.0634 173.59 71.1179 173.52 71.1866C173.449 71.2553 173.392 71.336 173.35 71.4286C173.308 71.5226 173.287 71.6219 173.287 71.7265Z" fill="white"/>
<path opacity="0.5" d="M177.097 70.9401V72.9068C177.097 73.2175 176.94 73.3728 176.626 73.3728C176.309 73.3728 176.151 73.2204 176.151 72.9158V70.5302C176.151 70.2256 176.303 70.0732 176.608 70.0732H177.565C177.77 70.0732 177.947 70.0979 178.096 70.1472C178.247 70.1979 178.371 70.2689 178.467 70.36C178.565 70.4511 178.637 70.5623 178.684 70.6937C178.73 70.8236 178.753 70.9692 178.753 71.1305C178.753 71.2799 178.732 71.4187 178.688 71.5472C178.645 71.6771 178.583 71.7883 178.502 71.8809C178.421 71.975 178.322 72.0489 178.206 72.1027C178.089 72.1564 177.957 72.1833 177.808 72.1833H177.644C177.489 72.1833 177.38 72.149 177.318 72.0803C177.258 72.0101 177.227 71.916 177.227 71.798C177.227 71.6801 177.262 71.5927 177.33 71.536C177.397 71.4807 177.482 71.4531 177.586 71.4531H177.663C177.744 71.4531 177.807 71.4329 177.852 71.3926C177.897 71.3523 177.919 71.2903 177.919 71.2067C177.919 71.1126 177.892 71.0447 177.838 71.0028C177.783 70.961 177.706 70.9401 177.605 70.9401H177.097Z" fill="white"/>
<path opacity="0.5" d="M180.441 73.3521H179.471C179.161 73.3521 179.005 73.2006 179.005 72.8974V70.5073C179.005 70.364 179.052 70.2535 179.145 70.1758C179.237 70.0982 179.346 70.0593 179.471 70.0593C179.597 70.0593 179.707 70.0982 179.8 70.1758C179.895 70.2535 179.942 70.364 179.942 70.5073V72.4449H180.441C180.587 72.4449 180.697 72.489 180.772 72.5771C180.848 72.6652 180.886 72.772 180.886 72.8974C180.886 73.0214 180.848 73.1281 180.772 73.2177C180.697 73.3073 180.587 73.3521 180.441 73.3521Z" fill="white"/>
<path opacity="0.5" d="M183.204 73.3526H181.603C181.293 73.3526 181.137 73.201 181.137 72.8979V70.5302C181.137 70.2256 181.293 70.0732 181.603 70.0732H183.204C183.351 70.0732 183.466 70.118 183.549 70.2076C183.631 70.2987 183.672 70.4063 183.672 70.5302C183.672 70.6541 183.631 70.7609 183.549 70.8505C183.466 70.9416 183.351 70.9872 183.204 70.9872H182.074V71.2985H183.013C183.15 71.2985 183.256 71.3396 183.332 71.4217C183.408 71.5039 183.446 71.6009 183.446 71.7129C183.446 71.8249 183.408 71.922 183.332 72.0041C183.256 72.0863 183.15 72.1273 183.013 72.1273H182.074V72.4454H183.204C183.351 72.4454 183.466 72.4895 183.549 72.5776C183.631 72.6657 183.672 72.7724 183.672 72.8979C183.672 73.0218 183.631 73.1286 183.549 73.2182C183.466 73.3078 183.351 73.3526 183.204 73.3526Z" fill="white"/>
<path opacity="0.2" d="M47.0702 79.1774C60.7159 79.1774 71.778 68.5426 71.778 55.4239C71.778 42.3052 60.7159 31.6704 47.0702 31.6704C33.4244 31.6704 22.3623 42.3052 22.3623 55.4239C22.3623 68.5426 33.4244 79.1774 47.0702 79.1774Z" fill="black"/>
<path opacity="0.19" d="M47.8425 30.6804C32.7964 30.6804 20.5601 42.4441 20.5601 56.909C20.5601 71.3739 32.7964 83.1376 47.8425 83.1376C62.8886 83.1376 75.1249 71.3739 75.1249 56.909C75.1249 42.4441 62.8886 30.6804 47.8425 30.6804ZM47.8425 34.1776C60.9227 34.1776 71.4873 44.3341 71.4873 56.909C71.4873 69.4839 60.9227 79.6405 47.8425 79.6405C34.7623 79.6405 24.1977 69.4839 24.1977 56.909C24.1977 44.3341 34.7623 34.1776 47.8425 34.1776Z" fill="#E5F6FF"/>
<path d="M40.0776 59.2065C41.8629 59.2065 43.3081 57.8171 43.3081 56.1008C43.3081 54.3845 41.8629 52.9951 40.0776 52.9951C38.2924 52.9951 36.8472 54.3845 36.8472 56.1008C36.8472 57.8171 38.2924 59.2065 40.0776 59.2065ZM40.0776 53.54C41.5512 53.54 42.7414 54.6842 42.7414 56.1008C42.7414 57.5174 41.5512 58.6616 40.0776 58.6616C38.6041 58.6616 37.4139 57.5174 37.4139 56.1008C37.4139 54.6842 38.6041 53.54 40.0776 53.54Z" fill="#E5F6FF"/>
<path d="M59.6307 60.6777C59.6307 60.6504 59.6023 60.6504 59.6307 60.6777L58.2988 59.9966C58.0438 59.8331 57.7321 59.8604 57.5054 60.0783C56.5136 60.8411 55.0683 60.8411 54.0482 60.0783C53.8215 59.8876 53.5098 59.8604 53.2547 59.9966L51.9512 60.6777C51.9512 60.6777 51.9229 60.6777 51.9229 60.7049C51.4128 61.0591 51.0161 61.5222 50.8177 62.067L50.4493 61.8491C50.1943 61.6856 49.8826 61.7129 49.6559 61.9036C48.6357 62.6391 47.2188 62.6391 46.1987 61.9036C45.972 61.7129 45.6603 61.6856 45.4052 61.8491L45.0652 62.0398C44.8385 61.4949 44.4701 61.0046 43.96 60.6777C43.96 60.6777 43.9317 60.6777 43.9317 60.6504L42.6282 59.9693C42.3731 59.8059 42.0614 59.8331 41.8347 60.0511C40.8429 60.8139 39.3977 60.8139 38.3775 60.0511C38.1508 59.8604 37.8391 59.8331 37.5841 59.9693L36.2806 60.6504C36.2806 60.6504 36.2522 60.6504 36.2522 60.6777C35.2604 61.3315 34.7787 62.5029 34.977 63.6471L35.8838 67.5701C36.0255 68.2239 36.649 68.6871 37.3574 68.6871H42.9115C43.1382 68.6871 43.3366 68.6326 43.535 68.5509L43.7333 69.4499C43.875 70.1037 44.4984 70.5668 45.2069 70.5668H50.761C51.4695 70.5668 52.0646 70.1037 52.2346 69.4499L52.4329 68.5509C52.6313 68.6326 52.8297 68.6871 53.0564 68.6871H58.6105C59.319 68.6871 59.9141 68.2239 60.0841 67.5701L60.9909 63.6471C61.1326 62.4757 60.6225 61.3315 59.6307 60.6777ZM42.8549 68.1422H37.3007C36.8473 68.1422 36.4789 67.8425 36.3939 67.4339L35.4871 63.5382C35.3171 62.6119 35.7138 61.6584 36.5356 61.1408L37.8391 60.4597C37.8391 60.4597 37.8675 60.4597 37.8675 60.4325C37.8958 60.4052 37.9525 60.4052 37.9808 60.4325C37.9808 60.4325 38.0092 60.4325 38.0092 60.4597C39.2277 61.4132 40.9846 61.4132 42.2031 60.4597C42.2031 60.4597 42.2314 60.4597 42.2314 60.4325C42.2598 60.4052 42.2881 60.4052 42.3448 60.4325C42.3448 60.4325 42.3731 60.4325 42.3731 60.4597L43.6767 61.1408C44.1017 61.4405 44.4134 61.8491 44.6118 62.3122L44.1584 62.5574C44.1584 62.5574 44.1301 62.5574 44.1301 62.5847C43.1382 63.2385 42.6565 64.4099 42.8549 65.5541L43.4216 68.0332C43.1949 68.0877 43.0249 68.1422 42.8549 68.1422ZM51.6112 69.3137C51.5261 69.7223 51.1294 70.022 50.7044 70.022H45.1502C44.6968 70.022 44.3284 69.7223 44.2434 69.3137L43.3366 65.4179C43.1666 64.4917 43.5633 63.5382 44.3851 63.0205L45.6886 62.3395C45.6886 62.3395 45.717 62.3395 45.717 62.3122C45.7453 62.285 45.802 62.285 45.8303 62.3122L45.8586 62.3395C47.0772 63.2385 48.8057 63.2385 50.0243 62.3395L50.0526 62.3122C50.0809 62.285 50.1093 62.285 50.1659 62.3122C50.1659 62.3122 50.1943 62.3122 50.1943 62.3395L51.4978 63.0205C52.2913 63.5654 52.688 64.5189 52.5463 65.4179L51.6112 69.3137ZM60.3675 63.5109L59.4607 67.4339C59.3756 67.8425 58.9789 68.1422 58.5539 68.1422H52.9997C52.8297 68.1422 52.6596 68.0877 52.4896 68.006L53.0564 65.5269C53.2547 64.3827 52.7447 63.2385 51.7812 62.5574C51.7812 62.5574 51.7528 62.5574 51.7528 62.5302L51.2994 62.285C51.4695 61.8219 51.8095 61.4132 52.2346 61.1135L53.5381 60.4325C53.5381 60.4325 53.5664 60.4325 53.5664 60.4052C53.5948 60.378 53.6515 60.378 53.6798 60.4052C53.6798 60.4052 53.7081 60.4052 53.7081 60.4325C54.9266 61.386 56.6836 61.386 57.9021 60.4325C57.9021 60.4325 57.9304 60.4325 57.9304 60.4052C57.9588 60.378 57.9871 60.378 58.0438 60.4052C58.0438 60.4052 58.0721 60.4052 58.0721 60.4325L59.3756 61.1135C60.1124 61.6584 60.5375 62.6119 60.3675 63.5109Z" fill="#E5F6FF"/>
<path d="M52.5464 56.1008C52.5464 57.8171 53.9916 59.2065 55.7769 59.2065C57.5621 59.2065 59.0073 57.8171 59.0073 56.1008C59.0073 54.3845 57.5621 52.9951 55.7769 52.9951C53.9916 52.9951 52.5464 54.3845 52.5464 56.1008ZM55.7769 53.54C57.2504 53.54 58.4406 54.6842 58.4406 56.1008C58.4406 57.5174 57.2504 58.6616 55.7769 58.6616C54.3033 58.6616 53.1131 57.5174 53.1131 56.1008C53.1131 54.6842 54.3033 53.54 55.7769 53.54Z" fill="#E5F6FF"/>
<path d="M47.9273 54.875C46.142 54.875 44.6968 56.2644 44.6968 57.9807C44.6968 59.697 46.142 61.0864 47.9273 61.0864C49.7125 61.0864 51.1577 59.697 51.1577 57.9807C51.1577 56.2644 49.7125 54.875 47.9273 54.875ZM47.9273 60.5415C46.4537 60.5415 45.2635 59.3973 45.2635 57.9807C45.2635 56.5641 46.4537 55.4199 47.9273 55.4199C49.4008 55.4199 50.591 56.5641 50.591 57.9807C50.591 59.3973 49.4008 60.5415 47.9273 60.5415Z" fill="#E5F6FF"/>
<path d="M43.4499 51.7693C43.4216 52.4231 43.2799 52.6138 43.2516 52.6411C43.1382 52.6956 43.0532 52.8045 43.0815 52.9135C43.1099 53.0497 43.2232 53.1587 43.3649 53.1587C44.6684 53.1587 45.2635 52.5593 45.4619 52.2597C45.5186 52.2597 45.5752 52.2597 45.6319 52.2597C46.9071 52.2597 48.0689 51.7965 48.8057 51.0337C49.0891 51.2244 49.4008 51.3879 49.7409 51.4969C50.1943 51.6603 50.6477 51.7148 51.1294 51.7148C51.3278 51.9872 51.8095 52.4231 52.8297 52.4231C52.9713 52.4231 53.0847 52.3142 53.113 52.1779C53.113 52.069 53.0564 51.96 52.943 51.9055C52.9147 51.8783 52.8297 51.742 52.8013 51.2789C53.7648 50.7885 54.3882 49.8895 54.3882 48.936C54.3882 47.4104 52.8863 46.1845 51.0161 46.1845C50.5627 46.1845 50.1376 46.2662 49.7125 46.4024C49.4008 46.5114 49.1458 46.6476 48.8907 46.8111C48.1256 46.021 46.9354 45.5034 45.6036 45.5034C43.3082 45.5034 41.4663 47.029 41.4663 48.8815C41.4663 50.053 42.2031 51.1427 43.4499 51.7693ZM49.9109 46.9473C50.2509 46.8383 50.6477 46.7566 51.0161 46.7566C52.5746 46.7566 53.8215 47.7373 53.8215 48.9633C53.8215 49.7533 53.2831 50.4889 52.4046 50.8975C52.4046 50.8975 52.3763 50.8975 52.3763 50.9248C52.3479 50.9248 52.3196 50.952 52.3196 50.9792L52.2912 51.0065C52.2912 51.0337 52.2629 51.0337 52.2629 51.061C52.2629 51.0882 52.2629 51.0882 52.2629 51.1155C52.2629 51.1427 52.2629 51.1427 52.2629 51.1699C52.2629 51.4696 52.2912 51.6876 52.3479 51.8783C51.7528 51.742 51.5828 51.3879 51.5545 51.3606C51.4978 51.2517 51.3844 51.1972 51.2711 51.1972C50.8177 51.2244 50.336 51.1699 49.9392 51.0337C49.6559 50.952 49.4008 50.8158 49.1741 50.6523C49.5425 50.1347 49.7692 49.5354 49.7692 48.9088C49.7692 48.3094 49.5708 47.7646 49.2591 47.2742C49.4575 47.138 49.6559 47.029 49.9109 46.9473ZM45.6036 46.0483C47.5872 46.0483 49.1741 47.3287 49.1741 48.8815C49.1741 50.4344 47.5589 51.7148 45.6036 51.7148C45.4902 51.7148 45.4052 51.7148 45.2919 51.7148C45.1785 51.7148 45.0652 51.7693 45.0085 51.8783C45.0085 51.9055 44.7535 52.4231 43.875 52.5866C43.9317 52.3686 43.9883 52.0417 43.9883 51.6058C43.9883 51.4969 43.9033 51.3879 43.8183 51.3606C42.7132 50.843 42.0331 49.9168 42.0331 48.9088C42.0331 47.3287 43.6483 46.0483 45.6036 46.0483Z" fill="#E5F6FF"/>
<path d="M43.4498 49.2085C43.4781 49.2358 43.5064 49.263 43.5348 49.263C43.5631 49.2902 43.5914 49.2902 43.6481 49.2902C43.7048 49.2902 43.7331 49.2902 43.7615 49.263C43.7898 49.2358 43.8181 49.2358 43.8465 49.2085C43.9032 49.154 43.9315 49.0995 43.9315 49.0178C43.9315 48.9906 43.9315 48.9361 43.9032 48.9088C43.9032 48.8816 43.8748 48.8544 43.8465 48.8271C43.8181 48.7999 43.7898 48.7726 43.7615 48.7726C43.7048 48.7454 43.6198 48.7454 43.5348 48.7726C43.5064 48.7726 43.4781 48.7999 43.4498 48.8271C43.4214 48.8544 43.3931 48.8816 43.3931 48.9088C43.3647 48.9361 43.3647 48.9633 43.3647 49.0178C43.3647 49.0723 43.3647 49.0995 43.3931 49.1268C43.3931 49.154 43.4214 49.1813 43.4498 49.2085Z" fill="#E5F6FF"/>
<path d="M45.6037 49.2902C45.6887 49.2902 45.7454 49.263 45.8021 49.2085C45.8587 49.154 45.8871 49.0995 45.8871 49.0178C45.8871 48.9905 45.8871 48.9361 45.8587 48.9088C45.8587 48.8816 45.8304 48.8543 45.8021 48.8271C45.6887 48.7181 45.5187 48.7181 45.4053 48.8271C45.377 48.8543 45.3487 48.8816 45.3487 48.9088C45.3203 48.9361 45.3203 48.9633 45.3203 49.0178C45.3203 49.0995 45.3487 49.154 45.4053 49.2085C45.462 49.263 45.547 49.2902 45.6037 49.2902Z" fill="#E5F6FF"/>
<path d="M47.5588 49.2902C47.6438 49.2902 47.7005 49.263 47.7571 49.2085C47.8138 49.154 47.8421 49.0995 47.8421 49.0178C47.8421 48.9361 47.8138 48.8816 47.7571 48.8271C47.6438 48.7181 47.4738 48.7181 47.3604 48.8271C47.3037 48.8816 47.2754 48.9361 47.2754 49.0178C47.2754 49.0995 47.3037 49.154 47.3604 49.2085C47.4171 49.263 47.4738 49.2902 47.5588 49.2902Z" fill="#E5F6FF"/>
</svg>
