<svg width="216" height="58" viewBox="0 0 216 58" fill="none" xmlns="http://www.w3.org/2000/svg">
<path d="M11.72 48.12H30.12V57H0.52V1.16H11.72V48.12ZM63.1588 57.56C57.9321 57.56 53.1321 56.3333 48.7588 53.88C44.3854 51.4267 40.9188 48.04 38.3588 43.72C35.7988 39.3467 34.5188 34.4133 34.5188 28.92C34.5188 23.48 35.7988 18.6 38.3588 14.28C40.9188 9.90666 44.3854 6.49333 48.7588 4.04C53.1321 1.58666 57.9321 0.36 63.1588 0.36C68.4388 0.36 73.2388 1.58666 77.5588 4.04C81.9321 6.49333 85.3721 9.90666 87.8788 14.28C90.4388 18.6 91.7188 23.48 91.7188 28.92C91.7188 34.4133 90.4388 39.3467 87.8788 43.72C85.3721 48.04 81.9321 51.4267 77.5588 53.88C73.1854 56.3333 68.3854 57.56 63.1588 57.56ZM63.1588 47.56C66.5188 47.56 69.4788 46.8133 72.0388 45.32C74.5988 43.7733 76.5988 41.5867 78.0388 38.76C79.4788 35.9333 80.1988 32.6533 80.1988 28.92C80.1988 25.1867 79.4788 21.9333 78.0388 19.16C76.5988 16.3333 74.5988 14.1733 72.0388 12.68C69.4788 11.1867 66.5188 10.44 63.1588 10.44C59.7988 10.44 56.8121 11.1867 54.1988 12.68C51.6388 14.1733 49.6388 16.3333 48.1988 19.16C46.7588 21.9333 46.0388 25.1867 46.0388 28.92C46.0388 32.6533 46.7588 35.9333 48.1988 38.76C49.6388 41.5867 51.6388 43.7733 54.1988 45.32C56.8121 46.8133 59.7988 47.56 63.1588 47.56ZM138.931 17.96C137.651 15.6133 135.891 13.8267 133.651 12.6C131.411 11.3733 128.798 10.76 125.811 10.76C122.505 10.76 119.571 11.5067 117.011 13C114.451 14.4933 112.451 16.6267 111.011 19.4C109.571 22.1733 108.851 25.3733 108.851 29C108.851 32.7333 109.571 35.9867 111.011 38.76C112.505 41.5333 114.558 43.6667 117.171 45.16C119.785 46.6533 122.825 47.4 126.291 47.4C130.558 47.4 134.051 46.28 136.771 44.04C139.491 41.7467 141.278 38.5733 142.131 34.52H122.931V25.96H153.171V35.72C152.425 39.6133 150.825 43.2133 148.371 46.52C145.918 49.8267 142.745 52.4933 138.851 54.52C135.011 56.4933 130.691 57.48 125.891 57.48C120.505 57.48 115.625 56.28 111.251 53.88C106.931 51.4267 103.518 48.04 101.011 43.72C98.5579 39.4 97.3313 34.4933 97.3313 29C97.3313 23.5067 98.5579 18.6 101.011 14.28C103.518 9.90666 106.931 6.52 111.251 4.12C115.625 1.66667 120.478 0.439999 125.811 0.439999C132.105 0.439999 137.571 1.98666 142.211 5.08C146.851 8.12 150.051 12.4133 151.811 17.96H138.931ZM187.378 57.56C182.151 57.56 177.351 56.3333 172.978 53.88C168.604 51.4267 165.138 48.04 162.578 43.72C160.018 39.3467 158.738 34.4133 158.738 28.92C158.738 23.48 160.018 18.6 162.578 14.28C165.138 9.90666 168.604 6.49333 172.978 4.04C177.351 1.58666 182.151 0.36 187.378 0.36C192.658 0.36 197.458 1.58666 201.778 4.04C206.151 6.49333 209.591 9.90666 212.098 14.28C214.658 18.6 215.938 23.48 215.938 28.92C215.938 34.4133 214.658 39.3467 212.098 43.72C209.591 48.04 206.151 51.4267 201.778 53.88C197.404 56.3333 192.604 57.56 187.378 57.56ZM187.378 47.56C190.738 47.56 193.698 46.8133 196.258 45.32C198.818 43.7733 200.818 41.5867 202.258 38.76C203.698 35.9333 204.418 32.6533 204.418 28.92C204.418 25.1867 203.698 21.9333 202.258 19.16C200.818 16.3333 198.818 14.1733 196.258 12.68C193.698 11.1867 190.738 10.44 187.378 10.44C184.018 10.44 181.031 11.1867 178.418 12.68C175.858 14.1733 173.858 16.3333 172.418 19.16C170.978 21.9333 170.258 25.1867 170.258 28.92C170.258 32.6533 170.978 35.9333 172.418 38.76C173.858 41.5867 175.858 43.7733 178.418 45.32C181.031 46.8133 184.018 47.56 187.378 47.56Z" fill="url(#paint0_linear_2601_345)"/>
<defs>
<linearGradient id="paint0_linear_2601_345" x1="36.3948" y1="-8.00002" x2="434.083" y2="83.1994" gradientUnits="userSpaceOnUse">
<stop stop-color="#C139F1"/>
<stop offset="1" stop-color="#03FADC"/>
</linearGradient>
</defs>
</svg>
