<svg width="330" height="486" viewBox="0 0 330 486" fill="none" xmlns="http://www.w3.org/2000/svg">
<line x1="1.5" y1="453" x2="1.50002" y2="-6.55671e-08" stroke="white" stroke-opacity="0.04" stroke-width="3"/>
<line x1="112.5" y1="485" x2="112.5" y2="-6.55671e-08" stroke="white" stroke-opacity="0.04" stroke-width="3"/>
<path d="M14.9576 19.0001H12.5669L16.9196 6.63649H19.6845L24.0431 19.0001H21.6525L18.3503 9.172H18.2537L14.9576 19.0001ZM15.036 14.1525H21.5559V15.9515H15.036V14.1525ZM31.4852 15.1003V9.72739H33.6705V19.0001H31.5516V17.352H31.455C31.2457 17.8712 30.9016 18.2958 30.4227 18.6258C29.9478 18.9559 29.3622 19.1209 28.6659 19.1209C28.0582 19.1209 27.5209 18.986 27.0541 18.7164C26.5912 18.4427 26.229 18.0463 25.9674 17.5271C25.7058 17.0039 25.575 16.372 25.575 15.6315V9.72739H27.7604V15.2934C27.7604 15.881 27.9214 16.3479 28.2433 16.694C28.5653 17.0401 28.9879 17.2132 29.5111 17.2132C29.8331 17.2132 30.145 17.1347 30.4468 16.9777C30.7487 16.8208 30.9962 16.5874 31.1894 16.2775C31.3866 15.9635 31.4852 15.5711 31.4852 15.1003ZM39.9505 22.6706C39.1657 22.6706 38.4915 22.5639 37.9281 22.3506C37.3646 22.1413 36.9119 21.8596 36.5698 21.5054C36.2277 21.1513 35.9902 20.7589 35.8574 20.3282L37.8255 19.8513C37.914 20.0324 38.0428 20.2115 38.2118 20.3886C38.3809 20.5697 38.6083 20.7186 38.894 20.8353C39.1838 20.9561 39.548 21.0165 39.9867 21.0165C40.6065 21.0165 41.1196 20.8655 41.5261 20.5637C41.9326 20.2659 42.1358 19.7749 42.1358 19.0907V17.3339H42.0272C41.9145 17.5593 41.7495 17.7907 41.5321 18.0282C41.3188 18.2656 41.0351 18.4648 40.6809 18.6258C40.3308 18.7868 39.8901 18.8673 39.3588 18.8673C38.6465 18.8673 38.0005 18.7003 37.421 18.3662C36.8455 18.0282 36.3867 17.5251 36.0446 16.857C35.7065 16.1849 35.5375 15.3438 35.5375 14.3336C35.5375 13.3153 35.7065 12.4561 36.0446 11.7558C36.3867 11.0515 36.8475 10.5182 37.427 10.156C38.0066 9.78978 38.6525 9.60666 39.3649 9.60666C39.9082 9.60666 40.3549 9.69922 40.7051 9.88435C41.0592 10.0655 41.341 10.2848 41.5502 10.5424C41.7595 10.7959 41.9185 11.0354 42.0272 11.2608H42.1479V9.72739H44.3031V19.151C44.3031 19.9439 44.1139 20.5999 43.7356 21.1191C43.3573 21.6383 42.8401 22.0266 42.1841 22.2842C41.5281 22.5418 40.7836 22.6706 39.9505 22.6706ZM39.9686 17.1528C40.4314 17.1528 40.8258 17.0401 41.1518 16.8148C41.4778 16.5894 41.7253 16.2654 41.8944 15.8428C42.0634 15.4202 42.1479 14.9131 42.1479 14.3215C42.1479 13.7379 42.0634 13.2268 41.8944 12.7881C41.7293 12.3494 41.4838 12.0094 41.1578 11.7679C40.8359 11.5224 40.4395 11.3996 39.9686 11.3996C39.4816 11.3996 39.0751 11.5264 38.7491 11.78C38.4231 12.0335 38.1776 12.3816 38.0126 12.8243C37.8476 13.263 37.7651 13.7621 37.7651 14.3215C37.7651 14.889 37.8476 15.386 38.0126 15.8126C38.1816 16.2352 38.4292 16.5652 38.7551 16.8027C39.0852 17.0361 39.4896 17.1528 39.9686 17.1528ZM52.4529 15.1003V9.72739H54.6383V19.0001H52.5194V17.352H52.4228C52.2135 17.8712 51.8694 18.2958 51.3904 18.6258C50.9155 18.9559 50.33 19.1209 49.6337 19.1209C49.026 19.1209 48.4887 18.986 48.0218 18.7164C47.559 18.4427 47.1968 18.0463 46.9352 17.5271C46.6736 17.0039 46.5428 16.372 46.5428 15.6315V9.72739H48.7282V15.2934C48.7282 15.881 48.8891 16.3479 49.2111 16.694C49.5331 17.0401 49.9557 17.2132 50.4789 17.2132C50.8008 17.2132 51.1127 17.1347 51.4146 16.9777C51.7164 16.8208 51.964 16.5874 52.1571 16.2775C52.3543 15.9635 52.4529 15.5711 52.4529 15.1003ZM64.2144 12.1784L62.2222 12.3957C62.1659 12.1945 62.0673 12.0053 61.9264 11.8282C61.7896 11.6512 61.6044 11.5083 61.371 11.3996C61.1376 11.291 60.8518 11.2366 60.5138 11.2366C60.059 11.2366 59.6766 11.3352 59.3667 11.5324C59.0609 11.7296 58.9099 11.9852 58.914 12.2991C58.9099 12.5688 59.0086 12.7881 59.2098 12.9572C59.415 13.1262 59.7531 13.265 60.224 13.3737L61.8057 13.7118C62.683 13.9009 63.335 14.2008 63.7616 14.6113C64.1923 15.0218 64.4096 15.5591 64.4136 16.2231C64.4096 16.8067 64.2385 17.3219 63.9005 17.7686C63.5664 18.2113 63.1016 18.5574 62.5059 18.8069C61.9103 19.0565 61.2261 19.1812 60.4534 19.1812C59.3184 19.1812 58.4049 18.9438 57.7126 18.4689C57.0204 17.9899 56.6079 17.3239 56.4751 16.4706L58.6061 16.2654C58.7027 16.684 58.9079 16.9999 59.2219 17.2132C59.5358 17.4265 59.9443 17.5331 60.4474 17.5331C60.9665 17.5331 61.3831 17.4265 61.697 17.2132C62.0149 16.9999 62.1739 16.7363 62.1739 16.4224C62.1739 16.1567 62.0713 15.9374 61.866 15.7643C61.6648 15.5913 61.3509 15.4585 60.9243 15.3659L59.3426 15.0339C58.4532 14.8487 57.7951 14.5368 57.3685 14.0981C56.9419 13.6554 56.7306 13.096 56.7346 12.4199C56.7306 11.8484 56.8856 11.3533 57.1995 10.9348C57.5174 10.5122 57.9581 10.1862 58.5216 9.9568C59.089 9.72337 59.743 9.60666 60.4836 9.60666C61.5702 9.60666 62.4255 9.83807 63.0493 10.3009C63.6771 10.7637 64.0655 11.3896 64.2144 12.1784ZM70.846 9.72739V11.4177H65.5154V9.72739H70.846ZM66.8314 7.5058H69.0168V16.2111C69.0168 16.5049 69.0611 16.7302 69.1496 16.8872C69.2422 17.0401 69.3629 17.1448 69.5118 17.2011C69.6607 17.2575 69.8257 17.2856 70.0068 17.2856C70.1437 17.2856 70.2684 17.2756 70.3811 17.2554C70.4978 17.2353 70.5864 17.2172 70.6468 17.2011L71.015 18.9096C70.8983 18.9498 70.7313 18.9941 70.5139 19.0424C70.3006 19.0907 70.039 19.1188 69.7291 19.1269C69.1818 19.143 68.6888 19.0605 68.2501 18.8794C67.8114 18.6943 67.4633 18.4085 67.2057 18.0221C66.9521 17.6358 66.8274 17.1528 66.8314 16.5733V7.5058Z" fill="white" fill-opacity="0.22"/>
<path d="M124.087 6.63649H126.827L130.498 15.5953H130.643L134.313 6.63649H137.054V19.0001H134.905V10.5062H134.79L131.373 18.9639H129.767L126.35 10.488H126.236V19.0001H124.087V6.63649ZM142.065 19.1873C141.477 19.1873 140.948 19.0826 140.477 18.8733C140.01 18.66 139.64 18.3461 139.366 17.9316C139.096 17.517 138.962 17.0059 138.962 16.3982C138.962 15.875 139.058 15.4424 139.251 15.1003C139.445 14.7582 139.708 14.4845 140.042 14.2792C140.376 14.074 140.753 13.919 141.171 13.8144C141.594 13.7057 142.03 13.6273 142.481 13.579C143.025 13.5226 143.465 13.4723 143.803 13.428C144.141 13.3797 144.387 13.3073 144.54 13.2107C144.697 13.1101 144.775 12.9551 144.775 12.7459V12.7096C144.775 12.2549 144.64 11.9027 144.371 11.6532C144.101 11.4036 143.713 11.2789 143.206 11.2789C142.67 11.2789 142.246 11.3956 141.932 11.629C141.622 11.8625 141.413 12.1381 141.304 12.4561L139.263 12.1663C139.424 11.6029 139.69 11.132 140.06 10.7537C140.431 10.3713 140.883 10.0856 141.419 9.89643C141.954 9.70325 142.546 9.60666 143.194 9.60666C143.64 9.60666 144.085 9.65898 144.528 9.76362C144.97 9.86826 145.375 10.0413 145.741 10.2828C146.107 10.5202 146.401 10.8442 146.623 11.2547C146.848 11.6652 146.961 12.1784 146.961 12.7942V19.0001H144.86V17.7263H144.787C144.654 17.9839 144.467 18.2254 144.226 18.4508C143.988 18.6721 143.689 18.8512 143.326 18.988C142.968 19.1209 142.548 19.1873 142.065 19.1873ZM142.632 17.5814C143.071 17.5814 143.451 17.4949 143.773 17.3219C144.095 17.1448 144.343 16.9113 144.516 16.6216C144.693 16.3318 144.781 16.0159 144.781 15.6738V14.5811C144.713 14.6374 144.596 14.6898 144.431 14.738C144.27 14.7863 144.089 14.8286 143.888 14.8648C143.687 14.901 143.487 14.9332 143.29 14.9614C143.093 14.9896 142.922 15.0137 142.777 15.0339C142.451 15.0781 142.159 15.1506 141.902 15.2512C141.644 15.3518 141.441 15.4927 141.292 15.6738C141.143 15.8509 141.069 16.0803 141.069 16.362C141.069 16.7644 141.215 17.0683 141.509 17.2736C141.803 17.4788 142.177 17.5814 142.632 17.5814ZM149.158 19.0001V9.72739H151.277V11.2728H151.374C151.543 10.7376 151.832 10.3251 152.243 10.0353C152.657 9.74148 153.13 9.59458 153.662 9.59458C153.782 9.59458 153.917 9.60062 154.066 9.61269C154.219 9.62074 154.346 9.63483 154.446 9.65495V11.6652C154.354 11.6331 154.207 11.6049 154.006 11.5807C153.808 11.5526 153.617 11.5385 153.432 11.5385C153.034 11.5385 152.676 11.625 152.358 11.7981C152.044 11.9671 151.796 12.2025 151.615 12.5044C151.434 12.8062 151.343 13.1544 151.343 13.5488V19.0001H149.158ZM159.561 19.1812C158.636 19.1812 157.841 18.978 157.177 18.5715C156.517 18.165 156.007 17.6036 155.649 16.8872C155.295 16.1668 155.118 15.3377 155.118 14.4C155.118 13.4582 155.299 12.6271 155.661 11.9067C156.024 11.1823 156.535 10.6188 157.195 10.2164C157.859 9.8099 158.644 9.60666 159.549 9.60666C160.302 9.60666 160.968 9.74551 161.547 10.0232C162.131 10.2969 162.596 10.6853 162.942 11.1883C163.288 11.6874 163.485 12.271 163.533 12.939H161.445C161.36 12.4923 161.159 12.12 160.841 11.8222C160.527 11.5204 160.107 11.3694 159.579 11.3694C159.133 11.3694 158.74 11.4902 158.402 11.7317C158.064 11.9691 157.8 12.3112 157.611 12.7579C157.426 13.2047 157.334 13.7399 157.334 14.3638C157.334 14.9956 157.426 15.5389 157.611 15.9937C157.796 16.4445 158.056 16.7926 158.39 17.0381C158.728 17.2796 159.124 17.4003 159.579 17.4003C159.901 17.4003 160.189 17.34 160.443 17.2192C160.7 17.0945 160.915 16.9154 161.089 16.6819C161.262 16.4485 161.38 16.1648 161.445 15.8307H163.533C163.481 16.4867 163.288 17.0683 162.954 17.5754C162.62 18.0785 162.165 18.4729 161.59 18.7586C161.014 19.0404 160.338 19.1812 159.561 19.1812ZM167.513 13.5669V19.0001H165.328V6.63649H167.465V11.303H167.574C167.791 10.7798 168.127 10.3673 168.582 10.0655C169.041 9.75959 169.624 9.60666 170.333 9.60666C170.977 9.60666 171.538 9.74148 172.017 10.0111C172.496 10.2808 172.866 10.6752 173.128 11.1944C173.393 11.7135 173.526 12.3474 173.526 13.096V19.0001H171.341V13.4341C171.341 12.8103 171.18 12.3253 170.858 11.9792C170.54 11.629 170.093 11.454 169.518 11.454C169.131 11.454 168.785 11.5385 168.479 11.7075C168.177 11.8725 167.94 12.112 167.767 12.4259C167.598 12.7398 167.513 13.1202 167.513 13.5669Z" fill="white" fill-opacity="0.22"/>
<line x1="222.5" y1="453" x2="222.5" y2="-6.55671e-08" stroke="white" stroke-opacity="0.04" stroke-width="3"/>
<path d="M238.993 19.0001H234.803V6.63649H239.078C240.305 6.63649 241.36 6.884 242.241 7.37903C243.126 7.87003 243.807 8.57635 244.281 9.49799C244.756 10.4196 244.994 11.5224 244.994 12.8062C244.994 14.0941 244.754 15.2009 244.275 16.1265C243.8 17.0522 243.114 17.7626 242.217 18.2576C241.323 18.7526 240.249 19.0001 238.993 19.0001ZM237.043 17.0623H238.884C239.746 17.0623 240.464 16.9053 241.04 16.5914C241.615 16.2734 242.048 15.8005 242.338 15.1727C242.627 14.5408 242.772 13.752 242.772 12.8062C242.772 11.8604 242.627 11.0756 242.338 10.4518C242.048 9.82399 241.619 9.35512 241.052 9.04522C240.488 8.7313 239.788 8.57434 238.951 8.57434H237.043V17.0623ZM251.13 19.1812C250.201 19.1812 249.398 18.988 248.722 18.6017C248.049 18.2113 247.532 17.6599 247.17 16.9476C246.808 16.2312 246.627 15.388 246.627 14.4181C246.627 13.4643 246.808 12.6271 247.17 11.9067C247.536 11.1823 248.047 10.6188 248.703 10.2164C249.359 9.8099 250.13 9.60666 251.016 9.60666C251.587 9.60666 252.126 9.69922 252.634 9.88435C253.145 10.0655 253.595 10.3472 253.986 10.7295C254.38 11.1119 254.69 11.5988 254.915 12.1905C255.141 12.7781 255.254 13.4783 255.254 14.2913V14.9614H247.653V13.4884H253.159C253.155 13.0698 253.064 12.6976 252.887 12.3716C252.71 12.0416 252.462 11.782 252.145 11.5928C251.831 11.4036 251.464 11.3091 251.046 11.3091C250.599 11.3091 250.207 11.4177 249.869 11.6351C249.531 11.8484 249.267 12.1301 249.078 12.4802C248.893 12.8264 248.798 13.2067 248.794 13.6212V14.9071C248.794 15.4464 248.893 15.9092 249.09 16.2956C249.287 16.6779 249.563 16.9717 249.917 17.177C250.271 17.3782 250.686 17.4788 251.161 17.4788C251.478 17.4788 251.766 17.4345 252.024 17.346C252.281 17.2534 252.505 17.1186 252.694 16.9415C252.883 16.7644 253.026 16.5451 253.123 16.2835L255.163 16.5129C255.034 17.0522 254.789 17.5231 254.426 17.9255C254.068 18.324 253.609 18.6339 253.05 18.8552C252.491 19.0726 251.851 19.1812 251.13 19.1812ZM261.147 19.1812C260.221 19.1812 259.427 18.978 258.763 18.5715C258.102 18.165 257.593 17.6036 257.235 16.8872C256.881 16.1668 256.704 15.3377 256.704 14.4C256.704 13.4582 256.885 12.6271 257.247 11.9067C257.609 11.1823 258.121 10.6188 258.781 10.2164C259.445 9.8099 260.229 9.60666 261.135 9.60666C261.888 9.60666 262.554 9.74551 263.133 10.0232C263.717 10.2969 264.182 10.6853 264.528 11.1883C264.874 11.6874 265.071 12.271 265.119 12.939H263.031C262.946 12.4923 262.745 12.12 262.427 11.8222C262.113 11.5204 261.692 11.3694 261.165 11.3694C260.718 11.3694 260.326 11.4902 259.988 11.7317C259.65 11.9691 259.386 12.3112 259.197 12.7579C259.012 13.2047 258.919 13.7399 258.919 14.3638C258.919 14.9956 259.012 15.5389 259.197 15.9937C259.382 16.4445 259.642 16.7926 259.976 17.0381C260.314 17.2796 260.71 17.4003 261.165 17.4003C261.487 17.4003 261.775 17.34 262.028 17.2192C262.286 17.0945 262.501 16.9154 262.674 16.6819C262.848 16.4485 262.966 16.1648 263.031 15.8307H265.119C265.067 16.4867 264.874 17.0683 264.54 17.5754C264.206 18.0785 263.751 18.4729 263.176 18.7586C262.6 19.0404 261.924 19.1812 261.147 19.1812ZM271.019 19.1812C270.089 19.1812 269.286 18.988 268.61 18.6017C267.938 18.2113 267.421 17.6599 267.059 16.9476C266.697 16.2312 266.515 15.388 266.515 14.4181C266.515 13.4643 266.697 12.6271 267.059 11.9067C267.425 11.1823 267.936 10.6188 268.592 10.2164C269.248 9.8099 270.019 9.60666 270.904 9.60666C271.476 9.60666 272.015 9.69922 272.522 9.88435C273.033 10.0655 273.484 10.3472 273.874 10.7295C274.269 11.1119 274.579 11.5988 274.804 12.1905C275.03 12.7781 275.142 13.4783 275.142 14.2913V14.9614H267.542V13.4884H273.047C273.043 13.0698 272.953 12.6976 272.776 12.3716C272.599 12.0416 272.351 11.782 272.033 11.5928C271.719 11.4036 271.353 11.3091 270.934 11.3091C270.488 11.3091 270.095 11.4177 269.757 11.6351C269.419 11.8484 269.156 12.1301 268.966 12.4802C268.781 12.8264 268.687 13.2067 268.683 13.6212V14.9071C268.683 15.4464 268.781 15.9092 268.979 16.2956C269.176 16.6779 269.451 16.9717 269.806 17.177C270.16 17.3782 270.574 17.4788 271.049 17.4788C271.367 17.4788 271.655 17.4345 271.912 17.346C272.17 17.2534 272.393 17.1186 272.583 16.9415C272.772 16.7644 272.915 16.5451 273.011 16.2835L275.052 16.5129C274.923 17.0522 274.677 17.5231 274.315 17.9255C273.957 18.324 273.498 18.6339 272.939 18.8552C272.379 19.0726 271.739 19.1812 271.019 19.1812ZM276.991 19.0001V9.72739H279.08V11.303H279.188C279.382 10.7718 279.702 10.3572 280.148 10.0594C280.595 9.75758 281.128 9.60666 281.748 9.60666C282.376 9.60666 282.905 9.75959 283.336 10.0655C283.771 10.3673 284.076 10.7798 284.253 11.303H284.35C284.555 10.7879 284.901 10.3774 285.388 10.0715C285.879 9.7616 286.461 9.60666 287.133 9.60666C287.986 9.60666 288.683 9.87631 289.222 10.4156C289.761 10.9549 290.031 11.7417 290.031 12.776V19.0001H287.839V13.1141C287.839 12.5386 287.686 12.118 287.381 11.8524C287.075 11.5827 286.7 11.4479 286.258 11.4479C285.73 11.4479 285.318 11.6129 285.02 11.9429C284.726 12.2689 284.579 12.6935 284.579 13.2167V19.0001H282.436V13.0236C282.436 12.5446 282.291 12.1623 282.002 11.8765C281.716 11.5908 281.342 11.4479 280.879 11.4479C280.565 11.4479 280.279 11.5284 280.022 11.6894C279.764 11.8464 279.559 12.0697 279.406 12.3595C279.253 12.6452 279.176 12.9793 279.176 13.3616V19.0001H276.991ZM292.344 19.0001V6.63649H294.53V11.2608H294.62C294.733 11.0354 294.892 10.7959 295.097 10.5424C295.303 10.2848 295.58 10.0655 295.93 9.88435C296.281 9.69922 296.727 9.60666 297.271 9.60666C297.987 9.60666 298.633 9.78978 299.208 10.156C299.788 10.5182 300.247 11.0555 300.585 11.7679C300.927 12.4762 301.098 13.3455 301.098 14.3758C301.098 15.3941 300.931 16.2594 300.597 16.9717C300.263 17.6841 299.808 18.2274 299.233 18.6017C298.657 18.976 298.005 19.1631 297.277 19.1631C296.745 19.1631 296.305 19.0746 295.955 18.8975C295.604 18.7204 295.323 18.5071 295.109 18.2576C294.9 18.004 294.737 17.7646 294.62 17.5392H294.494V19.0001H292.344ZM294.488 14.3638C294.488 14.9634 294.572 15.4886 294.741 15.9394C294.914 16.3902 295.162 16.7423 295.484 16.9959C295.81 17.2454 296.204 17.3702 296.667 17.3702C297.15 17.3702 297.554 17.2414 297.88 16.9838C298.206 16.7222 298.452 16.366 298.617 15.9152C298.786 15.4605 298.87 14.9433 298.87 14.3638C298.87 13.7882 298.788 13.2771 298.623 12.8304C298.458 12.3836 298.212 12.0335 297.886 11.78C297.56 11.5264 297.154 11.3996 296.667 11.3996C296.2 11.3996 295.804 11.5224 295.478 11.7679C295.152 12.0134 294.904 12.3575 294.735 12.8002C294.57 13.2429 294.488 13.7641 294.488 14.3638ZM307.061 19.1812C306.131 19.1812 305.328 18.988 304.652 18.6017C303.98 18.2113 303.463 17.6599 303.101 16.9476C302.739 16.2312 302.557 15.388 302.557 14.4181C302.557 13.4643 302.739 12.6271 303.101 11.9067C303.467 11.1823 303.978 10.6188 304.634 10.2164C305.29 9.8099 306.061 9.60666 306.946 9.60666C307.518 9.60666 308.057 9.69922 308.564 9.88435C309.075 10.0655 309.526 10.3472 309.916 10.7295C310.311 11.1119 310.621 11.5988 310.846 12.1905C311.072 12.7781 311.184 13.4783 311.184 14.2913V14.9614H303.584V13.4884H309.089C309.085 13.0698 308.995 12.6976 308.818 12.3716C308.641 12.0416 308.393 11.782 308.075 11.5928C307.761 11.4036 307.395 11.3091 306.976 11.3091C306.53 11.3091 306.137 11.4177 305.799 11.6351C305.461 11.8484 305.198 12.1301 305.008 12.4802C304.823 12.8264 304.729 13.2067 304.725 13.6212V14.9071C304.725 15.4464 304.823 15.9092 305.021 16.2956C305.218 16.6779 305.493 16.9717 305.848 17.177C306.202 17.3782 306.616 17.4788 307.091 17.4788C307.409 17.4788 307.697 17.4345 307.954 17.346C308.212 17.2534 308.435 17.1186 308.625 16.9415C308.814 16.7644 308.957 16.5451 309.053 16.2835L311.094 16.5129C310.965 17.0522 310.719 17.5231 310.357 17.9255C309.999 18.324 309.54 18.6339 308.981 18.8552C308.421 19.0726 307.781 19.1812 307.061 19.1812ZM313.033 19.0001V9.72739H315.152V11.2728H315.249C315.418 10.7376 315.707 10.3251 316.118 10.0353C316.532 9.74148 317.005 9.59458 317.537 9.59458C317.657 9.59458 317.792 9.60062 317.941 9.61269C318.094 9.62074 318.221 9.63483 318.321 9.65495V11.6652C318.229 11.6331 318.082 11.6049 317.881 11.5807C317.683 11.5526 317.492 11.5385 317.307 11.5385C316.909 11.5385 316.551 11.625 316.233 11.7981C315.919 11.9671 315.671 12.2025 315.49 12.5044C315.309 12.8062 315.218 13.1544 315.218 13.5488V19.0001H313.033Z" fill="white" fill-opacity="0.22"/>
<g clip-path="url(#clip0_320_207)">
<rect x="3" y="42.323" width="140" height="73" rx="6.64311" fill="#08239C"/>
<line x1="4.26046" y1="162.429" x2="212.211" y2="58.6099" stroke="white" stroke-opacity="0.04" stroke-width="13.2862"/>
<line x1="16.1286" y1="186.204" x2="224.08" y2="82.3845" stroke="white" stroke-opacity="0.04" stroke-width="13.2862"/>
<line x1="27.9983" y1="209.978" x2="235.949" y2="106.159" stroke="white" stroke-opacity="0.04" stroke-width="13.2862"/>
<line x1="-8.51834" y1="138.371" x2="199.433" y2="34.5518" stroke="white" stroke-opacity="0.04" stroke-width="13.2862"/>
<line x1="-68.3909" y1="109.64" x2="139.56" y2="5.82056" stroke="white" stroke-opacity="0.04" stroke-width="13.2862"/>
<line x1="-68.3909" y1="79.7461" x2="139.56" y2="-24.0732" stroke="white" stroke-opacity="0.04" stroke-width="13.2862"/>
<line x1="-20.388" y1="114.597" x2="187.563" y2="10.7776" stroke="white" stroke-opacity="0.04" stroke-width="13.2862"/>
<path d="M28.8311 67.5284H27.0665C27.0162 67.239 26.9234 66.9827 26.7882 66.7594C26.6529 66.5329 26.4846 66.341 26.2833 66.1838C26.082 66.0265 25.8524 65.9085 25.5945 65.8299C25.3397 65.7481 25.0645 65.7072 24.7688 65.7072C24.2435 65.7072 23.778 65.8393 23.3722 66.1036C22.9665 66.3646 22.6488 66.7484 22.4192 67.2548C22.1896 67.758 22.0748 68.373 22.0748 69.0996C22.0748 69.8387 22.1896 70.4615 22.4192 70.9679C22.6519 71.4712 22.9696 71.8518 23.3722 72.1097C23.778 72.3645 24.2419 72.4919 24.7641 72.4919C25.0535 72.4919 25.324 72.4541 25.5756 72.3786C25.8304 72.3 26.0584 72.1852 26.2597 72.0342C26.4642 71.8832 26.6356 71.6977 26.774 71.4775C26.9155 71.2573 27.013 71.0057 27.0665 70.7226L28.8311 70.732C28.765 71.1913 28.6219 71.6222 28.4017 72.0248C28.1847 72.4274 27.9001 72.7828 27.5478 73.0911C27.1955 73.3962 26.7834 73.6352 26.3116 73.8082C25.8398 73.9781 25.3161 74.063 24.7405 74.063C23.8912 74.063 23.1332 73.8664 22.4664 73.4733C21.7995 73.0801 21.2742 72.5123 20.8905 71.77C20.5068 71.0277 20.3149 70.1375 20.3149 69.0996C20.3149 68.0584 20.5083 67.1683 20.8952 66.4291C21.2821 65.6868 21.809 65.119 22.4758 64.7259C23.1426 64.3327 23.8975 64.1361 24.7405 64.1361C25.2784 64.1361 25.7785 64.2116 26.2409 64.3626C26.7032 64.5135 27.1153 64.7353 27.477 65.0278C27.8387 65.3172 28.136 65.6726 28.3687 66.0941C28.6046 66.5125 28.7588 66.9906 28.8311 67.5284ZM33.5197 74.0725C32.812 74.0725 32.1987 73.9168 31.6797 73.6054C31.1607 73.294 30.7581 72.8583 30.4718 72.2984C30.1887 71.7386 30.0472 71.0843 30.0472 70.3357C30.0472 69.5871 30.1887 68.9313 30.4718 68.3682C30.7581 67.8052 31.1607 67.368 31.6797 67.0566C32.1987 66.7452 32.812 66.5895 33.5197 66.5895C34.2274 66.5895 34.8408 66.7452 35.3598 67.0566C35.8788 67.368 36.2798 67.8052 36.5629 68.3682C36.8491 68.9313 36.9923 69.5871 36.9923 70.3357C36.9923 71.0843 36.8491 71.7386 36.5629 72.2984C36.2798 72.8583 35.8788 73.294 35.3598 73.6054C34.8408 73.9168 34.2274 74.0725 33.5197 74.0725ZM33.5292 72.7042C33.9129 72.7042 34.2337 72.5988 34.4917 72.3881C34.7496 72.1742 34.9415 71.888 35.0673 71.5294C35.1962 71.1708 35.2607 70.7713 35.2607 70.331C35.2607 69.8875 35.1962 69.4864 35.0673 69.1279C34.9415 68.7661 34.7496 68.4783 34.4917 68.2644C34.2337 68.0506 33.9129 67.9436 33.5292 67.9436C33.136 67.9436 32.8089 68.0506 32.5478 68.2644C32.2899 68.4783 32.0964 68.7661 31.9675 69.1279C31.8416 69.4864 31.7787 69.8875 31.7787 70.331C31.7787 70.7713 31.8416 71.1708 31.9675 71.5294C32.0964 71.888 32.2899 72.1742 32.5478 72.3881C32.8089 72.5988 33.136 72.7042 33.5292 72.7042ZM40.1499 69.6846V73.9309H38.4419V66.6839H40.0744V67.9153H40.1593C40.326 67.5096 40.5918 67.1871 40.9567 66.9481C41.3247 66.709 41.7792 66.5895 42.3202 66.5895C42.8203 66.5895 43.256 66.6965 43.6271 66.9103C44.0014 67.1242 44.2908 67.4341 44.4952 67.8398C44.7028 68.2456 44.8051 68.7378 44.8019 69.3166V73.9309H43.094V69.5808C43.094 69.0964 42.9682 68.7174 42.7165 68.4437C42.468 68.1701 42.1236 68.0333 41.6832 68.0333C41.3844 68.0333 41.1186 68.0993 40.8859 68.2314C40.6563 68.3604 40.4754 68.5475 40.3433 68.7929C40.2143 69.0382 40.1499 69.3355 40.1499 69.6846ZM49.6993 74.0725C48.9759 74.0725 48.3547 73.9136 47.8357 73.5959C47.3198 73.2782 46.9219 72.8395 46.642 72.2796C46.3652 71.7165 46.2268 71.0686 46.2268 70.3357C46.2268 69.5997 46.3683 68.9501 46.6514 68.3871C46.9345 67.8209 47.334 67.3806 47.8498 67.066C48.3688 66.7484 48.9822 66.5895 49.6899 66.5895C50.2781 66.5895 50.7987 66.698 51.2516 66.9151C51.7077 67.129 52.071 67.4325 52.3415 67.8257C52.612 68.2157 52.7661 68.6718 52.8039 69.1939H51.1714C51.1053 68.8448 50.9481 68.5538 50.6996 68.3211C50.4542 68.0852 50.1255 67.9672 49.7135 67.9672C49.3643 67.9672 49.0577 68.0616 48.7935 68.2503C48.5292 68.4359 48.3232 68.7032 48.1754 69.0524C48.0307 69.4015 47.9583 69.8199 47.9583 70.3074C47.9583 70.8012 48.0307 71.2259 48.1754 71.5813C48.3201 71.9336 48.5229 72.2056 48.784 72.3975C49.0482 72.5862 49.3581 72.6806 49.7135 72.6806C49.9651 72.6806 50.19 72.6334 50.3882 72.5391C50.5895 72.4416 50.7578 72.3016 50.893 72.1192C51.0283 71.9367 51.1211 71.715 51.1714 71.4539H52.8039C52.763 71.9666 52.612 72.4211 52.3509 72.8174C52.0898 73.2106 51.7344 73.5189 51.2846 73.7422C50.8348 73.9624 50.3064 74.0725 49.6993 74.0725ZM57.4146 74.0725C56.688 74.0725 56.0605 73.9215 55.5321 73.6195C55.0068 73.3144 54.6026 72.8835 54.3195 72.3267C54.0365 71.7669 53.8949 71.1079 53.8949 70.3499C53.8949 69.6044 54.0365 68.9501 54.3195 68.3871C54.6058 67.8209 55.0052 67.3806 55.5179 67.066C56.0307 66.7484 56.633 66.5895 57.325 66.5895C57.7716 66.5895 58.1931 66.6619 58.5894 66.8066C58.9889 66.9481 59.3412 67.1683 59.6463 67.4671C59.9546 67.7659 60.1967 68.1465 60.3729 68.6089C60.549 69.0681 60.6371 69.6154 60.6371 70.2508V70.7745H54.697V69.6233H58.9999C58.9968 69.2961 58.926 69.0052 58.7876 68.7504C58.6492 68.4925 58.4558 68.2896 58.2073 68.1418C57.9619 67.9939 57.6757 67.92 57.3486 67.92C56.9994 67.92 56.6928 68.005 56.4285 68.1748C56.1643 68.3415 55.9583 68.5617 55.8105 68.8353C55.6658 69.1058 55.5919 69.4031 55.5887 69.7271V70.732C55.5887 71.1535 55.6658 71.5152 55.8199 71.8172C55.974 72.116 56.1895 72.3456 56.4663 72.506C56.7431 72.6633 57.0671 72.7419 57.4382 72.7419C57.6867 72.7419 57.9116 72.7073 58.1129 72.6381C58.3142 72.5658 58.4888 72.4604 58.6366 72.322C58.7845 72.1836 58.8961 72.0122 58.9716 71.8078L60.5663 71.987C60.4657 72.4085 60.2738 72.7765 59.9907 73.0911C59.7108 73.4025 59.3522 73.6447 58.915 73.8177C58.4778 73.9875 57.9777 74.0725 57.4146 74.0725ZM62.082 76.6485V66.6839H63.7617V67.8823H63.8608C63.9488 67.7061 64.0731 67.519 64.2335 67.3208C64.3939 67.1195 64.6109 66.9481 64.8846 66.8066C65.1582 66.6619 65.5074 66.5895 65.932 66.5895C66.4919 66.5895 66.9967 66.7326 67.4465 67.0189C67.8995 67.302 68.258 67.7219 68.5223 68.2786C68.7896 68.8322 68.9233 69.5116 68.9233 70.3168C68.9233 71.1126 68.7928 71.7889 68.5317 72.3456C68.2706 72.9024 67.9152 73.327 67.4654 73.6195C67.0156 73.912 66.5061 74.0583 65.9367 74.0583C65.5215 74.0583 65.1771 73.9891 64.9035 73.8507C64.6298 73.7123 64.4096 73.5456 64.2429 73.3506C64.0794 73.1524 63.952 72.9653 63.8608 72.7891H63.79V76.6485H62.082ZM63.757 70.3074C63.757 70.7761 63.823 71.1865 63.9551 71.5388C64.0904 71.8911 64.2838 72.1663 64.5355 72.3645C64.7902 72.5595 65.0985 72.657 65.4602 72.657C65.8377 72.657 66.1538 72.5564 66.4085 72.3551C66.6633 72.1506 66.8552 71.8722 66.9842 71.52C67.1163 71.1645 67.1823 70.7603 67.1823 70.3074C67.1823 69.8576 67.1178 69.4581 66.9889 69.109C66.8599 68.7599 66.668 68.4862 66.4133 68.288C66.1585 68.0899 65.8408 67.9908 65.4602 67.9908C65.0953 67.9908 64.7855 68.0867 64.5307 68.2786C64.276 68.4705 64.0825 68.7394 63.9504 69.0854C63.8214 69.4314 63.757 69.8387 63.757 70.3074ZM74.0047 66.6839V68.005H69.8386V66.6839H74.0047ZM70.8672 64.9476H72.5751V71.7511C72.5751 71.9808 72.6097 72.1569 72.6789 72.2796C72.7513 72.3991 72.8456 72.4809 72.962 72.5249C73.0784 72.5689 73.2074 72.591 73.3489 72.591C73.4558 72.591 73.5533 72.5831 73.6414 72.5674C73.7326 72.5516 73.8018 72.5375 73.849 72.5249L74.1368 73.8601C74.0456 73.8916 73.9151 73.9262 73.7452 73.9639C73.5785 74.0017 73.3741 74.0237 73.1319 74.03C72.7041 74.0426 72.3188 73.9781 71.9759 73.8365C71.6331 73.6919 71.361 73.4685 71.1597 73.1666C70.9615 72.8646 70.864 72.4872 70.8672 72.0342V64.9476ZM80.0522 70.883V66.6839H81.7601V73.9309H80.1041V72.6429H80.0286C79.865 73.0486 79.5961 73.3805 79.2218 73.6384C78.8506 73.8963 78.393 74.0253 77.8488 74.0253C77.3738 74.0253 76.9539 73.9199 76.5891 73.7092C76.2273 73.4953 75.9443 73.1854 75.7398 72.7797C75.5353 72.3708 75.4331 71.877 75.4331 71.2982V66.6839H77.1411V71.034C77.1411 71.4932 77.2669 71.8581 77.5185 72.1286C77.7702 72.3991 78.1004 72.5343 78.5093 72.5343C78.761 72.5343 79.0047 72.473 79.2406 72.3503C79.4766 72.2277 79.67 72.0452 79.821 71.803C79.9751 71.5577 80.0522 71.251 80.0522 70.883ZM85.6018 74.0772C85.1426 74.0772 84.729 73.9954 84.361 73.8318C83.9961 73.6651 83.7067 73.4198 83.4928 73.0958C83.2821 72.7718 83.1767 72.3724 83.1767 71.8974C83.1767 71.4885 83.2522 71.1504 83.4032 70.883C83.5542 70.6156 83.7602 70.4018 84.0213 70.2413C84.2823 70.0809 84.5764 69.9598 84.9036 69.878C85.2338 69.7931 85.5751 69.7318 85.9274 69.694C86.352 69.65 86.6964 69.6107 86.9607 69.5761C87.2249 69.5383 87.4167 69.4817 87.5363 69.4062C87.6589 69.3276 87.7203 69.2065 87.7203 69.0429V69.0146C87.7203 68.6592 87.6149 68.384 87.4042 68.189C87.1934 67.9939 86.8899 67.8964 86.4936 67.8964C86.0752 67.8964 85.7434 67.9877 85.498 68.1701C85.2558 68.3525 85.0923 68.568 85.0074 68.8165L83.4126 68.59C83.5385 68.1496 83.7461 67.7816 84.0354 67.486C84.3248 67.1871 84.6787 66.9638 85.097 66.816C85.5153 66.665 85.9777 66.5895 86.4841 66.5895C86.8333 66.5895 87.1808 66.6304 87.5268 66.7122C87.8728 66.794 88.1889 66.9292 88.4752 67.1179C88.7614 67.3035 88.991 67.5567 89.164 67.8776C89.3402 68.1984 89.4282 68.5994 89.4282 69.0807V73.9309H87.7863V72.9354H87.7297C87.6259 73.1367 87.4797 73.3254 87.2909 73.5016C87.1054 73.6746 86.871 73.8145 86.5879 73.9215C86.308 74.0253 85.9793 74.0772 85.6018 74.0772ZM86.0453 72.8222C86.3882 72.8222 86.6854 72.7545 86.9371 72.6193C87.1887 72.4809 87.3821 72.2984 87.5174 72.072C87.6558 71.8455 87.725 71.5986 87.725 71.3312V70.4772C87.6715 70.5213 87.5803 70.5622 87.4513 70.5999C87.3255 70.6377 87.184 70.6707 87.0267 70.699C86.8694 70.7273 86.7137 70.7525 86.5596 70.7745C86.4055 70.7965 86.2718 70.8154 86.1586 70.8311C85.9038 70.8657 85.6758 70.9223 85.4745 71.001C85.2731 71.0796 85.1143 71.1897 84.9979 71.3312C84.8815 71.4696 84.8234 71.6489 84.8234 71.8691C84.8234 72.1836 84.9382 72.4211 85.1678 72.5815C85.3974 72.7419 85.6899 72.8222 86.0453 72.8222ZM92.8536 64.2682V73.9309H91.1456V64.2682H92.8536ZM94.6099 73.9309V66.6839H96.3179V73.9309H94.6099ZM95.4686 65.6553C95.1981 65.6553 94.9653 65.5657 94.7703 65.3864C94.5753 65.204 94.4778 64.9854 94.4778 64.7306C94.4778 64.4727 94.5753 64.254 94.7703 64.0748C94.9653 63.8923 95.1981 63.8011 95.4686 63.8011C95.7423 63.8011 95.975 63.8923 96.1669 64.0748C96.3619 64.254 96.4594 64.4727 96.4594 64.7306C96.4594 64.9854 96.3619 65.204 96.1669 65.3864C95.975 65.5657 95.7423 65.6553 95.4686 65.6553ZM103.802 68.5994L102.245 68.7693C102.201 68.612 102.124 68.4642 102.014 68.3258C101.907 68.1874 101.762 68.0757 101.58 67.9908C101.397 67.9059 101.174 67.8634 100.91 67.8634C100.554 67.8634 100.256 67.9405 100.013 68.0946C99.7743 68.2487 99.6563 68.4485 99.6595 68.6938C99.6563 68.9045 99.7334 69.076 99.8907 69.2081C100.051 69.3402 100.315 69.4487 100.683 69.5336L101.919 69.7978C102.605 69.9457 103.115 70.18 103.448 70.5008C103.785 70.8217 103.955 71.2416 103.958 71.7606C103.955 72.2167 103.821 72.6193 103.557 72.9684C103.296 73.3144 102.932 73.5849 102.467 73.7799C102.001 73.9749 101.467 74.0725 100.863 74.0725C99.9756 74.0725 99.2616 73.8869 98.7206 73.5157C98.1796 73.1414 97.8572 72.6208 97.7534 71.954L99.4189 71.7936C99.4943 72.1207 99.6548 72.3676 99.9001 72.5343C100.145 72.7011 100.465 72.7844 100.858 72.7844C101.264 72.7844 101.589 72.7011 101.835 72.5343C102.083 72.3676 102.207 72.1616 102.207 71.9163C102.207 71.7087 102.127 71.5372 101.967 71.402C101.809 71.2667 101.564 71.1629 101.231 71.0906L99.9945 70.8311C99.2993 70.6864 98.7851 70.4426 98.4516 70.0998C98.1182 69.7538 97.9531 69.3166 97.9562 68.7882C97.9531 68.3415 98.0742 67.9546 98.3195 67.6275C98.568 67.2972 98.9124 67.0425 99.3528 66.8632C99.7963 66.6807 100.307 66.5895 100.886 66.5895C101.735 66.5895 102.404 66.7704 102.891 67.1321C103.382 67.4938 103.686 67.9829 103.802 68.5994ZM107.451 74.0772C106.992 74.0772 106.579 73.9954 106.211 73.8318C105.846 73.6651 105.556 73.4198 105.342 73.0958C105.132 72.7718 105.026 72.3724 105.026 71.8974C105.026 71.4885 105.102 71.1504 105.253 70.883C105.404 70.6156 105.61 70.4018 105.871 70.2413C106.132 70.0809 106.426 69.9598 106.753 69.878C107.083 69.7931 107.425 69.7318 107.777 69.694C108.202 69.65 108.546 69.6107 108.81 69.5761C109.074 69.5383 109.266 69.4817 109.386 69.4062C109.509 69.3276 109.57 69.2065 109.57 69.0429V69.0146C109.57 68.6592 109.465 68.384 109.254 68.189C109.043 67.9939 108.739 67.8964 108.343 67.8964C107.925 67.8964 107.593 67.9877 107.348 68.1701C107.105 68.3525 106.942 68.568 106.857 68.8165L105.262 68.59C105.388 68.1496 105.596 67.7816 105.885 67.486C106.174 67.1871 106.528 66.9638 106.947 66.816C107.365 66.665 107.827 66.5895 108.334 66.5895C108.683 66.5895 109.03 66.6304 109.376 66.7122C109.722 66.794 110.039 66.9292 110.325 67.1179C110.611 67.3035 110.841 67.5567 111.014 67.8776C111.19 68.1984 111.278 68.5994 111.278 69.0807V73.9309H109.636V72.9354H109.579C109.476 73.1367 109.329 73.3254 109.141 73.5016C108.955 73.6746 108.721 73.8145 108.438 73.9215C108.158 74.0253 107.829 74.0772 107.451 74.0772ZM107.895 72.8222C108.238 72.8222 108.535 72.7545 108.787 72.6193C109.038 72.4809 109.232 72.2984 109.367 72.072C109.505 71.8455 109.575 71.5986 109.575 71.3312V70.4772C109.521 70.5213 109.43 70.5622 109.301 70.5999C109.175 70.6377 109.034 70.6707 108.876 70.699C108.719 70.7273 108.563 70.7525 108.409 70.7745C108.255 70.7965 108.121 70.8154 108.008 70.8311C107.753 70.8657 107.525 70.9223 107.324 71.001C107.123 71.0796 106.964 71.1897 106.848 71.3312C106.731 71.4696 106.673 71.6489 106.673 71.8691C106.673 72.1836 106.788 72.4211 107.017 72.5815C107.247 72.7419 107.54 72.8222 107.895 72.8222ZM116.614 66.6839V68.005H112.448V66.6839H116.614ZM113.476 64.9476H115.184V71.7511C115.184 71.9808 115.219 72.1569 115.288 72.2796C115.361 72.3991 115.455 72.4809 115.571 72.5249C115.688 72.5689 115.817 72.591 115.958 72.591C116.065 72.591 116.163 72.5831 116.251 72.5674C116.342 72.5516 116.411 72.5375 116.458 72.5249L116.746 73.8601C116.655 73.8916 116.524 73.9262 116.355 73.9639C116.188 74.0017 115.983 74.0237 115.741 74.03C115.313 74.0426 114.928 73.9781 114.585 73.8365C114.242 73.6919 113.97 73.4685 113.769 73.1666C113.571 72.8646 113.473 72.4872 113.476 72.0342V64.9476ZM118.042 73.9309V66.6839H119.75V73.9309H118.042ZM118.901 65.6553C118.631 65.6553 118.398 65.5657 118.203 65.3864C118.008 65.204 117.91 64.9854 117.91 64.7306C117.91 64.4727 118.008 64.254 118.203 64.0748C118.398 63.8923 118.631 63.8011 118.901 63.8011C119.175 63.8011 119.408 63.8923 119.599 64.0748C119.794 64.254 119.892 64.4727 119.892 64.7306C119.892 64.9854 119.794 65.204 119.599 65.3864C119.408 65.5657 119.175 65.6553 118.901 65.6553ZM124.668 74.0725C123.96 74.0725 123.347 73.9168 122.828 73.6054C122.309 73.294 121.906 72.8583 121.62 72.2984C121.337 71.7386 121.195 71.0843 121.195 70.3357C121.195 69.5871 121.337 68.9313 121.62 68.3682C121.906 67.8052 122.309 67.368 122.828 67.0566C123.347 66.7452 123.96 66.5895 124.668 66.5895C125.376 66.5895 125.989 66.7452 126.508 67.0566C127.027 67.368 127.428 67.8052 127.711 68.3682C127.997 68.9313 128.14 69.5871 128.14 70.3357C128.14 71.0843 127.997 71.7386 127.711 72.2984C127.428 72.8583 127.027 73.294 126.508 73.6054C125.989 73.9168 125.376 74.0725 124.668 74.0725ZM124.677 72.7042C125.061 72.7042 125.382 72.5988 125.64 72.3881C125.898 72.1742 126.09 71.888 126.215 71.5294C126.344 71.1708 126.409 70.7713 126.409 70.331C126.409 69.8875 126.344 69.4864 126.215 69.1279C126.09 68.7661 125.898 68.4783 125.64 68.2644C125.382 68.0506 125.061 67.9436 124.677 67.9436C124.284 67.9436 123.957 68.0506 123.696 68.2644C123.438 68.4783 123.245 68.7661 123.116 69.1279C122.99 69.4864 122.927 69.8875 122.927 70.331C122.927 70.7713 122.99 71.1708 123.116 71.5294C123.245 71.888 123.438 72.1742 123.696 72.3881C123.957 72.5988 124.284 72.7042 124.677 72.7042ZM131.298 69.6846V73.9309H129.59V66.6839H131.223V67.9153H131.307C131.474 67.5096 131.74 67.1871 132.105 66.9481C132.473 66.709 132.927 66.5895 133.468 66.5895C133.968 66.5895 134.404 66.6965 134.775 66.9103C135.15 67.1242 135.439 67.4341 135.643 67.8398C135.851 68.2456 135.953 68.7378 135.95 69.3166V73.9309H134.242V69.5808C134.242 69.0964 134.116 68.7174 133.865 68.4437C133.616 68.1701 133.272 68.0333 132.831 68.0333C132.533 68.0333 132.267 68.0993 132.034 68.2314C131.804 68.3604 131.624 68.5475 131.491 68.7929C131.362 69.0382 131.298 69.3355 131.298 69.6846ZM22.5702 95.0772C22.1109 95.0772 21.6973 94.9954 21.3293 94.8318C20.9644 94.6651 20.675 94.4198 20.4612 94.0958C20.2504 93.7718 20.145 93.3724 20.145 92.8974C20.145 92.4885 20.2205 92.1504 20.3715 91.883C20.5225 91.6156 20.7285 91.4018 20.9896 91.2413C21.2507 91.0809 21.5448 90.9598 21.8719 90.878C22.2021 90.7931 22.5434 90.7318 22.8957 90.694C23.3203 90.65 23.6648 90.6107 23.929 90.5761C24.1932 90.5383 24.3851 90.4817 24.5046 90.4062C24.6273 90.3276 24.6886 90.2065 24.6886 90.0429V90.0146C24.6886 89.6592 24.5832 89.384 24.3725 89.189C24.1617 88.9939 23.8582 88.8964 23.4619 88.8964C23.0435 88.8964 22.7117 88.9877 22.4664 89.1701C22.2242 89.3525 22.0606 89.568 21.9757 89.8165L20.3809 89.59C20.5068 89.1496 20.7144 88.7816 21.0037 88.486C21.2931 88.1871 21.647 87.9638 22.0653 87.816C22.4837 87.665 22.946 87.5895 23.4524 87.5895C23.8016 87.5895 24.1492 87.6304 24.4951 87.7122C24.8411 87.794 25.1573 87.9292 25.4435 88.1179C25.7297 88.3035 25.9593 88.5567 26.1323 88.8776C26.3085 89.1984 26.3965 89.5994 26.3965 90.0807V94.9309H24.7546V93.9354H24.698C24.5942 94.1367 24.448 94.3254 24.2592 94.5016C24.0737 94.6746 23.8393 94.8145 23.5562 94.9215C23.2763 95.0253 22.9476 95.0772 22.5702 95.0772ZM23.0137 93.8222C23.3565 93.8222 23.6537 93.7545 23.9054 93.6193C24.157 93.4809 24.3505 93.2984 24.4857 93.072C24.6241 92.8455 24.6933 92.5986 24.6933 92.3312V91.4772C24.6398 91.5213 24.5486 91.5622 24.4197 91.5999C24.2938 91.6377 24.1523 91.6707 23.995 91.699C23.8378 91.7273 23.6821 91.7525 23.5279 91.7745C23.3738 91.7965 23.2401 91.8154 23.1269 91.8311C22.8721 91.8657 22.6441 91.9223 22.4428 92.001C22.2415 92.0796 22.0826 92.1897 21.9662 92.3312C21.8499 92.4696 21.7917 92.6489 21.7917 92.8691C21.7917 93.1836 21.9065 93.4211 22.1361 93.5815C22.3657 93.7419 22.6582 93.8222 23.0137 93.8222ZM29.8219 90.6846V94.9309H28.1139V87.6839H29.7464V88.9153H29.8313C29.998 88.5096 30.2638 88.1871 30.6287 87.9481C30.9967 87.709 31.4512 87.5895 31.9922 87.5895C32.4924 87.5895 32.928 87.6965 33.2992 87.9103C33.6735 88.1242 33.9628 88.4341 34.1673 88.8398C34.3749 89.2456 34.4771 89.7378 34.474 90.3166V94.9309H32.766V90.5808C32.766 90.0964 32.6402 89.7174 32.3886 89.4437C32.1401 89.1701 31.7956 89.0333 31.3553 89.0333C31.0565 89.0333 30.7907 89.0993 30.5579 89.2314C30.3283 89.3604 30.1475 89.5475 30.0153 89.7929C29.8864 90.0382 29.8219 90.3355 29.8219 90.6846ZM38.8996 95.0583C38.3302 95.0583 37.8207 94.912 37.3709 94.6195C36.9211 94.327 36.5657 93.9024 36.3046 93.3456C36.0435 92.7889 35.913 92.1126 35.913 91.3168C35.913 90.5116 36.0451 89.8322 36.3093 89.2786C36.5767 88.7219 36.9368 88.302 37.3898 88.0189C37.8427 87.7326 38.3475 87.5895 38.9043 87.5895C39.3289 87.5895 39.678 87.6619 39.9517 87.8066C40.2254 87.9481 40.4424 88.1195 40.6028 88.3208C40.7632 88.519 40.8875 88.7061 40.9755 88.8823H41.0463V85.2682H42.759V94.9309H41.0793V93.7891H40.9755C40.8875 93.9653 40.7601 94.1524 40.5934 94.3506C40.4267 94.5456 40.2065 94.7123 39.9328 94.8507C39.6592 94.9891 39.3148 95.0583 38.8996 95.0583ZM39.3761 93.657C39.7378 93.657 40.0461 93.5595 40.3008 93.3645C40.5556 93.1663 40.7491 92.8911 40.8812 92.5388C41.0133 92.1865 41.0793 91.7761 41.0793 91.3074C41.0793 90.8387 41.0133 90.4314 40.8812 90.0854C40.7522 89.7394 40.5603 89.4705 40.3056 89.2786C40.0539 89.0867 39.7441 88.9908 39.3761 88.9908C38.9955 88.9908 38.6778 89.0899 38.423 89.288C38.1683 89.4862 37.9764 89.7599 37.8474 90.109C37.7185 90.4581 37.654 90.8576 37.654 91.3074C37.654 91.7603 37.7185 92.1645 37.8474 92.52C37.9795 92.8722 38.173 93.1506 38.4277 93.3551C38.6857 93.5564 39.0018 93.657 39.3761 93.657ZM50.5639 95.0583C49.9946 95.0583 49.485 94.912 49.0353 94.6195C48.5855 94.327 48.23 93.9024 47.969 93.3456C47.7079 92.7889 47.5774 92.1126 47.5774 91.3168C47.5774 90.5116 47.7095 89.8322 47.9737 89.2786C48.241 88.7219 48.6012 88.302 49.0541 88.0189C49.5071 87.7326 50.0119 87.5895 50.5686 87.5895C50.9933 87.5895 51.3424 87.6619 51.6161 87.8066C51.8897 87.9481 52.1067 88.1195 52.2672 88.3208C52.4276 88.519 52.5518 88.7061 52.6399 88.8823H52.7107V85.2682H54.4233V94.9309H52.7437V93.7891H52.6399C52.5518 93.9653 52.4244 94.1524 52.2577 94.3506C52.091 94.5456 51.8708 94.7123 51.5972 94.8507C51.3235 94.9891 50.9791 95.0583 50.5639 95.0583ZM51.0405 93.657C51.4022 93.657 51.7104 93.5595 51.9652 93.3645C52.22 93.1663 52.4134 92.8911 52.5455 92.5388C52.6776 92.1865 52.7437 91.7761 52.7437 91.3074C52.7437 90.8387 52.6776 90.4314 52.5455 90.0854C52.4166 89.7394 52.2247 89.4705 51.9699 89.2786C51.7183 89.0867 51.4085 88.9908 51.0405 88.9908C50.6599 88.9908 50.3422 89.0899 50.0874 89.288C49.8326 89.4862 49.6407 89.7599 49.5118 90.109C49.3828 90.4581 49.3183 90.8576 49.3183 91.3074C49.3183 91.7603 49.3828 92.1645 49.5118 92.52C49.6439 92.8722 49.8373 93.1506 50.0921 93.3551C50.35 93.5564 50.6662 93.657 51.0405 93.657ZM59.4517 95.0725C58.7251 95.0725 58.0976 94.9215 57.5692 94.6195C57.0439 94.3144 56.6397 93.8835 56.3566 93.3267C56.0735 92.7669 55.932 92.1079 55.932 91.3499C55.932 90.6044 56.0735 89.9501 56.3566 89.3871C56.6428 88.8209 57.0423 88.3806 57.555 88.066C58.0677 87.7484 58.67 87.5895 59.362 87.5895C59.8087 87.5895 60.2302 87.6619 60.6265 87.8066C61.026 87.9481 61.3782 88.1683 61.6834 88.4671C61.9916 88.7659 62.2338 89.1465 62.4099 89.6089C62.5861 90.0681 62.6742 90.6154 62.6742 91.2508V91.7745H56.734V90.6233H61.037C61.0338 90.2961 60.9631 90.0052 60.8247 89.7504C60.6863 89.4925 60.4928 89.2896 60.2443 89.1418C59.999 88.9939 59.7128 88.92 59.3856 88.92C59.0365 88.92 58.7298 89.005 58.4656 89.1748C58.2014 89.3415 57.9954 89.5617 57.8475 89.8353C57.7028 90.1058 57.6289 90.4031 57.6258 90.7271V91.732C57.6258 92.1535 57.7028 92.5152 57.857 92.8172C58.0111 93.116 58.2265 93.3456 58.5033 93.506C58.7801 93.6633 59.1041 93.7419 59.4753 93.7419C59.7238 93.7419 59.9487 93.7073 60.15 93.6381C60.3513 93.5658 60.5258 93.4604 60.6737 93.322C60.8215 93.1836 60.9332 93.0122 61.0087 92.8078L62.6034 92.987C62.5027 93.4085 62.3109 93.7765 62.0278 94.0911C61.7478 94.4025 61.3893 94.6447 60.952 94.8177C60.5148 94.9875 60.0147 95.0725 59.4517 95.0725ZM69.8469 89.5994L68.2899 89.7693C68.2459 89.612 68.1688 89.4642 68.0587 89.3258C67.9518 89.1874 67.8071 89.0757 67.6246 88.9908C67.4422 88.9059 67.2189 88.8634 66.9547 88.8634C66.5992 88.8634 66.3004 88.9405 66.0582 89.0946C65.8192 89.2487 65.7012 89.4485 65.7044 89.6938C65.7012 89.9045 65.7783 90.076 65.9356 90.2081C66.096 90.3402 66.3602 90.4487 66.7282 90.5336L67.9643 90.7978C68.65 90.9457 69.1596 91.18 69.493 91.5008C69.8296 91.8217 69.9994 92.2416 70.0026 92.7606C69.9994 93.2167 69.8657 93.6193 69.6015 93.9684C69.3405 94.3144 68.9772 94.5849 68.5116 94.7799C68.0461 94.9749 67.5114 95.0725 66.9075 95.0725C66.0205 95.0725 65.3065 94.8869 64.7655 94.5157C64.2244 94.1414 63.902 93.6208 63.7982 92.954L65.4637 92.7936C65.5392 93.1207 65.6996 93.3676 65.945 93.5343C66.1903 93.7011 66.5096 93.7844 66.9028 93.7844C67.3085 93.7844 67.6341 93.7011 67.8794 93.5343C68.1279 93.3676 68.2521 93.1616 68.2521 92.9163C68.2521 92.7087 68.1719 92.5372 68.0115 92.402C67.8543 92.2667 67.6089 92.1629 67.2755 92.0906L66.0394 91.8311C65.3442 91.6864 64.8299 91.4426 64.4965 91.0998C64.1631 90.7538 63.998 90.3166 64.0011 89.7882C63.998 89.3415 64.1191 88.9546 64.3644 88.6275C64.6129 88.2972 64.9573 88.0425 65.3977 87.8632C65.8412 87.6807 66.3523 87.5895 66.9311 87.5895C67.7803 87.5895 68.4487 87.7704 68.9363 88.1321C69.427 88.4938 69.7305 88.9829 69.8469 89.5994ZM71.4109 94.9309V87.6839H73.1189V94.9309H71.4109ZM72.2696 86.6553C71.9991 86.6553 71.7664 86.5657 71.5713 86.3864C71.3763 86.204 71.2788 85.9854 71.2788 85.7306C71.2788 85.4727 71.3763 85.254 71.5713 85.0748C71.7664 84.8923 71.9991 84.8011 72.2696 84.8011C72.5433 84.8011 72.776 84.8923 72.9679 85.0748C73.1629 85.254 73.2604 85.4727 73.2604 85.7306C73.2604 85.9854 73.1629 86.204 72.9679 86.3864C72.776 86.5657 72.5433 86.6553 72.2696 86.6553ZM78.0269 97.7995C77.4136 97.7995 76.8867 97.7162 76.4463 97.5495C76.006 97.3859 75.6521 97.1657 75.3848 96.8889C75.1174 96.6121 74.9318 96.3055 74.828 95.9689L76.3661 95.5962C76.4353 95.7377 76.536 95.8777 76.6681 96.0161C76.8002 96.1576 76.9779 96.274 77.2012 96.3652C77.4277 96.4596 77.7124 96.5068 78.0552 96.5068C78.5396 96.5068 78.9406 96.3888 79.2583 96.1529C79.576 95.9201 79.7349 95.5364 79.7349 95.0017V93.6287H79.6499C79.5619 93.8049 79.4329 93.9857 79.2631 94.1713C79.0963 94.3569 78.8746 94.5126 78.5978 94.6384C78.3241 94.7642 77.9797 94.8271 77.5645 94.8271C77.0078 94.8271 76.503 94.6966 76.05 94.4355C75.6002 94.1713 75.2416 93.7781 74.9743 93.256C74.7101 92.7307 74.578 92.0733 74.578 91.2838C74.578 90.488 74.7101 89.8165 74.9743 89.2692C75.2416 88.7187 75.6018 88.302 76.0547 88.0189C76.5077 87.7326 77.0125 87.5895 77.5692 87.5895C77.9939 87.5895 78.343 87.6619 78.6167 87.8066C78.8935 87.9481 79.1136 88.1195 79.2772 88.3208C79.4408 88.519 79.565 88.7061 79.6499 88.8823H79.7443V87.6839H81.4287V95.0489C81.4287 95.6685 81.2808 96.1812 80.9852 96.587C80.6895 96.9927 80.2853 97.2963 79.7726 97.4976C79.2599 97.6989 78.678 97.7995 78.0269 97.7995ZM78.0411 93.4872C78.4028 93.4872 78.711 93.3991 78.9658 93.2229C79.2206 93.0468 79.414 92.7936 79.5461 92.4633C79.6782 92.1331 79.7443 91.7367 79.7443 91.2744C79.7443 90.8183 79.6782 90.4188 79.5461 90.076C79.4172 89.7331 79.2253 89.4673 78.9705 89.2786C78.7189 89.0867 78.4091 88.9908 78.0411 88.9908C77.6605 88.9908 77.3428 89.0899 77.088 89.288C76.8332 89.4862 76.6414 89.7583 76.5124 90.1043C76.3834 90.4471 76.3189 90.8372 76.3189 91.2744C76.3189 91.7179 76.3834 92.1063 76.5124 92.4397C76.6445 92.77 76.8379 93.0279 77.0927 93.2135C77.3506 93.3959 77.6668 93.4872 78.0411 93.4872ZM84.887 90.6846V94.9309H83.1791V87.6839H84.8116V88.9153H84.8965C85.0632 88.5096 85.329 88.1871 85.6938 87.9481C86.0619 87.709 86.5164 87.5895 87.0574 87.5895C87.5575 87.5895 87.9931 87.6965 88.3643 87.9103C88.7386 88.1242 89.028 88.4341 89.2324 88.8398C89.44 89.2456 89.5423 89.7378 89.5391 90.3166V94.9309H87.8312V90.5808C87.8312 90.0964 87.7053 89.7174 87.4537 89.4437C87.2052 89.1701 86.8608 89.0333 86.4204 89.0333C86.1216 89.0333 85.8558 89.0993 85.6231 89.2314C85.3935 89.3604 85.2126 89.5475 85.0805 89.7929C84.9515 90.0382 84.887 90.3355 84.887 90.6846ZM96.6564 95.0772C96.1972 95.0772 95.7835 94.9954 95.4155 94.8318C95.0507 94.6651 94.7613 94.4198 94.5474 94.0958C94.3367 93.7718 94.2313 93.3724 94.2313 92.8974C94.2313 92.4885 94.3068 92.1504 94.4578 91.883C94.6087 91.6156 94.8148 91.4018 95.0758 91.2413C95.3369 91.0809 95.631 90.9598 95.9581 90.878C96.2884 90.7931 96.6297 90.7318 96.9819 90.694C97.4066 90.65 97.751 90.6107 98.0152 90.5761C98.2794 90.5383 98.4713 90.4817 98.5908 90.4062C98.7135 90.3276 98.7748 90.2065 98.7748 90.0429V90.0146C98.7748 89.6592 98.6695 89.384 98.4587 89.189C98.248 88.9939 97.9444 88.8964 97.5481 88.8964C97.1298 88.8964 96.7979 88.9877 96.5526 89.1701C96.3104 89.3525 96.1468 89.568 96.0619 89.8165L94.4672 89.59C94.593 89.1496 94.8006 88.7816 95.09 88.486C95.3794 88.1871 95.7332 87.9638 96.1516 87.816C96.5699 87.665 97.0323 87.5895 97.5387 87.5895C97.8878 87.5895 98.2354 87.6304 98.5814 87.7122C98.9274 87.794 99.2435 87.9292 99.5297 88.1179C99.816 88.3035 100.046 88.5567 100.219 88.8776C100.395 89.1984 100.483 89.5994 100.483 90.0807V94.9309H98.8409V93.9354H98.7843C98.6805 94.1367 98.5342 94.3254 98.3455 94.5016C98.1599 94.6746 97.9256 94.8145 97.6425 94.9215C97.3625 95.0253 97.0338 95.0772 96.6564 95.0772ZM97.0999 93.8222C97.4428 93.8222 97.74 93.7545 97.9916 93.6193C98.2433 93.4809 98.4367 93.2984 98.572 93.072C98.7104 92.8455 98.7796 92.5986 98.7796 92.3312V91.4772C98.7261 91.5213 98.6349 91.5622 98.5059 91.5999C98.3801 91.6377 98.2385 91.6707 98.0813 91.699C97.924 91.7273 97.7683 91.7525 97.6142 91.7745C97.4601 91.7965 97.3264 91.8154 97.2131 91.8311C96.9584 91.8657 96.7303 91.9223 96.529 92.001C96.3277 92.0796 96.1689 92.1897 96.0525 92.3312C95.9361 92.4696 95.8779 92.6489 95.8779 92.8691C95.8779 93.1836 95.9927 93.4211 96.2223 93.5815C96.4519 93.7419 96.7445 93.8222 97.0999 93.8222ZM102.2 97.6485V87.6839H103.88V88.8823H103.979C104.067 88.7061 104.191 88.519 104.352 88.3208C104.512 88.1195 104.729 87.9481 105.003 87.8066C105.276 87.6619 105.626 87.5895 106.05 87.5895C106.61 87.5895 107.115 87.7326 107.565 88.0189C108.018 88.302 108.376 88.7219 108.64 89.2786C108.908 89.8322 109.041 90.5116 109.041 91.3168C109.041 92.1126 108.911 92.7889 108.65 93.3456C108.389 93.9024 108.033 94.327 107.584 94.6195C107.134 94.912 106.624 95.0583 106.055 95.0583C105.64 95.0583 105.295 94.9891 105.022 94.8507C104.748 94.7123 104.528 94.5456 104.361 94.3506C104.198 94.1524 104.07 93.9653 103.979 93.7891H103.908V97.6485H102.2ZM103.875 91.3074C103.875 91.7761 103.941 92.1865 104.073 92.5388C104.209 92.8911 104.402 93.1663 104.654 93.3645C104.908 93.5595 105.217 93.657 105.578 93.657C105.956 93.657 106.272 93.5564 106.527 93.3551C106.781 93.1506 106.973 92.8722 107.102 92.52C107.234 92.1645 107.3 91.7603 107.3 91.3074C107.3 90.8576 107.236 90.4581 107.107 90.109C106.978 89.7599 106.786 89.4862 106.531 89.288C106.277 89.0899 105.959 88.9908 105.578 88.9908C105.213 88.9908 104.904 89.0867 104.649 89.2786C104.394 89.4705 104.201 89.7394 104.069 90.0854C103.94 90.4314 103.875 90.8387 103.875 91.3074ZM110.504 97.6485V87.6839H112.184V88.8823H112.283C112.371 88.7061 112.495 88.519 112.656 88.3208C112.816 88.1195 113.033 87.9481 113.307 87.8066C113.58 87.6619 113.929 87.5895 114.354 87.5895C114.914 87.5895 115.419 87.7326 115.869 88.0189C116.322 88.302 116.68 88.7219 116.944 89.2786C117.212 89.8322 117.345 90.5116 117.345 91.3168C117.345 92.1126 117.215 92.7889 116.954 93.3456C116.693 93.9024 116.337 94.327 115.887 94.6195C115.438 94.912 114.928 95.0583 114.359 95.0583C113.944 95.0583 113.599 94.9891 113.325 94.8507C113.052 94.7123 112.832 94.5456 112.665 94.3506C112.501 94.1524 112.374 93.9653 112.283 93.7891H112.212V97.6485H110.504ZM112.179 91.3074C112.179 91.7761 112.245 92.1865 112.377 92.5388C112.512 92.8911 112.706 93.1663 112.957 93.3645C113.212 93.5595 113.521 93.657 113.882 93.657C114.26 93.657 114.576 93.5564 114.831 93.3551C115.085 93.1506 115.277 92.8722 115.406 92.52C115.538 92.1645 115.604 91.7603 115.604 91.3074C115.604 90.8576 115.54 90.4581 115.411 90.109C115.282 89.7599 115.09 89.4862 114.835 89.288C114.581 89.0899 114.263 88.9908 113.882 88.9908C113.517 88.9908 113.208 89.0867 112.953 89.2786C112.698 89.4705 112.505 89.7394 112.372 90.0854C112.243 90.4314 112.179 90.8387 112.179 91.3074Z" fill="white"/>
</g>
<g clip-path="url(#clip1_320_207)">
<rect x="59" y="125.323" width="147" height="74" rx="6.79012" fill="#B629DE"/>
<line x1="60.2876" y1="248.088" x2="272.841" y2="141.971" stroke="white" stroke-opacity="0.11" stroke-width="13.5802"/>
<line x1="72.4189" y1="272.388" x2="284.972" y2="166.271" stroke="white" stroke-opacity="0.11" stroke-width="13.5802"/>
<line x1="84.551" y1="296.689" x2="297.104" y2="190.572" stroke="white" stroke-opacity="0.11" stroke-width="13.5802"/>
<line x1="47.2258" y1="223.497" x2="259.779" y2="117.38" stroke="white" stroke-opacity="0.11" stroke-width="13.5802"/>
<line x1="-13.9715" y1="194.13" x2="198.582" y2="88.0133" stroke="white" stroke-opacity="0.11" stroke-width="13.5802"/>
<line x1="-13.9715" y1="163.575" x2="198.582" y2="57.4576" stroke="white" stroke-opacity="0.11" stroke-width="13.5802"/>
<line x1="35.094" y1="199.197" x2="247.647" y2="93.08" stroke="white" stroke-opacity="0.11" stroke-width="13.5802"/>
<path d="M80.2961 157.298H76.9492V147.422H80.3636C81.3442 147.422 82.1865 147.62 82.8906 148.015C83.5979 148.407 84.1413 148.971 84.5206 149.708C84.9 150.444 85.0897 151.325 85.0897 152.35C85.0897 153.379 84.8984 154.263 84.5158 155.003C84.1364 155.742 83.5883 156.31 82.8713 156.705C82.1576 157.101 81.2992 157.298 80.2961 157.298ZM78.7384 155.75H80.2093C80.8973 155.75 81.4712 155.625 81.9309 155.374C82.3907 155.12 82.7363 154.742 82.9678 154.241C83.1992 153.736 83.315 153.106 83.315 152.35C83.315 151.595 83.1992 150.968 82.9678 150.47C82.7363 149.968 82.3939 149.594 81.9406 149.346C81.4905 149.095 80.9311 148.97 80.2623 148.97H78.7384V155.75ZM89.9918 157.443C89.2491 157.443 88.6077 157.289 88.0676 156.98C87.5307 156.668 87.1176 156.228 86.8282 155.659C86.5389 155.086 86.3942 154.413 86.3942 153.638C86.3942 152.876 86.5389 152.207 86.8282 151.632C87.1208 151.053 87.5291 150.603 88.0531 150.282C88.5772 149.957 89.1929 149.794 89.9002 149.794C90.3567 149.794 90.7875 149.868 91.1926 150.016C91.6009 150.161 91.961 150.386 92.2728 150.691C92.5879 150.997 92.8355 151.386 93.0155 151.859C93.1956 152.328 93.2856 152.887 93.2856 153.537V154.072H87.214V152.895H91.6122C91.6089 152.561 91.5366 152.264 91.3951 152.003C91.2537 151.74 91.056 151.532 90.802 151.381C90.5512 151.23 90.2586 151.154 89.9243 151.154C89.5674 151.154 89.2539 151.241 88.9839 151.415C88.7138 151.585 88.5032 151.81 88.3521 152.09C88.2042 152.366 88.1287 152.67 88.1255 153.001V154.029C88.1255 154.459 88.2042 154.829 88.3618 155.138C88.5193 155.443 88.7395 155.678 89.0225 155.842C89.3054 156.003 89.6365 156.083 90.0159 156.083C90.2699 156.083 90.4998 156.048 90.7055 155.977C90.9113 155.903 91.0897 155.795 91.2408 155.654C91.3919 155.512 91.5061 155.337 91.5832 155.128L93.2132 155.311C93.1104 155.742 92.9142 156.118 92.6249 156.44C92.3387 156.758 91.9722 157.006 91.5253 157.183C91.0785 157.356 90.5673 157.443 89.9918 157.443ZM101.167 149.891L98.5289 157.298H96.5999L93.9619 149.891H95.8234L97.5258 155.393H97.6029L99.3101 149.891H101.167ZM105.402 157.443C104.66 157.443 104.018 157.289 103.478 156.98C102.941 156.668 102.528 156.228 102.239 155.659C101.949 155.086 101.805 154.413 101.805 153.638C101.805 152.876 101.949 152.207 102.239 151.632C102.531 151.053 102.939 150.603 103.464 150.282C103.988 149.957 104.603 149.794 105.311 149.794C105.767 149.794 106.198 149.868 106.603 150.016C107.011 150.161 107.371 150.386 107.683 150.691C107.998 150.997 108.246 151.386 108.426 151.859C108.606 152.328 108.696 152.887 108.696 153.537V154.072H102.624V152.895H107.023C107.019 152.561 106.947 152.264 106.806 152.003C106.664 151.74 106.466 151.532 106.212 151.381C105.962 151.23 105.669 151.154 105.335 151.154C104.978 151.154 104.664 151.241 104.394 151.415C104.124 151.585 103.914 151.81 103.763 152.09C103.615 152.366 103.539 152.67 103.536 153.001V154.029C103.536 154.459 103.615 154.829 103.772 155.138C103.93 155.443 104.15 155.678 104.433 155.842C104.716 156.003 105.047 156.083 105.426 156.083C105.68 156.083 105.91 156.048 106.116 155.977C106.322 155.903 106.5 155.795 106.651 155.654C106.802 155.512 106.916 155.337 106.994 155.128L108.624 155.311C108.521 155.742 108.325 156.118 108.035 156.44C107.749 156.758 107.383 157.006 106.936 157.183C106.489 157.356 105.978 157.443 105.402 157.443ZM111.919 147.422V157.298H110.173V147.422H111.919ZM116.945 157.443C116.222 157.443 115.595 157.284 115.064 156.966C114.534 156.647 114.122 156.202 113.83 155.63C113.54 155.057 113.396 154.389 113.396 153.624C113.396 152.858 113.54 152.188 113.83 151.613C114.122 151.037 114.534 150.59 115.064 150.272C115.595 149.954 116.222 149.794 116.945 149.794C117.668 149.794 118.295 149.954 118.826 150.272C119.356 150.59 119.766 151.037 120.055 151.613C120.348 152.188 120.494 152.858 120.494 153.624C120.494 154.389 120.348 155.057 120.055 155.63C119.766 156.202 119.356 156.647 118.826 156.966C118.295 157.284 117.668 157.443 116.945 157.443ZM116.955 156.044C117.347 156.044 117.675 155.937 117.938 155.721C118.202 155.503 118.398 155.21 118.527 154.844C118.659 154.477 118.724 154.069 118.724 153.619C118.724 153.165 118.659 152.756 118.527 152.389C118.398 152.019 118.202 151.725 117.938 151.506C117.675 151.288 117.347 151.179 116.955 151.179C116.553 151.179 116.218 151.288 115.951 151.506C115.688 151.725 115.49 152.019 115.358 152.389C115.23 152.756 115.165 153.165 115.165 153.619C115.165 154.069 115.23 154.477 115.358 154.844C115.49 155.21 115.688 155.503 115.951 155.721C116.218 155.937 116.553 156.044 116.955 156.044ZM121.976 160.076V149.891H123.693V151.116H123.794C123.884 150.936 124.011 150.745 124.175 150.542C124.339 150.336 124.561 150.161 124.841 150.016C125.12 149.868 125.477 149.794 125.911 149.794C126.483 149.794 126.999 149.941 127.459 150.233C127.922 150.523 128.289 150.952 128.559 151.521C128.832 152.087 128.969 152.781 128.969 153.604C128.969 154.418 128.835 155.109 128.568 155.678C128.302 156.247 127.938 156.681 127.479 156.98C127.019 157.279 126.498 157.429 125.916 157.429C125.492 157.429 125.14 157.358 124.86 157.216C124.58 157.075 124.355 156.904 124.185 156.705C124.018 156.503 123.887 156.311 123.794 156.131H123.722V160.076H121.976ZM123.688 153.595C123.688 154.074 123.756 154.493 123.891 154.853C124.029 155.213 124.227 155.495 124.484 155.697C124.744 155.897 125.059 155.996 125.429 155.996C125.815 155.996 126.138 155.893 126.398 155.688C126.659 155.479 126.855 155.194 126.987 154.834C127.122 154.471 127.189 154.058 127.189 153.595C127.189 153.135 127.123 152.727 126.991 152.37C126.86 152.013 126.664 151.733 126.403 151.531C126.143 151.328 125.818 151.227 125.429 151.227C125.056 151.227 124.739 151.325 124.479 151.521C124.218 151.717 124.021 151.992 123.886 152.346C123.754 152.699 123.688 153.116 123.688 153.595ZM130.464 157.298V149.891H132.132V151.15H132.219C132.373 150.725 132.629 150.394 132.986 150.156C133.343 149.915 133.769 149.794 134.264 149.794C134.765 149.794 135.188 149.917 135.532 150.161C135.879 150.402 136.124 150.732 136.265 151.15H136.342C136.506 150.738 136.783 150.41 137.172 150.166C137.564 149.918 138.029 149.794 138.566 149.794C139.247 149.794 139.803 150.01 140.234 150.441C140.665 150.872 140.88 151.5 140.88 152.326V157.298H139.13V152.596C139.13 152.137 139.008 151.801 138.763 151.588C138.519 151.373 138.22 151.265 137.866 151.265C137.445 151.265 137.116 151.397 136.878 151.661C136.643 151.921 136.526 152.26 136.526 152.678V157.298H134.814V152.524C134.814 152.141 134.698 151.836 134.466 151.608C134.238 151.379 133.939 151.265 133.569 151.265C133.319 151.265 133.09 151.33 132.885 151.458C132.679 151.584 132.515 151.762 132.393 151.994C132.271 152.222 132.209 152.489 132.209 152.794V157.298H130.464ZM145.931 157.443C145.188 157.443 144.547 157.289 144.007 156.98C143.47 156.668 143.057 156.228 142.767 155.659C142.478 155.086 142.333 154.413 142.333 153.638C142.333 152.876 142.478 152.207 142.767 151.632C143.06 151.053 143.468 150.603 143.992 150.282C144.516 149.957 145.132 149.794 145.839 149.794C146.296 149.794 146.726 149.868 147.132 150.016C147.54 150.161 147.9 150.386 148.212 150.691C148.527 150.997 148.774 151.386 148.954 151.859C149.134 152.328 149.225 152.887 149.225 153.537V154.072H143.153V152.895H147.551C147.548 152.561 147.476 152.264 147.334 152.003C147.193 151.74 146.995 151.532 146.741 151.381C146.49 151.23 146.198 151.154 145.863 151.154C145.506 151.154 145.193 151.241 144.923 151.415C144.653 151.585 144.442 151.81 144.291 152.09C144.143 152.366 144.068 152.67 144.064 153.001V154.029C144.064 154.459 144.143 154.829 144.301 155.138C144.458 155.443 144.678 155.678 144.961 155.842C145.244 156.003 145.575 156.083 145.955 156.083C146.209 156.083 146.439 156.048 146.644 155.977C146.85 155.903 147.029 155.795 147.18 155.654C147.331 155.512 147.445 155.337 147.522 155.128L149.152 155.311C149.049 155.742 148.853 156.118 148.564 156.44C148.278 156.758 147.911 157.006 147.464 157.183C147.017 157.356 146.506 157.443 145.931 157.443ZM152.447 152.958V157.298H150.701V149.891H152.37V151.15H152.457C152.627 150.735 152.899 150.405 153.272 150.161C153.648 149.917 154.113 149.794 154.666 149.794C155.177 149.794 155.622 149.904 156.001 150.122C156.384 150.341 156.68 150.658 156.889 151.072C157.101 151.487 157.205 151.99 157.202 152.582V157.298H155.456V152.852C155.456 152.357 155.328 151.969 155.071 151.69C154.817 151.41 154.465 151.27 154.014 151.27C153.709 151.27 153.437 151.338 153.199 151.473C152.965 151.605 152.78 151.796 152.645 152.047C152.513 152.297 152.447 152.601 152.447 152.958ZM162.676 149.891V151.241H158.417V149.891H162.676ZM159.469 148.116H161.215V155.07C161.215 155.305 161.25 155.485 161.321 155.61C161.395 155.733 161.491 155.816 161.61 155.861C161.729 155.906 161.861 155.929 162.005 155.929C162.115 155.929 162.214 155.921 162.304 155.905C162.398 155.889 162.468 155.874 162.517 155.861L162.811 157.226C162.718 157.258 162.584 157.294 162.411 157.332C162.24 157.371 162.031 157.393 161.784 157.4C161.346 157.412 160.953 157.347 160.602 157.202C160.252 157.054 159.974 156.826 159.768 156.517C159.565 156.208 159.466 155.823 159.469 155.36V148.116ZM167.581 147.422H169.771L172.703 154.578H172.819L175.751 147.422H177.94V157.298H176.223V150.513H176.132L173.402 157.269H172.119L169.39 150.499H169.298V157.298H167.581V147.422ZM181.21 147.422L183.78 155.196H183.882L186.447 147.422H188.415L184.933 157.298H182.724L179.247 147.422H181.21ZM189.716 157.298V147.422H193.419C194.178 147.422 194.815 147.563 195.329 147.846C195.847 148.129 196.237 148.518 196.501 149.013C196.768 149.505 196.901 150.065 196.901 150.691C196.901 151.325 196.768 151.887 196.501 152.379C196.234 152.871 195.84 153.259 195.319 153.542C194.799 153.821 194.157 153.961 193.395 153.961H190.941V152.49H193.154C193.598 152.49 193.961 152.413 194.244 152.259C194.527 152.104 194.736 151.892 194.871 151.622C195.009 151.352 195.078 151.042 195.078 150.691C195.078 150.341 195.009 150.032 194.871 149.766C194.736 149.499 194.525 149.291 194.239 149.143C193.956 148.992 193.591 148.917 193.145 148.917H191.505V157.298H189.716ZM83.4886 170.891L80.8507 178.298H78.9217L76.2837 170.891H78.1452L79.8476 176.393H79.9248L81.6319 170.891H83.4886ZM87.724 178.443C86.9813 178.443 86.3399 178.289 85.7998 177.98C85.2629 177.668 84.8498 177.228 84.5604 176.659C84.2711 176.086 84.1264 175.413 84.1264 174.638C84.1264 173.876 84.2711 173.207 84.5604 172.632C84.853 172.053 85.2613 171.603 85.7853 171.282C86.3094 170.957 86.9251 170.794 87.6324 170.794C88.0889 170.794 88.5197 170.868 88.9248 171.016C89.3331 171.161 89.6932 171.386 90.005 171.691C90.3201 171.997 90.5677 172.386 90.7477 172.859C90.9278 173.328 91.0178 173.887 91.0178 174.537V175.072H84.9462V173.895H89.3444C89.3411 173.561 89.2688 173.264 89.1273 173.003C88.9859 172.74 88.7882 172.532 88.5342 172.381C88.2834 172.23 87.9908 172.154 87.6565 172.154C87.2996 172.154 86.9861 172.241 86.7161 172.415C86.446 172.585 86.2354 172.81 86.0843 173.09C85.9364 173.366 85.8609 173.67 85.8577 174.001V175.029C85.8577 175.459 85.9364 175.829 86.094 176.138C86.2515 176.443 86.4717 176.678 86.7547 176.842C87.0376 177.003 87.3687 177.083 87.7481 177.083C88.0021 177.083 88.232 177.048 88.4377 176.977C88.6435 176.903 88.8219 176.795 88.973 176.654C89.1241 176.512 89.2383 176.337 89.3154 176.128L90.9454 176.311C90.8426 176.742 90.6464 177.118 90.3571 177.44C90.071 177.758 89.7044 178.006 89.2576 178.183C88.8107 178.356 88.2995 178.443 87.724 178.443ZM92.4947 178.298V170.891H94.1874V172.126H94.2645C94.3996 171.698 94.6311 171.368 94.959 171.137C95.2901 170.902 95.6679 170.785 96.0923 170.785C96.1887 170.785 96.2964 170.79 96.4154 170.799C96.5376 170.806 96.6388 170.817 96.7192 170.833V172.439C96.6453 172.413 96.5279 172.391 96.3672 172.371C96.2096 172.349 96.0569 172.338 95.909 172.338C95.5907 172.338 95.3046 172.407 95.0506 172.545C94.7998 172.68 94.6021 172.868 94.4574 173.109C94.3128 173.35 94.2404 173.629 94.2404 173.944V178.298H92.4947ZM103.734 172.849L102.142 173.022C102.097 172.862 102.018 172.711 101.906 172.569C101.797 172.428 101.649 172.314 101.462 172.227C101.276 172.14 101.047 172.097 100.777 172.097C100.414 172.097 100.109 172.175 99.8611 172.333C99.6168 172.49 99.4962 172.695 99.4994 172.945C99.4962 173.161 99.575 173.336 99.7357 173.471C99.8997 173.606 100.17 173.717 100.546 173.804L101.809 174.074C102.51 174.225 103.031 174.464 103.372 174.792C103.716 175.12 103.89 175.549 103.893 176.08C103.89 176.546 103.753 176.958 103.483 177.315C103.216 177.668 102.845 177.945 102.369 178.144C101.893 178.343 101.346 178.443 100.729 178.443C99.8225 178.443 99.0927 178.253 98.5397 177.874C97.9867 177.491 97.6572 176.959 97.5511 176.278L99.2535 176.114C99.3306 176.448 99.4946 176.7 99.7454 176.871C99.9961 177.041 100.322 177.126 100.724 177.126C101.139 177.126 101.472 177.041 101.723 176.871C101.977 176.7 102.104 176.49 102.104 176.239C102.104 176.027 102.022 175.852 101.858 175.713C101.697 175.575 101.446 175.469 101.105 175.395L99.8418 175.13C99.1313 174.982 98.6056 174.733 98.2648 174.382C97.924 174.029 97.7553 173.582 97.7585 173.042C97.7553 172.585 97.879 172.19 98.1298 171.855C98.3838 171.518 98.7358 171.257 99.1859 171.074C99.6393 170.888 100.162 170.794 100.753 170.794C101.621 170.794 102.305 170.979 102.803 171.349C103.304 171.719 103.615 172.219 103.734 172.849ZM105.332 178.298V170.891H107.078V178.298H105.332ZM106.21 169.84C105.933 169.84 105.696 169.748 105.496 169.565C105.297 169.378 105.197 169.155 105.197 168.894C105.197 168.631 105.297 168.407 105.496 168.224C105.696 168.038 105.933 167.944 106.21 167.944C106.49 167.944 106.728 168.038 106.924 168.224C107.123 168.407 107.223 168.631 107.223 168.894C107.223 169.155 107.123 169.378 106.924 169.565C106.728 169.748 106.49 169.84 106.21 169.84ZM112.104 178.443C111.381 178.443 110.754 178.284 110.224 177.966C109.693 177.647 109.282 177.202 108.989 176.63C108.7 176.057 108.555 175.389 108.555 174.624C108.555 173.858 108.7 173.188 108.989 172.613C109.282 172.037 109.693 171.59 110.224 171.272C110.754 170.954 111.381 170.794 112.104 170.794C112.828 170.794 113.455 170.954 113.985 171.272C114.516 171.59 114.925 172.037 115.215 172.613C115.507 173.188 115.654 173.858 115.654 174.624C115.654 175.389 115.507 176.057 115.215 176.63C114.925 177.202 114.516 177.647 113.985 177.966C113.455 178.284 112.828 178.443 112.104 178.443ZM112.114 177.044C112.506 177.044 112.834 176.937 113.098 176.721C113.361 176.503 113.557 176.21 113.686 175.844C113.818 175.477 113.884 175.069 113.884 174.619C113.884 174.165 113.818 173.756 113.686 173.389C113.557 173.019 113.361 172.725 113.098 172.506C112.834 172.288 112.506 172.179 112.114 172.179C111.712 172.179 111.378 172.288 111.111 172.506C110.847 172.725 110.649 173.019 110.518 173.389C110.389 173.756 110.325 174.165 110.325 174.619C110.325 175.069 110.389 175.477 110.518 175.844C110.649 176.21 110.847 176.503 111.111 176.721C111.378 176.937 111.712 177.044 112.114 177.044ZM118.881 173.958V178.298H117.135V170.891H118.804V172.15H118.891C119.061 171.735 119.333 171.405 119.706 171.161C120.082 170.917 120.547 170.794 121.1 170.794C121.611 170.794 122.056 170.904 122.435 171.122C122.818 171.341 123.114 171.658 123.323 172.072C123.535 172.487 123.639 172.99 123.636 173.582V178.298H121.89V173.852C121.89 173.357 121.762 172.969 121.505 172.69C121.251 172.41 120.899 172.27 120.448 172.27C120.143 172.27 119.871 172.338 119.633 172.473C119.399 172.605 119.214 172.796 119.079 173.047C118.947 173.297 118.881 173.601 118.881 173.958Z" fill="white"/>
</g>
<g clip-path="url(#clip2_320_207)">
<rect x="194" y="210.323" width="106" height="75" rx="6.85185" fill="#9878F6"/>
<line x1="195.3" y1="334.203" x2="409.785" y2="227.122" stroke="white" stroke-opacity="0.11" stroke-width="13.7037"/>
<line x1="207.541" y1="358.725" x2="422.027" y2="251.643" stroke="white" stroke-opacity="0.11" stroke-width="13.7037"/>
<line x1="219.783" y1="383.246" x2="434.269" y2="276.165" stroke="white" stroke-opacity="0.11" stroke-width="13.7037"/>
<line x1="182.119" y1="309.389" x2="396.604" y2="202.308" stroke="white" stroke-opacity="0.11" stroke-width="13.7037"/>
<line x1="120.365" y1="279.755" x2="334.85" y2="172.674" stroke="white" stroke-opacity="0.11" stroke-width="13.7037"/>
<line x1="120.365" y1="248.922" x2="334.85" y2="141.84" stroke="white" stroke-opacity="0.11" stroke-width="13.7037"/>
<line x1="169.877" y1="284.868" x2="384.362" y2="177.787" stroke="white" stroke-opacity="0.11" stroke-width="13.7037"/>
<path d="M212.113 242.453V232.486H215.928C216.648 232.486 217.247 232.6 217.724 232.827C218.204 233.051 218.562 233.357 218.799 233.747C219.039 234.136 219.159 234.577 219.159 235.07C219.159 235.476 219.082 235.823 218.926 236.112C218.77 236.397 218.561 236.629 218.298 236.808C218.035 236.986 217.742 237.114 217.417 237.192V237.289C217.771 237.309 218.11 237.418 218.434 237.615C218.762 237.81 219.03 238.086 219.237 238.443C219.445 238.8 219.549 239.231 219.549 239.737C219.549 240.253 219.424 240.717 219.174 241.129C218.924 241.538 218.548 241.861 218.045 242.097C217.542 242.334 216.91 242.453 216.147 242.453H212.113ZM213.918 240.944H215.86C216.515 240.944 216.987 240.819 217.276 240.569C217.568 240.316 217.714 239.992 217.714 239.596C217.714 239.301 217.641 239.035 217.495 238.798C217.349 238.558 217.141 238.37 216.872 238.233C216.603 238.094 216.282 238.024 215.909 238.024H213.918V240.944ZM213.918 236.725H215.704C216.016 236.725 216.296 236.668 216.546 236.555C216.796 236.438 216.992 236.274 217.135 236.063C217.281 235.849 217.354 235.596 217.354 235.304C217.354 234.918 217.218 234.6 216.945 234.35C216.676 234.1 216.275 233.975 215.743 233.975H213.918V236.725ZM224.351 242.599C223.601 242.599 222.954 242.443 222.409 242.131C221.867 241.817 221.45 241.372 221.158 240.798C220.866 240.221 220.72 239.541 220.72 238.759C220.72 237.99 220.866 237.315 221.158 236.735C221.453 236.151 221.866 235.696 222.394 235.372C222.923 235.044 223.544 234.881 224.258 234.881C224.719 234.881 225.154 234.955 225.562 235.104C225.974 235.25 226.338 235.478 226.652 235.786C226.97 236.094 227.22 236.486 227.402 236.963C227.583 237.437 227.674 238.002 227.674 238.657V239.197H221.548V238.01H225.986C225.982 237.672 225.909 237.372 225.767 237.109C225.624 236.843 225.424 236.634 225.168 236.482C224.915 236.329 224.62 236.253 224.282 236.253C223.922 236.253 223.606 236.34 223.334 236.516C223.061 236.688 222.849 236.915 222.696 237.197C222.547 237.476 222.471 237.783 222.467 238.117V239.153C222.467 239.588 222.547 239.961 222.706 240.273C222.865 240.581 223.087 240.818 223.372 240.983C223.658 241.145 223.992 241.226 224.375 241.226C224.631 241.226 224.863 241.191 225.071 241.119C225.278 241.045 225.459 240.936 225.611 240.793C225.763 240.65 225.879 240.474 225.957 240.263L227.601 240.448C227.498 240.882 227.3 241.262 227.008 241.586C226.719 241.908 226.349 242.157 225.898 242.336C225.447 242.511 224.931 242.599 224.351 242.599ZM232.897 234.978V236.34H228.6V234.978H232.897ZM229.661 233.187H231.423V240.204C231.423 240.441 231.458 240.623 231.53 240.749C231.604 240.873 231.702 240.957 231.822 241.002C231.942 241.048 232.075 241.071 232.221 241.071C232.331 241.071 232.432 241.062 232.522 241.046C232.617 241.03 232.688 241.015 232.737 241.002L233.033 242.38C232.939 242.412 232.805 242.448 232.63 242.487C232.458 242.526 232.247 242.548 231.997 242.555C231.556 242.568 231.158 242.501 230.805 242.355C230.451 242.206 230.17 241.976 229.963 241.664C229.758 241.353 229.658 240.964 229.661 240.496V233.187ZM236.521 242.603C236.048 242.603 235.621 242.519 235.242 242.35C234.865 242.178 234.567 241.925 234.346 241.591C234.129 241.257 234.02 240.845 234.02 240.355C234.02 239.933 234.098 239.585 234.254 239.309C234.409 239.033 234.622 238.813 234.891 238.647C235.16 238.482 235.464 238.357 235.801 238.272C236.142 238.185 236.494 238.122 236.857 238.083C237.295 238.037 237.65 237.997 237.923 237.961C238.195 237.922 238.393 237.864 238.517 237.786C238.643 237.705 238.706 237.58 238.706 237.411V237.382C238.706 237.015 238.598 236.731 238.38 236.53C238.163 236.329 237.85 236.229 237.441 236.229C237.01 236.229 236.667 236.323 236.414 236.511C236.165 236.699 235.996 236.921 235.908 237.177L234.263 236.944C234.393 236.49 234.607 236.11 234.906 235.805C235.204 235.497 235.569 235.267 236.001 235.114C236.432 234.958 236.909 234.881 237.431 234.881C237.792 234.881 238.15 234.923 238.507 235.007C238.864 235.091 239.19 235.231 239.485 235.426C239.78 235.617 240.017 235.878 240.196 236.209C240.377 236.54 240.468 236.954 240.468 237.45V242.453H238.775V241.426H238.716C238.609 241.633 238.458 241.828 238.264 242.01C238.072 242.188 237.83 242.333 237.538 242.443C237.25 242.55 236.911 242.603 236.521 242.603ZM236.979 241.309C237.332 241.309 237.639 241.239 237.899 241.1C238.158 240.957 238.358 240.769 238.497 240.535C238.64 240.302 238.711 240.047 238.711 239.771V238.89C238.656 238.936 238.562 238.978 238.429 239.017C238.299 239.056 238.153 239.09 237.991 239.119C237.829 239.148 237.668 239.174 237.509 239.197C237.35 239.22 237.212 239.239 237.096 239.255C236.833 239.291 236.598 239.35 236.39 239.431C236.182 239.512 236.019 239.625 235.899 239.771C235.778 239.914 235.718 240.099 235.718 240.326C235.718 240.65 235.837 240.895 236.074 241.061C236.311 241.226 236.612 241.309 236.979 241.309ZM249.371 234.978V236.34H245.074V234.978H249.371ZM246.135 233.187H247.897V240.204C247.897 240.441 247.932 240.623 248.004 240.749C248.078 240.873 248.176 240.957 248.296 241.002C248.416 241.048 248.549 241.071 248.695 241.071C248.805 241.071 248.906 241.062 248.996 241.046C249.09 241.03 249.162 241.015 249.21 241.002L249.507 242.38C249.413 242.412 249.279 242.448 249.103 242.487C248.931 242.526 248.721 242.548 248.471 242.555C248.03 242.568 247.632 242.501 247.279 242.355C246.925 242.206 246.644 241.976 246.437 241.664C246.232 241.353 246.132 240.964 246.135 240.496V233.187ZM254.073 242.599C253.324 242.599 252.677 242.443 252.132 242.131C251.59 241.817 251.173 241.372 250.881 240.798C250.589 240.221 250.443 239.541 250.443 238.759C250.443 237.99 250.589 237.315 250.881 236.735C251.176 236.151 251.588 235.696 252.117 235.372C252.646 235.044 253.267 234.881 253.981 234.881C254.441 234.881 254.876 234.955 255.285 235.104C255.697 235.25 256.06 235.478 256.375 235.786C256.693 236.094 256.943 236.486 257.124 236.963C257.306 237.437 257.397 238.002 257.397 238.657V239.197H251.27V238.01H255.708C255.705 237.672 255.632 237.372 255.489 237.109C255.347 236.843 255.147 236.634 254.891 236.482C254.638 236.329 254.342 236.253 254.005 236.253C253.645 236.253 253.329 236.34 253.056 236.516C252.784 236.688 252.571 236.915 252.419 237.197C252.269 237.476 252.193 237.783 252.19 238.117V239.153C252.19 239.588 252.269 239.961 252.428 240.273C252.587 240.581 252.81 240.818 253.095 240.983C253.381 241.145 253.715 241.226 254.098 241.226C254.354 241.226 254.586 241.191 254.793 241.119C255.001 241.045 255.181 240.936 255.334 240.793C255.486 240.65 255.601 240.474 255.679 240.263L257.324 240.448C257.22 240.882 257.022 241.262 256.73 241.586C256.441 241.908 256.072 242.157 255.621 242.336C255.17 242.511 254.654 242.599 254.073 242.599ZM264.795 236.954L263.189 237.129C263.144 236.967 263.064 236.814 262.951 236.671C262.84 236.529 262.691 236.413 262.503 236.326C262.315 236.238 262.084 236.194 261.812 236.194C261.445 236.194 261.137 236.274 260.887 236.433C260.641 236.592 260.519 236.798 260.522 237.051C260.519 237.268 260.599 237.445 260.761 237.581C260.926 237.718 261.199 237.83 261.578 237.917L262.853 238.19C263.561 238.342 264.086 238.584 264.43 238.915C264.777 239.246 264.952 239.679 264.956 240.214C264.952 240.685 264.814 241.1 264.542 241.46C264.273 241.817 263.898 242.096 263.418 242.297C262.938 242.498 262.386 242.599 261.763 242.599C260.848 242.599 260.112 242.407 259.554 242.024C258.996 241.638 258.663 241.101 258.556 240.414L260.274 240.248C260.352 240.586 260.517 240.84 260.771 241.012C261.024 241.184 261.353 241.27 261.758 241.27C262.177 241.27 262.513 241.184 262.766 241.012C263.022 240.84 263.15 240.628 263.15 240.375C263.15 240.161 263.067 239.984 262.902 239.844C262.74 239.705 262.487 239.598 262.143 239.523L260.868 239.255C260.151 239.106 259.62 238.855 259.277 238.501C258.933 238.144 258.762 237.693 258.766 237.148C258.762 236.688 258.887 236.289 259.14 235.951C259.397 235.611 259.752 235.348 260.206 235.163C260.663 234.975 261.191 234.881 261.788 234.881C262.664 234.881 263.353 235.067 263.856 235.44C264.362 235.813 264.675 236.318 264.795 236.954ZM270.141 234.978V236.34H265.844V234.978H270.141ZM266.905 233.187H268.666V240.204C268.666 240.441 268.702 240.623 268.773 240.749C268.848 240.873 268.945 240.957 269.065 241.002C269.185 241.048 269.318 241.071 269.464 241.071C269.575 241.071 269.675 241.062 269.766 241.046C269.86 241.03 269.931 241.015 269.98 241.002L270.277 242.38C270.183 242.412 270.048 242.448 269.873 242.487C269.701 242.526 269.49 242.548 269.24 242.555C268.799 242.568 268.402 242.501 268.048 242.355C267.695 242.206 267.414 241.976 267.206 241.664C267.002 241.353 266.901 240.964 266.905 240.496V233.187ZM271.614 242.453V234.978H273.376V242.453H271.614ZM272.5 233.917C272.221 233.917 271.981 233.825 271.779 233.64C271.578 233.451 271.478 233.226 271.478 232.963C271.478 232.697 271.578 232.472 271.779 232.287C271.981 232.099 272.221 232.005 272.5 232.005C272.782 232.005 273.022 232.099 273.22 232.287C273.421 232.472 273.522 232.697 273.522 232.963C273.522 233.226 273.421 233.451 273.22 233.64C273.022 233.825 272.782 233.917 272.5 233.917ZM276.949 238.073V242.453H275.187V234.978H276.871V236.248H276.959C277.13 235.83 277.405 235.497 277.781 235.25C278.161 235.004 278.629 234.881 279.187 234.881C279.703 234.881 280.152 234.991 280.535 235.211C280.921 235.432 281.22 235.752 281.431 236.17C281.645 236.589 281.75 237.096 281.747 237.693V242.453H279.985V237.966C279.985 237.466 279.856 237.075 279.596 236.793C279.34 236.511 278.985 236.37 278.53 236.37C278.222 236.37 277.948 236.438 277.708 236.574C277.471 236.707 277.285 236.9 277.148 237.153C277.015 237.406 276.949 237.713 276.949 238.073ZM286.789 245.411C286.156 245.411 285.613 245.325 285.158 245.153C284.704 244.985 284.339 244.758 284.063 244.472C283.788 244.187 283.596 243.87 283.489 243.523L285.076 243.139C285.147 243.285 285.251 243.429 285.387 243.572C285.523 243.718 285.707 243.838 285.937 243.932C286.171 244.029 286.464 244.078 286.818 244.078C287.317 244.078 287.731 243.956 288.059 243.713C288.386 243.473 288.55 243.077 288.55 242.526V241.11H288.463C288.372 241.291 288.239 241.478 288.064 241.669C287.892 241.861 287.663 242.021 287.377 242.151C287.095 242.281 286.74 242.346 286.312 242.346C285.737 242.346 285.217 242.211 284.75 241.942C284.286 241.669 283.916 241.264 283.64 240.725C283.368 240.183 283.231 239.505 283.231 238.691C283.231 237.87 283.368 237.177 283.64 236.613C283.916 236.045 284.287 235.615 284.754 235.323C285.222 235.028 285.742 234.881 286.317 234.881C286.755 234.881 287.115 234.955 287.397 235.104C287.682 235.25 287.909 235.427 288.078 235.635C288.247 235.839 288.375 236.032 288.463 236.214H288.56V234.978H290.297V242.574C290.297 243.213 290.145 243.742 289.84 244.161C289.535 244.579 289.118 244.892 288.589 245.1C288.06 245.308 287.46 245.411 286.789 245.411ZM286.803 240.964C287.176 240.964 287.494 240.873 287.757 240.691C288.02 240.509 288.219 240.248 288.356 239.908C288.492 239.567 288.56 239.158 288.56 238.681C288.56 238.211 288.492 237.799 288.356 237.445C288.223 237.092 288.025 236.817 287.762 236.623C287.502 236.425 287.183 236.326 286.803 236.326C286.411 236.326 286.083 236.428 285.82 236.632C285.557 236.837 285.359 237.117 285.226 237.474C285.093 237.828 285.027 238.23 285.027 238.681C285.027 239.139 285.093 239.539 285.226 239.883C285.363 240.224 285.562 240.49 285.825 240.681C286.091 240.869 286.417 240.964 286.803 240.964Z" fill="white"/>
</g>
<g clip-path="url(#clip3_320_207)">
<rect x="194" y="298.323" width="136" height="75" rx="6.85185" fill="#03DAE4"/>
<line x1="195.299" y1="422.204" x2="409.784" y2="315.123" stroke="white" stroke-opacity="0.11" stroke-width="13.7037"/>
<line x1="207.541" y1="446.726" x2="422.027" y2="339.644" stroke="white" stroke-opacity="0.11" stroke-width="13.7037"/>
<line x1="219.784" y1="471.247" x2="434.269" y2="364.165" stroke="white" stroke-opacity="0.11" stroke-width="13.7037"/>
<line x1="182.119" y1="397.39" x2="396.604" y2="290.309" stroke="white" stroke-opacity="0.11" stroke-width="13.7037"/>
<line x1="120.366" y1="367.756" x2="334.851" y2="260.675" stroke="white" stroke-opacity="0.11" stroke-width="13.7037"/>
<line x1="120.366" y1="336.923" x2="334.851" y2="229.841" stroke="white" stroke-opacity="0.11" stroke-width="13.7037"/>
<line x1="169.877" y1="372.869" x2="384.362" y2="265.787" stroke="white" stroke-opacity="0.11" stroke-width="13.7037"/>
<path d="M215.491 330.453H212.113V320.487H215.559C216.548 320.487 217.398 320.686 218.109 321.085C218.822 321.481 219.371 322.05 219.754 322.793C220.136 323.536 220.328 324.425 220.328 325.46C220.328 326.498 220.135 327.39 219.749 328.136C219.366 328.883 218.813 329.455 218.089 329.854C217.369 330.253 216.503 330.453 215.491 330.453ZM213.919 328.891H215.403C216.097 328.891 216.676 328.764 217.14 328.511C217.604 328.255 217.953 327.874 218.187 327.368C218.42 326.858 218.537 326.222 218.537 325.46C218.537 324.698 218.42 324.065 218.187 323.562C217.953 323.056 217.608 322.678 217.15 322.428C216.696 322.175 216.131 322.049 215.457 322.049H213.919V328.891ZM225.274 330.599C224.525 330.599 223.878 330.443 223.333 330.132C222.791 329.817 222.374 329.373 222.082 328.798C221.79 328.221 221.644 327.541 221.644 326.759C221.644 325.99 221.79 325.316 222.082 324.735C222.377 324.151 222.789 323.697 223.318 323.372C223.847 323.045 224.468 322.881 225.182 322.881C225.643 322.881 226.077 322.955 226.486 323.105C226.898 323.251 227.262 323.478 227.576 323.786C227.894 324.094 228.144 324.487 228.326 324.964C228.507 325.437 228.598 326.002 228.598 326.657V327.197H222.471V326.01H226.91C226.906 325.672 226.833 325.372 226.691 325.11C226.548 324.844 226.348 324.634 226.092 324.482C225.839 324.329 225.544 324.253 225.206 324.253C224.846 324.253 224.53 324.341 224.257 324.516C223.985 324.688 223.772 324.915 223.62 325.197C223.471 325.476 223.394 325.783 223.391 326.117V327.153C223.391 327.588 223.471 327.961 223.63 328.273C223.789 328.581 224.011 328.818 224.296 328.983C224.582 329.145 224.916 329.227 225.299 329.227C225.555 329.227 225.787 329.191 225.995 329.119C226.202 329.045 226.382 328.936 226.535 328.793C226.687 328.651 226.803 328.474 226.88 328.263L228.525 328.448C228.421 328.883 228.224 329.262 227.932 329.587C227.643 329.908 227.273 330.158 226.822 330.336C226.371 330.511 225.855 330.599 225.274 330.599ZM236.551 322.978L233.889 330.453H231.943L229.281 322.978H231.159L232.877 328.531H232.955L234.678 322.978H236.551ZM240.825 330.599C240.076 330.599 239.428 330.443 238.883 330.132C238.342 329.817 237.925 329.373 237.633 328.798C237.341 328.221 237.195 327.541 237.195 326.759C237.195 325.99 237.341 325.316 237.633 324.735C237.928 324.151 238.34 323.697 238.869 323.372C239.398 323.045 240.019 322.881 240.733 322.881C241.193 322.881 241.628 322.955 242.037 323.105C242.449 323.251 242.812 323.478 243.127 323.786C243.445 324.094 243.695 324.487 243.876 324.964C244.058 325.437 244.149 326.002 244.149 326.657V327.197H238.022V326.01H242.46C242.457 325.672 242.384 325.372 242.241 325.11C242.098 324.844 241.899 324.634 241.643 324.482C241.389 324.329 241.094 324.253 240.757 324.253C240.397 324.253 240.08 324.341 239.808 324.516C239.535 324.688 239.323 324.915 239.17 325.197C239.021 325.476 238.945 325.783 238.942 326.117V327.153C238.942 327.588 239.021 327.961 239.18 328.273C239.339 328.581 239.561 328.818 239.847 328.983C240.132 329.145 240.466 329.227 240.849 329.227C241.106 329.227 241.338 329.191 241.545 329.119C241.753 329.045 241.933 328.936 242.085 328.793C242.238 328.651 242.353 328.474 242.431 328.263L244.076 328.448C243.972 328.883 243.774 329.262 243.482 329.587C243.193 329.908 242.823 330.158 242.372 330.336C241.922 330.511 241.406 330.599 240.825 330.599ZM247.401 320.487V330.453H245.639V320.487H247.401ZM252.473 330.599C251.743 330.599 251.11 330.438 250.575 330.117C250.039 329.796 249.624 329.347 249.329 328.769C249.037 328.192 248.891 327.517 248.891 326.745C248.891 325.973 249.037 325.296 249.329 324.715C249.624 324.135 250.039 323.684 250.575 323.363C251.11 323.041 251.743 322.881 252.473 322.881C253.203 322.881 253.835 323.041 254.371 323.363C254.906 323.684 255.319 324.135 255.611 324.715C255.907 325.296 256.054 325.973 256.054 326.745C256.054 327.517 255.907 328.192 255.611 328.769C255.319 329.347 254.906 329.796 254.371 330.117C253.835 330.438 253.203 330.599 252.473 330.599ZM252.482 329.188C252.878 329.188 253.209 329.079 253.475 328.862C253.741 328.641 253.939 328.346 254.069 327.976C254.202 327.606 254.268 327.194 254.268 326.74C254.268 326.282 254.202 325.869 254.069 325.499C253.939 325.126 253.741 324.829 253.475 324.608C253.209 324.388 252.878 324.277 252.482 324.277C252.077 324.277 251.739 324.388 251.47 324.608C251.204 324.829 251.005 325.126 250.872 325.499C250.742 325.869 250.677 326.282 250.677 326.74C250.677 327.194 250.742 327.606 250.872 327.976C251.005 328.346 251.204 328.641 251.47 328.862C251.739 329.079 252.077 329.188 252.482 329.188ZM257.549 333.256V322.978H259.282V324.214H259.384C259.475 324.033 259.603 323.839 259.769 323.635C259.934 323.427 260.158 323.251 260.44 323.105C260.722 322.955 261.082 322.881 261.52 322.881C262.098 322.881 262.619 323.028 263.083 323.324C263.55 323.616 263.92 324.049 264.192 324.623C264.468 325.194 264.606 325.895 264.606 326.725C264.606 327.546 264.471 328.244 264.202 328.818C263.933 329.392 263.566 329.83 263.102 330.132C262.638 330.433 262.113 330.584 261.525 330.584C261.097 330.584 260.742 330.513 260.46 330.37C260.177 330.227 259.95 330.055 259.778 329.854C259.61 329.65 259.478 329.457 259.384 329.275H259.311V333.256H257.549ZM259.277 326.716C259.277 327.199 259.345 327.622 259.481 327.986C259.621 328.349 259.82 328.633 260.08 328.837C260.343 329.038 260.661 329.139 261.034 329.139C261.423 329.139 261.749 329.035 262.012 328.828C262.275 328.617 262.473 328.33 262.606 327.966C262.742 327.6 262.81 327.183 262.81 326.716C262.81 326.252 262.744 325.84 262.611 325.479C262.477 325.119 262.28 324.837 262.017 324.633C261.754 324.428 261.426 324.326 261.034 324.326C260.657 324.326 260.338 324.425 260.075 324.623C259.812 324.821 259.613 325.098 259.477 325.455C259.344 325.812 259.277 326.232 259.277 326.716ZM266.114 330.453V322.978H267.798V324.248H267.886C268.041 323.82 268.299 323.486 268.659 323.246C269.02 323.002 269.449 322.881 269.949 322.881C270.455 322.881 270.882 323.004 271.229 323.251C271.579 323.494 271.826 323.827 271.969 324.248H272.046C272.212 323.833 272.491 323.502 272.883 323.256C273.279 323.006 273.748 322.881 274.29 322.881C274.978 322.881 275.539 323.098 275.974 323.533C276.408 323.968 276.626 324.602 276.626 325.436V330.453H274.859V325.708C274.859 325.244 274.736 324.905 274.489 324.691C274.243 324.474 273.941 324.365 273.584 324.365C273.159 324.365 272.827 324.498 272.587 324.764C272.35 325.027 272.231 325.369 272.231 325.791V330.453H270.504V325.635C270.504 325.249 270.387 324.941 270.153 324.711C269.923 324.48 269.621 324.365 269.248 324.365C268.995 324.365 268.765 324.43 268.557 324.56C268.35 324.686 268.184 324.866 268.061 325.1C267.938 325.33 267.876 325.599 267.876 325.908V330.453H266.114ZM281.722 330.599C280.973 330.599 280.325 330.443 279.78 330.132C279.238 329.817 278.822 329.373 278.53 328.798C278.238 328.221 278.092 327.541 278.092 326.759C278.092 325.99 278.238 325.316 278.53 324.735C278.825 324.151 279.237 323.697 279.766 323.372C280.294 323.045 280.916 322.881 281.63 322.881C282.09 322.881 282.525 322.955 282.934 323.105C283.346 323.251 283.709 323.478 284.024 323.786C284.342 324.094 284.592 324.487 284.773 324.964C284.955 325.437 285.046 326.002 285.046 326.657V327.197H278.919V326.01H283.357C283.354 325.672 283.281 325.372 283.138 325.11C282.995 324.844 282.796 324.634 282.54 324.482C282.286 324.329 281.991 324.253 281.654 324.253C281.294 324.253 280.977 324.341 280.705 324.516C280.432 324.688 280.22 324.915 280.067 325.197C279.918 325.476 279.842 325.783 279.839 326.117V327.153C279.839 327.588 279.918 327.961 280.077 328.273C280.236 328.581 280.458 328.818 280.744 328.983C281.029 329.145 281.363 329.227 281.746 329.227C282.003 329.227 282.235 329.191 282.442 329.119C282.65 329.045 282.83 328.936 282.982 328.793C283.135 328.651 283.25 328.474 283.328 328.263L284.973 328.448C284.869 328.883 284.671 329.262 284.379 329.587C284.09 329.908 283.72 330.158 283.269 330.336C282.819 330.511 282.303 330.599 281.722 330.599ZM288.298 326.073V330.453H286.536V322.978H288.22V324.248H288.307C288.479 323.83 288.753 323.497 289.13 323.251C289.509 323.004 289.978 322.881 290.536 322.881C291.052 322.881 291.501 322.991 291.884 323.212C292.27 323.432 292.569 323.752 292.78 324.17C292.994 324.589 293.099 325.097 293.096 325.694V330.453H291.334V325.966C291.334 325.466 291.205 325.076 290.945 324.793C290.689 324.511 290.333 324.37 289.879 324.37C289.571 324.37 289.297 324.438 289.057 324.574C288.82 324.707 288.633 324.9 288.497 325.153C288.364 325.406 288.298 325.713 288.298 326.073ZM298.619 322.978V324.341H294.322V322.978H298.619ZM295.383 321.187H297.145V328.205C297.145 328.441 297.18 328.623 297.252 328.75C297.326 328.873 297.424 328.957 297.544 329.003C297.664 329.048 297.797 329.071 297.943 329.071C298.053 329.071 298.154 329.063 298.245 329.046C298.339 329.03 298.41 329.016 298.459 329.003L298.755 330.38C298.661 330.412 298.527 330.448 298.352 330.487C298.18 330.526 297.969 330.549 297.719 330.555C297.278 330.568 296.88 330.502 296.527 330.356C296.173 330.206 295.892 329.976 295.685 329.665C295.48 329.353 295.38 328.964 295.383 328.497V321.187ZM303.472 330.453V329.149L306.932 325.757C307.263 325.423 307.539 325.126 307.759 324.866C307.98 324.607 308.146 324.355 308.256 324.112C308.366 323.869 308.421 323.609 308.421 323.333C308.421 323.019 308.35 322.749 308.207 322.526C308.064 322.298 307.868 322.123 307.618 322C307.369 321.877 307.085 321.815 306.767 321.815C306.439 321.815 306.152 321.883 305.905 322.019C305.659 322.152 305.467 322.342 305.331 322.589C305.198 322.835 305.132 323.129 305.132 323.47H303.414C303.414 322.837 303.558 322.287 303.847 321.82C304.136 321.353 304.533 320.991 305.039 320.735C305.549 320.478 306.132 320.35 306.791 320.35C307.459 320.35 308.047 320.475 308.553 320.725C309.059 320.975 309.451 321.317 309.73 321.752C310.013 322.187 310.154 322.683 310.154 323.241C310.154 323.614 310.082 323.981 309.94 324.341C309.797 324.701 309.545 325.1 309.185 325.538C308.828 325.976 308.327 326.506 307.682 327.129L305.964 328.876V328.944H310.305V330.453H303.472ZM313.088 330.56C312.793 330.56 312.54 330.456 312.329 330.248C312.118 330.041 312.014 329.788 312.018 329.489C312.014 329.197 312.118 328.948 312.329 328.74C312.54 328.532 312.793 328.428 313.088 328.428C313.374 328.428 313.622 328.532 313.833 328.74C314.047 328.948 314.156 329.197 314.159 329.489C314.156 329.687 314.104 329.867 314.003 330.03C313.906 330.192 313.776 330.321 313.614 330.419C313.455 330.513 313.28 330.56 313.088 330.56ZM319.254 330.643C318.453 330.643 317.765 330.44 317.191 330.034C316.62 329.626 316.18 329.037 315.872 328.268C315.567 327.496 315.414 326.566 315.414 325.479C315.418 324.393 315.572 323.468 315.877 322.706C316.185 321.94 316.624 321.356 317.195 320.954C317.77 320.551 318.456 320.35 319.254 320.35C320.052 320.35 320.738 320.551 321.312 320.954C321.887 321.356 322.326 321.94 322.631 322.706C322.939 323.471 323.093 324.396 323.093 325.479C323.093 326.57 322.939 327.501 322.631 328.273C322.326 329.042 321.887 329.629 321.312 330.034C320.741 330.44 320.055 330.643 319.254 330.643ZM319.254 329.119C319.877 329.119 320.368 328.813 320.728 328.2C321.092 327.583 321.273 326.677 321.273 325.479C321.273 324.688 321.191 324.023 321.025 323.484C320.86 322.946 320.626 322.54 320.324 322.268C320.023 321.992 319.666 321.854 319.254 321.854C318.634 321.854 318.144 322.162 317.784 322.779C317.424 323.392 317.242 324.292 317.239 325.479C317.236 326.274 317.315 326.943 317.478 327.484C317.643 328.026 317.877 328.435 318.178 328.711C318.48 328.983 318.839 329.119 319.254 329.119ZM214.186 351.604C213.713 351.604 213.286 351.519 212.907 351.351C212.53 351.179 212.232 350.926 212.011 350.592C211.794 350.257 211.685 349.845 211.685 349.355C211.685 348.934 211.763 348.585 211.919 348.309C212.074 348.033 212.287 347.813 212.556 347.647C212.825 347.482 213.129 347.357 213.466 347.273C213.807 347.185 214.159 347.122 214.522 347.083C214.96 347.037 215.315 346.997 215.588 346.961C215.86 346.922 216.058 346.864 216.182 346.786C216.308 346.705 216.371 346.58 216.371 346.411V346.382C216.371 346.016 216.263 345.732 216.045 345.531C215.828 345.329 215.515 345.229 215.106 345.229C214.675 345.229 214.332 345.323 214.079 345.511C213.83 345.699 213.661 345.921 213.573 346.178L211.928 345.944C212.058 345.49 212.272 345.11 212.571 344.805C212.869 344.497 213.234 344.267 213.666 344.114C214.097 343.959 214.574 343.881 215.096 343.881C215.457 343.881 215.815 343.923 216.172 344.007C216.529 344.092 216.855 344.231 217.15 344.426C217.445 344.617 217.682 344.878 217.861 345.209C218.042 345.54 218.133 345.954 218.133 346.45V351.453H216.44V350.426H216.381C216.274 350.634 216.123 350.828 215.929 351.01C215.737 351.188 215.496 351.333 215.204 351.443C214.915 351.55 214.576 351.604 214.186 351.604ZM214.644 350.309C214.998 350.309 215.304 350.24 215.564 350.1C215.823 349.957 216.023 349.769 216.162 349.536C216.305 349.302 216.376 349.047 216.376 348.772V347.891C216.321 347.936 216.227 347.978 216.094 348.017C215.964 348.056 215.818 348.09 215.656 348.119C215.494 348.149 215.333 348.175 215.174 348.197C215.015 348.22 214.877 348.239 214.761 348.256C214.498 348.291 214.263 348.35 214.055 348.431C213.847 348.512 213.684 348.626 213.564 348.772C213.444 348.914 213.384 349.099 213.384 349.326C213.384 349.651 213.502 349.896 213.739 350.061C213.976 350.227 214.277 350.309 214.644 350.309ZM219.904 354.256V343.978H221.637V345.214H221.739C221.83 345.033 221.958 344.839 222.124 344.635C222.289 344.427 222.513 344.251 222.795 344.105C223.077 343.955 223.437 343.881 223.875 343.881C224.453 343.881 224.974 344.028 225.438 344.324C225.905 344.616 226.275 345.049 226.547 345.623C226.823 346.194 226.961 346.895 226.961 347.725C226.961 348.546 226.826 349.244 226.557 349.818C226.287 350.392 225.921 350.83 225.457 351.132C224.993 351.433 224.467 351.584 223.88 351.584C223.452 351.584 223.097 351.513 222.815 351.37C222.532 351.227 222.305 351.055 222.133 350.854C221.965 350.65 221.833 350.457 221.739 350.275H221.666V354.256H219.904ZM221.632 347.716C221.632 348.199 221.7 348.622 221.836 348.986C221.976 349.349 222.175 349.633 222.435 349.837C222.698 350.038 223.016 350.139 223.389 350.139C223.778 350.139 224.104 350.035 224.367 349.828C224.63 349.617 224.828 349.33 224.961 348.966C225.097 348.6 225.165 348.183 225.165 347.716C225.165 347.252 225.098 346.84 224.965 346.479C224.832 346.119 224.635 345.837 224.372 345.633C224.109 345.428 223.781 345.326 223.389 345.326C223.012 345.326 222.693 345.425 222.43 345.623C222.167 345.821 221.968 346.098 221.832 346.455C221.699 346.812 221.632 347.232 221.632 347.716ZM228.469 354.256V343.978H230.202V345.214H230.304C230.395 345.033 230.523 344.839 230.688 344.635C230.854 344.427 231.078 344.251 231.36 344.105C231.642 343.955 232.002 343.881 232.44 343.881C233.018 343.881 233.538 344.028 234.002 344.324C234.469 344.616 234.839 345.049 235.112 345.623C235.388 346.194 235.525 346.895 235.525 347.725C235.525 348.546 235.391 349.244 235.122 349.818C234.852 350.392 234.486 350.83 234.022 351.132C233.558 351.433 233.032 351.584 232.445 351.584C232.017 351.584 231.662 351.513 231.379 351.37C231.097 351.227 230.87 351.055 230.698 350.854C230.529 350.65 230.398 350.457 230.304 350.275H230.231V354.256H228.469ZM230.197 347.716C230.197 348.199 230.265 348.622 230.401 348.986C230.541 349.349 230.74 349.633 231 349.837C231.263 350.038 231.58 350.139 231.954 350.139C232.343 350.139 232.669 350.035 232.932 349.828C233.195 349.617 233.392 349.33 233.525 348.966C233.662 348.6 233.73 348.183 233.73 347.716C233.73 347.252 233.663 346.84 233.53 346.479C233.397 346.119 233.199 345.837 232.937 345.633C232.674 345.428 232.346 345.326 231.954 345.326C231.577 345.326 231.258 345.425 230.995 345.623C230.732 345.821 230.533 346.098 230.396 346.455C230.263 346.812 230.197 347.232 230.197 347.716Z" fill="white"/>
</g>
<line x1="153.337" y1="24.6772" x2="153.337" y2="485.181" stroke="url(#paint0_linear_320_207)" stroke-width="3"/>
<path d="M152.308 11.2242C152.689 11.5703 153.271 11.5703 153.652 11.2242L160.572 4.94125C161.249 4.32663 160.815 3.20088 159.9 3.20088H146.06C145.146 3.20088 144.711 4.32663 145.388 4.94125L152.308 11.2242Z" fill="#CA403F"/>
<defs>
<linearGradient id="paint0_linear_320_207" x1="283.336" y1="170.186" x2="278.891" y2="462.889" gradientUnits="userSpaceOnUse">
<stop stop-color="#CA403E"/>
<stop offset="1" stop-color="#CA403E" stop-opacity="0"/>
</linearGradient>
<clipPath id="clip0_320_207">
<rect x="3" y="42.323" width="140" height="73" rx="6.64311" fill="white"/>
</clipPath>
<clipPath id="clip1_320_207">
<rect x="59" y="125.323" width="147" height="74" rx="6.79012" fill="white"/>
</clipPath>
<clipPath id="clip2_320_207">
<rect x="194" y="210.323" width="106" height="75" rx="6.85185" fill="white"/>
</clipPath>
<clipPath id="clip3_320_207">
<rect x="194" y="298.323" width="136" height="75" rx="6.85185" fill="white"/>
</clipPath>
</defs>
</svg>
