<svg width="311" height="458" viewBox="0 0 311 458" fill="none" xmlns="http://www.w3.org/2000/svg">
<g clip-path="url(#clip0_217_11024)">
<rect y="40.2272" width="172.023" height="68.7173" rx="6.64311" fill="#08239C"/>
<line x1="1.26071" y1="160.334" x2="209.212" y2="56.5142" stroke="white" stroke-opacity="0.04" stroke-width="13.2862"/>
<line x1="13.1289" y1="184.108" x2="221.08" y2="80.2889" stroke="white" stroke-opacity="0.04" stroke-width="13.2862"/>
<line x1="24.9985" y1="207.882" x2="232.949" y2="104.063" stroke="white" stroke-opacity="0.04" stroke-width="13.2862"/>
<line x1="-11.5181" y1="136.275" x2="196.433" y2="32.4559" stroke="white" stroke-opacity="0.04" stroke-width="13.2862"/>
<line x1="-71.3907" y1="107.544" x2="136.56" y2="3.72473" stroke="white" stroke-opacity="0.04" stroke-width="13.2862"/>
<line x1="-71.3907" y1="77.6504" x2="136.56" y2="-26.1689" stroke="white" stroke-opacity="0.04" stroke-width="13.2862"/>
<line x1="-23.3877" y1="112.501" x2="184.563" y2="8.68176" stroke="white" stroke-opacity="0.04" stroke-width="13.2862"/>
<path d="M25.8313 65.4326H24.0668C24.0164 65.1432 23.9236 64.8869 23.7884 64.6635C23.6531 64.4371 23.4849 64.2452 23.2836 64.0879C23.0823 63.9307 22.8526 63.8127 22.5947 63.7341C22.3399 63.6523 22.0647 63.6114 21.769 63.6114C21.2438 63.6114 20.7782 63.7435 20.3725 64.0077C19.9667 64.2688 19.649 64.6525 19.4194 65.1589C19.1898 65.6622 19.075 66.2771 19.075 67.0037C19.075 67.7429 19.1898 68.3657 19.4194 68.8721C19.6522 69.3754 19.9699 69.756 20.3725 70.0139C20.7782 70.2687 21.2422 70.3961 21.7643 70.3961C22.0537 70.3961 22.3242 70.3583 22.5758 70.2828C22.8306 70.2042 23.0587 70.0894 23.26 69.9384C23.4644 69.7874 23.6358 69.6018 23.7742 69.3817C23.9158 69.1615 24.0133 68.9099 24.0668 68.6268L25.8313 68.6362C25.7653 69.0954 25.6222 69.5264 25.402 69.929C25.185 70.3316 24.9003 70.687 24.548 70.9953C24.1957 71.3004 23.7837 71.5394 23.3119 71.7124C22.8401 71.8823 22.3163 71.9672 21.7407 71.9672C20.8915 71.9672 20.1334 71.7706 19.4666 71.3774C18.7998 70.9842 18.2745 70.4165 17.8907 69.6742C17.507 68.9319 17.3151 68.0417 17.3151 67.0037C17.3151 65.9626 17.5086 65.0724 17.8955 64.3333C18.2824 63.591 18.8092 63.0232 19.476 62.63C20.1429 62.2369 20.8978 62.0403 21.7407 62.0403C22.2786 62.0403 22.7787 62.1158 23.2411 62.2667C23.7035 62.4177 24.1155 62.6395 24.4772 62.932C24.839 63.2214 25.1362 63.5768 25.369 63.9983C25.6049 64.4166 25.759 64.8947 25.8313 65.4326ZM30.52 71.9766C29.8123 71.9766 29.1989 71.8209 28.6799 71.5095C28.1609 71.1981 27.7583 70.7625 27.4721 70.2026C27.189 69.6427 27.0474 68.9885 27.0474 68.2399C27.0474 67.4913 27.189 66.8355 27.4721 66.2724C27.7583 65.7094 28.1609 65.2722 28.6799 64.9608C29.1989 64.6494 29.8123 64.4937 30.52 64.4937C31.2277 64.4937 31.841 64.6494 32.36 64.9608C32.879 65.2722 33.2801 65.7094 33.5632 66.2724C33.8494 66.8355 33.9925 67.4913 33.9925 68.2399C33.9925 68.9885 33.8494 69.6427 33.5632 70.2026C33.2801 70.7625 32.879 71.1981 32.36 71.5095C31.841 71.8209 31.2277 71.9766 30.52 71.9766ZM30.5294 70.6084C30.9131 70.6084 31.234 70.503 31.4919 70.2923C31.7498 70.0784 31.9417 69.7921 32.0675 69.4336C32.1965 69.075 32.261 68.6755 32.261 68.2352C32.261 67.7917 32.1965 67.3906 32.0675 67.032C31.9417 66.6703 31.7498 66.3825 31.4919 66.1686C31.234 65.9547 30.9131 65.8478 30.5294 65.8478C30.1362 65.8478 29.8091 65.9547 29.548 66.1686C29.2901 66.3825 29.0967 66.6703 28.9677 67.032C28.8419 67.3906 28.779 67.7917 28.779 68.2352C28.779 68.6755 28.8419 69.075 28.9677 69.4336C29.0967 69.7921 29.2901 70.0784 29.548 70.2923C29.8091 70.503 30.1362 70.6084 30.5294 70.6084ZM37.1501 67.5888V71.8351H35.4421V64.5881H37.0746V65.8195H37.1595C37.3262 65.4137 37.592 65.0913 37.9569 64.8523C38.3249 64.6132 38.7794 64.4937 39.3204 64.4937C39.8206 64.4937 40.2562 64.6006 40.6274 64.8145C41.0017 65.0284 41.291 65.3382 41.4955 65.744C41.7031 66.1498 41.8053 66.642 41.8022 67.2208V71.8351H40.0942V67.485C40.0942 67.0006 39.9684 66.6216 39.7168 66.3479C39.4683 66.0743 39.1239 65.9374 38.6835 65.9374C38.3847 65.9374 38.1189 66.0035 37.8861 66.1356C37.6565 66.2646 37.4757 66.4517 37.3435 66.6971C37.2146 66.9424 37.1501 67.2396 37.1501 67.5888ZM46.6996 71.9766C45.9761 71.9766 45.3549 71.8178 44.8359 71.5001C44.3201 71.1824 43.9222 70.7436 43.6422 70.1837C43.3654 69.6207 43.227 68.9728 43.227 68.2399C43.227 67.5039 43.3686 66.8543 43.6517 66.2913C43.9348 65.7251 44.3342 65.2848 44.8501 64.9702C45.3691 64.6525 45.9824 64.4937 46.6901 64.4937C47.2783 64.4937 47.7989 64.6022 48.2518 64.8192C48.7079 65.0331 49.0712 65.3367 49.3417 65.7298C49.6122 66.1199 49.7664 66.576 49.8041 67.0981H48.1716C48.1056 66.749 47.9483 66.458 47.6998 66.2252C47.4545 65.9893 47.1258 65.8714 46.7137 65.8714C46.3646 65.8714 46.0579 65.9657 45.7937 66.1545C45.5295 66.34 45.3235 66.6074 45.1756 66.9565C45.0309 67.3057 44.9586 67.724 44.9586 68.2116C44.9586 68.7054 45.0309 69.13 45.1756 69.4855C45.3203 69.8377 45.5232 70.1098 45.7843 70.3017C46.0485 70.4904 46.3583 70.5848 46.7137 70.5848C46.9654 70.5848 47.1903 70.5376 47.3884 70.4432C47.5897 70.3457 47.758 70.2058 47.8933 70.0233C48.0285 69.8409 48.1213 69.6191 48.1716 69.3581H49.8041C49.7632 69.8708 49.6122 70.3253 49.3512 70.7216C49.0901 71.1148 48.7347 71.423 48.2849 71.6464C47.8351 71.8665 47.3066 71.9766 46.6996 71.9766ZM54.4149 71.9766C53.6883 71.9766 53.0608 71.8256 52.5323 71.5237C52.0071 71.2186 51.6029 70.7877 51.3198 70.2309C51.0367 69.671 50.8952 69.0121 50.8952 68.254C50.8952 67.5086 51.0367 66.8543 51.3198 66.2913C51.606 65.7251 52.0055 65.2848 52.5182 64.9702C53.0309 64.6525 53.6332 64.4937 54.3252 64.4937C54.7719 64.4937 55.1934 64.566 55.5897 64.7107C55.9892 64.8523 56.3414 65.0724 56.6465 65.3713C56.9548 65.6701 57.197 66.0507 57.3731 66.513C57.5493 66.9723 57.6374 67.5196 57.6374 68.155V68.6787H51.6972V67.5274H56.0002C55.997 67.2003 55.9262 66.9094 55.7878 66.6546C55.6495 66.3967 55.456 66.1938 55.2075 66.046C54.9622 65.8981 54.6759 65.8242 54.3488 65.8242C53.9997 65.8242 53.693 65.9091 53.4288 66.079C53.1646 66.2457 52.9586 66.4659 52.8107 66.7395C52.666 67.01 52.5921 67.3073 52.589 67.6312V68.6362C52.589 69.0577 52.666 69.4194 52.8202 69.7214C52.9743 70.0202 53.1897 70.2498 53.4665 70.4102C53.7433 70.5675 54.0673 70.6461 54.4385 70.6461C54.687 70.6461 54.9119 70.6115 55.1132 70.5423C55.3145 70.47 55.489 70.3646 55.6369 70.2262C55.7847 70.0878 55.8964 69.9164 55.9719 69.7119L57.5666 69.8912C57.4659 70.3127 57.2741 70.6807 56.991 70.9953C56.711 71.3067 56.3525 71.5489 55.9152 71.7218C55.478 71.8917 54.9779 71.9766 54.4149 71.9766ZM59.0823 74.5527V64.5881H60.7619V65.7865H60.861C60.9491 65.6103 61.0733 65.4232 61.2337 65.225C61.3942 65.0237 61.6112 64.8523 61.8848 64.7107C62.1585 64.566 62.5076 64.4937 62.9323 64.4937C63.4921 64.4937 63.997 64.6368 64.4468 64.923C64.8997 65.2061 65.2583 65.626 65.5225 66.1828C65.7899 66.7364 65.9235 67.4158 65.9235 68.221C65.9235 69.0168 65.793 69.6931 65.5319 70.2498C65.2709 70.8065 64.9154 71.2312 64.4656 71.5237C64.0159 71.8162 63.5063 71.9625 62.937 71.9625C62.5218 71.9625 62.1774 71.8933 61.9037 71.7549C61.6301 71.6165 61.4099 71.4498 61.2432 71.2548C61.0796 71.0566 60.9522 70.8694 60.861 70.6933H60.7902V74.5527H59.0823ZM60.7572 68.2116C60.7572 68.6802 60.8233 69.0907 60.9554 69.443C61.0906 69.7953 61.2841 70.0705 61.5357 70.2687C61.7905 70.4637 62.0987 70.5612 62.4604 70.5612C62.8379 70.5612 63.154 70.4605 63.4088 70.2592C63.6636 70.0548 63.8554 69.7764 63.9844 69.4241C64.1165 69.0687 64.1826 68.6645 64.1826 68.2116C64.1826 67.7618 64.1181 67.3623 63.9891 67.0132C63.8602 66.664 63.6683 66.3904 63.4135 66.1922C63.1587 65.9941 62.841 65.895 62.4604 65.895C62.0956 65.895 61.7858 65.9909 61.531 66.1828C61.2762 66.3746 61.0828 66.6436 60.9506 66.9896C60.8217 67.3356 60.7572 67.7429 60.7572 68.2116ZM71.005 64.5881V65.9091H66.8389V64.5881H71.005ZM67.8674 62.8518H69.5754V69.6553C69.5754 69.8849 69.61 70.0611 69.6792 70.1837C69.7515 70.3033 69.8459 70.385 69.9623 70.4291C70.0786 70.4731 70.2076 70.4951 70.3491 70.4951C70.4561 70.4951 70.5536 70.4873 70.6417 70.4715C70.7329 70.4558 70.8021 70.4417 70.8493 70.4291L71.1371 71.7643C71.0458 71.7958 70.9153 71.8304 70.7455 71.8681C70.5788 71.9059 70.3743 71.9279 70.1321 71.9342C69.7043 71.9467 69.319 71.8823 68.9762 71.7407C68.6333 71.596 68.3612 71.3727 68.1599 71.0707C67.9618 70.7688 67.8643 70.3913 67.8674 69.9384V62.8518ZM77.0524 68.7872V64.5881H78.7604V71.8351H77.1043V70.547H77.0288C76.8653 70.9528 76.5963 71.2846 76.222 71.5426C75.8509 71.8005 75.3932 71.9294 74.849 71.9294C74.3741 71.9294 73.9542 71.8241 73.5893 71.6133C73.2276 71.3994 72.9445 71.0896 72.74 70.6839C72.5356 70.275 72.4334 69.7811 72.4334 69.2024V64.5881H74.1413V68.9382C74.1413 69.3974 74.2671 69.7623 74.5188 70.0328C74.7704 70.3033 75.1007 70.4385 75.5096 70.4385C75.7612 70.4385 76.005 70.3772 76.2409 70.2545C76.4768 70.1318 76.6702 69.9494 76.8212 69.7072C76.9753 69.4619 77.0524 69.1552 77.0524 68.7872ZM82.6021 71.9813C82.1429 71.9813 81.7292 71.8996 81.3612 71.736C80.9964 71.5693 80.707 71.324 80.4931 71C80.2823 70.676 80.177 70.2765 80.177 69.8016C80.177 69.3927 80.2525 69.0545 80.4034 68.7872C80.5544 68.5198 80.7604 68.3059 81.0215 68.1455C81.2826 67.9851 81.5767 67.864 81.9038 67.7822C82.2341 67.6973 82.5754 67.636 82.9276 67.5982C83.3523 67.5542 83.6967 67.5149 83.9609 67.4803C84.2251 67.4425 84.417 67.3859 84.5365 67.3104C84.6592 67.2318 84.7205 67.1107 84.7205 66.9471V66.9188C84.7205 66.5634 84.6152 66.2881 84.4044 66.0931C84.1937 65.8981 83.8901 65.8006 83.4938 65.8006C83.0755 65.8006 82.7436 65.8918 82.4983 66.0743C82.2561 66.2567 82.0925 66.4722 82.0076 66.7206L80.4129 66.4942C80.5387 66.0538 80.7463 65.6858 81.0357 65.3901C81.3251 65.0913 81.6789 64.868 82.0972 64.7202C82.5156 64.5692 82.978 64.4937 83.4844 64.4937C83.8335 64.4937 84.1811 64.5346 84.5271 64.6164C84.8731 64.6981 85.1892 64.8334 85.4754 65.0221C85.7617 65.2077 85.9913 65.4609 86.1643 65.7817C86.3404 66.1026 86.4285 66.5036 86.4285 66.9849V71.8351H84.7866V70.8396H84.73C84.6262 71.0409 84.4799 71.2296 84.2912 71.4057C84.1056 71.5787 83.8713 71.7187 83.5882 71.8256C83.3082 71.9294 82.9795 71.9813 82.6021 71.9813ZM83.0456 70.7263C83.3884 70.7263 83.6857 70.6587 83.9373 70.5234C84.1889 70.385 84.3824 70.2026 84.5176 69.9761C84.656 69.7497 84.7252 69.5028 84.7252 69.2354V68.3814C84.6718 68.4255 84.5806 68.4663 84.4516 68.5041C84.3258 68.5418 84.1842 68.5749 84.027 68.6032C83.8697 68.6315 83.714 68.6566 83.5599 68.6787C83.4057 68.7007 83.2721 68.7196 83.1588 68.7353C82.904 68.7699 82.676 68.8265 82.4747 68.9051C82.2734 68.9838 82.1145 69.0939 81.9982 69.2354C81.8818 69.3738 81.8236 69.5531 81.8236 69.7733C81.8236 70.0878 81.9384 70.3253 82.168 70.4857C82.3976 70.6461 82.6902 70.7263 83.0456 70.7263ZM89.8538 62.1724V71.8351H88.1459V62.1724H89.8538ZM91.6102 71.8351V64.5881H93.3181V71.8351H91.6102ZM92.4688 63.5595C92.1983 63.5595 91.9656 63.4699 91.7706 63.2906C91.5756 63.1081 91.478 62.8895 91.478 62.6348C91.478 62.3768 91.5756 62.1582 91.7706 61.9789C91.9656 61.7965 92.1983 61.7053 92.4688 61.7053C92.7425 61.7053 92.9753 61.7965 93.1671 61.9789C93.3621 62.1582 93.4597 62.3768 93.4597 62.6348C93.4597 62.8895 93.3621 63.1081 93.1671 63.2906C92.9753 63.4699 92.7425 63.5595 92.4688 63.5595ZM100.802 66.5036L99.2452 66.6735C99.2012 66.5162 99.1241 66.3684 99.0141 66.23C98.9071 66.0916 98.7624 65.9799 98.58 65.895C98.3976 65.81 98.1742 65.7676 97.91 65.7676C97.5546 65.7676 97.2558 65.8446 97.0136 65.9988C96.7745 66.1529 96.6566 66.3526 96.6597 66.598C96.6566 66.8087 96.7336 66.9801 96.8909 67.1122C97.0513 67.2444 97.3155 67.3529 97.6836 67.4378L98.9197 67.702C99.6054 67.8498 100.115 68.0842 100.448 68.405C100.785 68.7258 100.955 69.1458 100.958 69.6647C100.955 70.1208 100.821 70.5234 100.557 70.8726C100.296 71.2186 99.9325 71.4891 99.467 71.6841C99.0015 71.8791 98.4668 71.9766 97.8628 71.9766C96.9758 71.9766 96.2618 71.791 95.7208 71.4199C95.1798 71.0456 94.8574 70.525 94.7536 69.8582L96.4191 69.6978C96.4946 70.0249 96.655 70.2718 96.9003 70.4385C97.1457 70.6052 97.4649 70.6886 97.8581 70.6886C98.2639 70.6886 98.5894 70.6052 98.8348 70.4385C99.0833 70.2718 99.2075 70.0658 99.2075 69.8204C99.2075 69.6128 99.1273 69.4414 98.9669 69.3062C98.8096 69.1709 98.5643 69.0671 98.2309 68.9948L96.9947 68.7353C96.2996 68.5906 95.7853 68.3468 95.4519 68.004C95.1185 67.658 94.9533 67.2208 94.9565 66.6923C94.9533 66.2457 95.0744 65.8588 95.3198 65.5317C95.5683 65.2014 95.9127 64.9466 96.353 64.7673C96.7965 64.5849 97.3077 64.4937 97.8864 64.4937C98.7357 64.4937 99.4041 64.6746 99.8916 65.0363C100.382 65.398 100.686 65.8871 100.802 66.5036ZM104.452 71.9813C103.992 71.9813 103.579 71.8996 103.211 71.736C102.846 71.5693 102.557 71.324 102.343 71C102.132 70.676 102.027 70.2765 102.027 69.8016C102.027 69.3927 102.102 69.0545 102.253 68.7872C102.404 68.5198 102.61 68.3059 102.871 68.1455C103.132 67.9851 103.426 67.864 103.753 67.7822C104.084 67.6973 104.425 67.636 104.777 67.5982C105.202 67.5542 105.546 67.5149 105.811 67.4803C106.075 67.4425 106.267 67.3859 106.386 67.3104C106.509 67.2318 106.57 67.1107 106.57 66.9471V66.9188C106.57 66.5634 106.465 66.2881 106.254 66.0931C106.043 65.8981 105.74 65.8006 105.343 65.8006C104.925 65.8006 104.593 65.8918 104.348 66.0743C104.106 66.2567 103.942 66.4722 103.857 66.7206L102.262 66.4942C102.388 66.0538 102.596 65.6858 102.885 65.3901C103.175 65.0913 103.529 64.868 103.947 64.7202C104.365 64.5692 104.828 64.4937 105.334 64.4937C105.683 64.4937 106.031 64.5346 106.377 64.6164C106.723 64.6981 107.039 64.8334 107.325 65.0221C107.611 65.2077 107.841 65.4609 108.014 65.7817C108.19 66.1026 108.278 66.5036 108.278 66.9849V71.8351H106.636V70.8396H106.58C106.476 71.0409 106.33 71.2296 106.141 71.4057C105.955 71.5787 105.721 71.7187 105.438 71.8256C105.158 71.9294 104.829 71.9813 104.452 71.9813ZM104.895 70.7263C105.238 70.7263 105.535 70.6587 105.787 70.5234C106.039 70.385 106.232 70.2026 106.367 69.9761C106.506 69.7497 106.575 69.5028 106.575 69.2354V68.3814C106.521 68.4255 106.43 68.4663 106.301 68.5041C106.175 68.5418 106.034 68.5749 105.877 68.6032C105.719 68.6315 105.564 68.6566 105.409 68.6787C105.255 68.7007 105.122 68.7196 105.008 68.7353C104.754 68.7699 104.526 68.8265 104.324 68.9051C104.123 68.9838 103.964 69.0939 103.848 69.2354C103.731 69.3738 103.673 69.5531 103.673 69.7733C103.673 70.0878 103.788 70.3253 104.018 70.4857C104.247 70.6461 104.54 70.7263 104.895 70.7263ZM113.614 64.5881V65.9091H109.448V64.5881H113.614ZM110.477 62.8518H112.185V69.6553C112.185 69.8849 112.219 70.0611 112.288 70.1837C112.361 70.3033 112.455 70.385 112.572 70.4291C112.688 70.4731 112.817 70.4951 112.958 70.4951C113.065 70.4951 113.163 70.4873 113.251 70.4715C113.342 70.4558 113.411 70.4417 113.459 70.4291L113.746 71.7643C113.655 71.7958 113.525 71.8304 113.355 71.8681C113.188 71.9059 112.984 71.9279 112.741 71.9342C112.314 71.9467 111.928 71.8823 111.585 71.7407C111.243 71.596 110.971 71.3727 110.769 71.0707C110.571 70.7688 110.474 70.3913 110.477 69.9384V62.8518ZM115.043 71.8351V64.5881H116.751V71.8351H115.043ZM115.901 63.5595C115.631 63.5595 115.398 63.4699 115.203 63.2906C115.008 63.1081 114.911 62.8895 114.911 62.6348C114.911 62.3768 115.008 62.1582 115.203 61.9789C115.398 61.7965 115.631 61.7053 115.901 61.7053C116.175 61.7053 116.408 61.7965 116.6 61.9789C116.795 62.1582 116.892 62.3768 116.892 62.6348C116.892 62.8895 116.795 63.1081 116.6 63.2906C116.408 63.4699 116.175 63.5595 115.901 63.5595ZM121.668 71.9766C120.96 71.9766 120.347 71.8209 119.828 71.5095C119.309 71.1981 118.906 70.7625 118.62 70.2026C118.337 69.6427 118.196 68.9885 118.196 68.2399C118.196 67.4913 118.337 66.8355 118.62 66.2724C118.906 65.7094 119.309 65.2722 119.828 64.9608C120.347 64.6494 120.96 64.4937 121.668 64.4937C122.376 64.4937 122.989 64.6494 123.508 64.9608C124.027 65.2722 124.428 65.7094 124.711 66.2724C124.998 66.8355 125.141 67.4913 125.141 68.2399C125.141 68.9885 124.998 69.6427 124.711 70.2026C124.428 70.7625 124.027 71.1981 123.508 71.5095C122.989 71.8209 122.376 71.9766 121.668 71.9766ZM121.678 70.6084C122.061 70.6084 122.382 70.503 122.64 70.2923C122.898 70.0784 123.09 69.7921 123.216 69.4336C123.345 69.075 123.409 68.6755 123.409 68.2352C123.409 67.7917 123.345 67.3906 123.216 67.032C123.09 66.6703 122.898 66.3825 122.64 66.1686C122.382 65.9547 122.061 65.8478 121.678 65.8478C121.284 65.8478 120.957 65.9547 120.696 66.1686C120.438 66.3825 120.245 66.6703 120.116 67.032C119.99 67.3906 119.927 67.7917 119.927 68.2352C119.927 68.6755 119.99 69.075 120.116 69.4336C120.245 69.7921 120.438 70.0784 120.696 70.2923C120.957 70.503 121.284 70.6084 121.678 70.6084ZM128.298 67.5888V71.8351H126.59V64.5881H128.223V65.8195H128.308C128.474 65.4137 128.74 65.0913 129.105 64.8523C129.473 64.6132 129.928 64.4937 130.469 64.4937C130.969 64.4937 131.404 64.6006 131.775 64.8145C132.15 65.0284 132.439 65.3382 132.644 65.744C132.851 66.1498 132.953 66.642 132.95 67.2208V71.8351H131.242V67.485C131.242 67.0006 131.117 66.6216 130.865 66.3479C130.616 66.0743 130.272 65.9374 129.832 65.9374C129.533 65.9374 129.267 66.0035 129.034 66.1356C128.805 66.2646 128.624 66.4517 128.492 66.6971C128.363 66.9424 128.298 67.2396 128.298 67.5888ZM19.5704 92.9813C19.1112 92.9813 18.6975 92.8996 18.3295 92.736C17.9647 92.5693 17.6753 92.324 17.4614 92C17.2507 91.676 17.1453 91.2765 17.1453 90.8016C17.1453 90.3927 17.2208 90.0545 17.3718 89.7872C17.5227 89.5198 17.7288 89.3059 17.9898 89.1455C18.2509 88.9851 18.545 88.864 18.8721 88.7822C19.2024 88.6973 19.5437 88.636 19.8959 88.5982C20.3206 88.5542 20.665 88.5149 20.9292 88.4803C21.1934 88.4425 21.3853 88.3859 21.5048 88.3104C21.6275 88.2318 21.6888 88.1107 21.6888 87.9471V87.9188C21.6888 87.5634 21.5835 87.2881 21.3727 87.0931C21.162 86.8981 20.8584 86.8006 20.4621 86.8006C20.0438 86.8006 19.7119 86.8918 19.4666 87.0743C19.2244 87.2567 19.0608 87.4722 18.9759 87.7206L17.3812 87.4942C17.507 87.0538 17.7146 86.6858 18.004 86.3901C18.2934 86.0913 18.6472 85.868 19.0656 85.7202C19.4839 85.5692 19.9463 85.4937 20.4527 85.4937C20.8018 85.4937 21.1494 85.5346 21.4954 85.6164C21.8414 85.6981 22.1575 85.8334 22.4437 86.0221C22.73 86.2077 22.9596 86.4609 23.1326 86.7817C23.3087 87.1026 23.3968 87.5036 23.3968 87.9849V92.8351H21.7549V91.8396H21.6983C21.5945 92.0409 21.4482 92.2296 21.2595 92.4057C21.0739 92.5787 20.8396 92.7187 20.5565 92.8256C20.2765 92.9294 19.9478 92.9813 19.5704 92.9813ZM20.0139 91.7263C20.3568 91.7263 20.654 91.6587 20.9056 91.5234C21.1573 91.385 21.3507 91.2026 21.486 90.9761C21.6244 90.7497 21.6936 90.5028 21.6936 90.2354V89.3814C21.6401 89.4255 21.5489 89.4663 21.4199 89.5041C21.2941 89.5418 21.1525 89.5749 20.9953 89.6032C20.838 89.6315 20.6823 89.6566 20.5282 89.6787C20.3741 89.7007 20.2404 89.7196 20.1271 89.7353C19.8724 89.7699 19.6443 89.8265 19.443 89.9051C19.2417 89.9838 19.0829 90.0939 18.9665 90.2354C18.8501 90.3738 18.7919 90.5531 18.7919 90.7733C18.7919 91.0878 18.9067 91.3253 19.1363 91.4857C19.3659 91.6461 19.6585 91.7263 20.0139 91.7263ZM26.8221 88.5888V92.8351H25.1142V85.5881H26.7467V86.8195H26.8316C26.9983 86.4137 27.2641 86.0913 27.6289 85.8523C27.997 85.6132 28.4515 85.4937 28.9925 85.4937C29.4926 85.4937 29.9282 85.6006 30.2994 85.8145C30.6737 86.0284 30.9631 86.3382 31.1675 86.744C31.3751 87.1498 31.4774 87.642 31.4742 88.2208V92.8351H29.7663V88.485C29.7663 88.0006 29.6404 87.6216 29.3888 87.3479C29.1403 87.0743 28.7959 86.9374 28.3555 86.9374C28.0567 86.9374 27.7909 87.0035 27.5582 87.1356C27.3286 87.2646 27.1477 87.4517 27.0156 87.6971C26.8866 87.9424 26.8221 88.2396 26.8221 88.5888ZM35.8998 92.9625C35.3305 92.9625 34.8209 92.8162 34.3711 92.5237C33.9213 92.2312 33.5659 91.8065 33.3048 91.2498C33.0438 90.6931 32.9132 90.0168 32.9132 89.221C32.9132 88.4158 33.0453 87.7364 33.3096 87.1828C33.5769 86.626 33.9371 86.2061 34.39 85.923C34.8429 85.6368 35.3478 85.4937 35.9045 85.4937C36.3292 85.4937 36.6783 85.566 36.9519 85.7107C37.2256 85.8523 37.4426 86.0237 37.603 86.225C37.7635 86.4232 37.8877 86.6103 37.9758 86.7865H38.0465V83.1724H39.7592V92.8351H38.0796V91.6933H37.9758C37.8877 91.8694 37.7603 92.0566 37.5936 92.2548C37.4269 92.4498 37.2067 92.6165 36.9331 92.7549C36.6594 92.8933 36.315 92.9625 35.8998 92.9625ZM36.3763 91.5612C36.7381 91.5612 37.0463 91.4637 37.3011 91.2687C37.5559 91.0705 37.7493 90.7953 37.8814 90.443C38.0135 90.0907 38.0796 89.6802 38.0796 89.2116C38.0796 88.7429 38.0135 88.3356 37.8814 87.9896C37.7525 87.6436 37.5606 87.3746 37.3058 87.1828C37.0542 86.9909 36.7443 86.895 36.3763 86.895C35.9957 86.895 35.6781 86.9941 35.4233 87.1922C35.1685 87.3904 34.9766 87.664 34.8477 88.0132C34.7187 88.3623 34.6542 88.7618 34.6542 89.2116C34.6542 89.6645 34.7187 90.0687 34.8477 90.4241C34.9798 90.7764 35.1732 91.0548 35.428 91.2592C35.6859 91.4605 36.002 91.5612 36.3763 91.5612ZM47.5642 92.9625C46.9948 92.9625 46.4853 92.8162 46.0355 92.5237C45.5857 92.2312 45.2303 91.8065 44.9692 91.2498C44.7081 90.6931 44.5776 90.0168 44.5776 89.221C44.5776 88.4158 44.7097 87.7364 44.9739 87.1828C45.2413 86.626 45.6014 86.2061 46.0544 85.923C46.5073 85.6368 47.0121 85.4937 47.5689 85.4937C47.9935 85.4937 48.3427 85.566 48.6163 85.7107C48.89 85.8523 49.107 86.0237 49.2674 86.225C49.4278 86.4232 49.5521 86.6103 49.6401 86.7865H49.7109V83.1724H51.4236V92.8351H49.7439V91.6933H49.6401C49.5521 91.8694 49.4247 92.0566 49.258 92.2548C49.0913 92.4498 48.8711 92.6165 48.5974 92.7549C48.3238 92.8933 47.9794 92.9625 47.5642 92.9625ZM48.0407 91.5612C48.4024 91.5612 48.7107 91.4637 48.9655 91.2687C49.2202 91.0705 49.4137 90.7953 49.5458 90.443C49.6779 90.0907 49.7439 89.6802 49.7439 89.2116C49.7439 88.7429 49.6779 88.3356 49.5458 87.9896C49.4168 87.6436 49.2249 87.3746 48.9702 87.1828C48.7185 86.9909 48.4087 86.895 48.0407 86.895C47.6601 86.895 47.3424 86.9941 47.0876 87.1922C46.8329 87.3904 46.641 87.664 46.512 88.0132C46.3831 88.3623 46.3186 88.7618 46.3186 89.2116C46.3186 89.6645 46.3831 90.0687 46.512 90.4241C46.6441 90.7764 46.8376 91.0548 47.0924 91.2592C47.3503 91.4605 47.6664 91.5612 48.0407 91.5612ZM56.4519 92.9766C55.7253 92.9766 55.0978 92.8256 54.5694 92.5237C54.0441 92.2186 53.6399 91.7877 53.3568 91.2309C53.0738 90.671 52.9322 90.0121 52.9322 89.254C52.9322 88.5086 53.0738 87.8543 53.3568 87.2913C53.6431 86.7251 54.0425 86.2848 54.5552 85.9702C55.0679 85.6525 55.6703 85.4937 56.3623 85.4937C56.8089 85.4937 57.2304 85.566 57.6267 85.7107C58.0262 85.8523 58.3785 86.0724 58.6836 86.3713C58.9918 86.6701 59.234 87.0507 59.4102 87.513C59.5863 87.9723 59.6744 88.5196 59.6744 89.155V89.6787H53.7343V88.5274H58.0372C58.0341 88.2003 57.9633 87.9094 57.8249 87.6546C57.6865 87.3967 57.4931 87.1938 57.2446 87.046C56.9992 86.8981 56.713 86.8242 56.3859 86.8242C56.0367 86.8242 55.7301 86.9091 55.4658 87.079C55.2016 87.2457 54.9956 87.4659 54.8478 87.7395C54.7031 88.01 54.6292 88.3073 54.626 88.6312V89.6362C54.626 90.0577 54.7031 90.4194 54.8572 90.7214C55.0113 91.0202 55.2268 91.2498 55.5036 91.4102C55.7804 91.5675 56.1044 91.6461 56.4755 91.6461C56.724 91.6461 56.9489 91.6115 57.1502 91.5423C57.3515 91.47 57.5261 91.3646 57.6739 91.2262C57.8218 91.0878 57.9334 90.9164 58.0089 90.7119L59.6036 90.8912C59.503 91.3127 59.3111 91.6807 59.028 91.9953C58.7481 92.3067 58.3895 92.5489 57.9523 92.7218C57.5151 92.8917 57.015 92.9766 56.4519 92.9766ZM66.8471 87.5036L65.2901 87.6735C65.2461 87.5162 65.169 87.3684 65.059 87.23C64.952 87.0916 64.8073 86.9799 64.6249 86.895C64.4425 86.81 64.2191 86.7676 63.9549 86.7676C63.5995 86.7676 63.3007 86.8446 63.0585 86.9988C62.8194 87.1529 62.7015 87.3526 62.7046 87.598C62.7015 87.8087 62.7785 87.9801 62.9358 88.1122C63.0962 88.2444 63.3604 88.3529 63.7284 88.4378L64.9646 88.702C65.6503 88.8498 66.1598 89.0842 66.4933 89.405C66.8298 89.7258 66.9997 90.1458 67.0028 90.6647C66.9997 91.1208 66.866 91.5234 66.6018 91.8726C66.3407 92.2186 65.9774 92.4891 65.5119 92.6841C65.0464 92.8791 64.5116 92.9766 63.9077 92.9766C63.0207 92.9766 62.3067 92.791 61.7657 92.4199C61.2247 92.0456 60.9023 91.525 60.7985 90.8582L62.464 90.6978C62.5395 91.0249 62.6999 91.2718 62.9452 91.4385C63.1906 91.6052 63.5098 91.6886 63.903 91.6886C64.3088 91.6886 64.6343 91.6052 64.8797 91.4385C65.1281 91.2718 65.2524 91.0658 65.2524 90.8204C65.2524 90.6128 65.1722 90.4414 65.0118 90.3062C64.8545 90.1709 64.6092 90.0671 64.2757 89.9948L63.0396 89.7353C62.3445 89.5906 61.8302 89.3468 61.4968 89.004C61.1634 88.658 60.9982 88.2208 61.0014 87.6923C60.9982 87.2457 61.1193 86.8588 61.3647 86.5317C61.6132 86.2014 61.9576 85.9466 62.3979 85.7673C62.8414 85.5849 63.3526 85.4937 63.9313 85.4937C64.7806 85.4937 65.449 85.6746 65.9365 86.0363C66.4272 86.398 66.7307 86.8871 66.8471 87.5036ZM68.4112 92.8351V85.5881H70.1191V92.8351H68.4112ZM69.2699 84.5595C68.9994 84.5595 68.7666 84.4699 68.5716 84.2906C68.3766 84.1081 68.2791 83.8895 68.2791 83.6348C68.2791 83.3768 68.3766 83.1582 68.5716 82.9789C68.7666 82.7965 68.9994 82.7053 69.2699 82.7053C69.5435 82.7053 69.7763 82.7965 69.9682 82.9789C70.1632 83.1582 70.2607 83.3768 70.2607 83.6348C70.2607 83.8895 70.1632 84.1081 69.9682 84.2906C69.7763 84.4699 69.5435 84.5595 69.2699 84.5595ZM75.0272 95.7037C74.4138 95.7037 73.8869 95.6203 73.4466 95.4536C73.0062 95.2901 72.6524 95.0699 72.385 94.7931C72.1176 94.5163 71.9321 94.2096 71.8283 93.8731L73.3664 93.5003C73.4356 93.6419 73.5362 93.7819 73.6683 93.9203C73.8004 94.0618 73.9782 94.1782 74.2015 94.2694C74.428 94.3638 74.7126 94.4109 75.0555 94.4109C75.5399 94.4109 75.9409 94.293 76.2586 94.0571C76.5763 93.8243 76.7351 93.4406 76.7351 92.9059V91.5329H76.6502C76.5621 91.709 76.4332 91.8899 76.2633 92.0755C76.0966 92.261 75.8748 92.4167 75.598 92.5426C75.3244 92.6684 74.98 92.7313 74.5648 92.7313C74.008 92.7313 73.5032 92.6007 73.0503 92.3397C72.6005 92.0755 72.2419 91.6823 71.9745 91.1602C71.7103 90.6349 71.5782 89.9775 71.5782 89.188C71.5782 88.3922 71.7103 87.7206 71.9745 87.1733C72.2419 86.6229 72.602 86.2061 73.055 85.923C73.5079 85.6368 74.0128 85.4937 74.5695 85.4937C74.9941 85.4937 75.3433 85.566 75.6169 85.7107C75.8937 85.8523 76.1139 86.0237 76.2775 86.225C76.441 86.4232 76.5653 86.6103 76.6502 86.7865H76.7445V85.5881H78.4289V92.953C78.4289 93.5727 78.2811 94.0854 77.9854 94.4911C77.6897 94.8969 77.2856 95.2004 76.7729 95.4017C76.2602 95.603 75.6783 95.7037 75.0272 95.7037ZM75.0413 91.3913C75.403 91.3913 75.7113 91.3033 75.9661 91.1271C76.2208 90.951 76.4143 90.6978 76.5464 90.3675C76.6785 90.0372 76.7445 89.6409 76.7445 89.1785C76.7445 88.7225 76.6785 88.323 76.5464 87.9801C76.4174 87.6373 76.2256 87.3715 75.9708 87.1828C75.7191 86.9909 75.4093 86.895 75.0413 86.895C74.6607 86.895 74.343 86.9941 74.0882 87.1922C73.8335 87.3904 73.6416 87.6625 73.5126 88.0084C73.3837 88.3513 73.3192 88.7413 73.3192 89.1785C73.3192 89.622 73.3837 90.0105 73.5126 90.3439C73.6447 90.6742 73.8382 90.9321 74.093 91.1177C74.3509 91.3001 74.667 91.3913 75.0413 91.3913ZM81.8873 88.5888V92.8351H80.1793V85.5881H81.8118V86.8195H81.8967C82.0634 86.4137 82.3292 86.0913 82.6941 85.8523C83.0621 85.6132 83.5166 85.4937 84.0576 85.4937C84.5577 85.4937 84.9934 85.6006 85.3645 85.8145C85.7389 86.0284 86.0282 86.3382 86.2327 86.744C86.4403 87.1498 86.5425 87.642 86.5394 88.2208V92.8351H84.8314V88.485C84.8314 88.0006 84.7056 87.6216 84.4539 87.3479C84.2055 87.0743 83.861 86.9374 83.4207 86.9374C83.1219 86.9374 82.8561 87.0035 82.6233 87.1356C82.3937 87.2646 82.2128 87.4517 82.0807 87.6971C81.9518 87.9424 81.8873 88.2396 81.8873 88.5888ZM93.6566 92.9813C93.1974 92.9813 92.7838 92.8996 92.4158 92.736C92.0509 92.5693 91.7615 92.324 91.5476 92C91.3369 91.676 91.2315 91.2765 91.2315 90.8016C91.2315 90.3927 91.307 90.0545 91.458 89.7872C91.609 89.5198 91.815 89.3059 92.0761 89.1455C92.3371 88.9851 92.6312 88.864 92.9584 88.7822C93.2886 88.6973 93.6299 88.636 93.9822 88.5982C94.4068 88.5542 94.7512 88.5149 95.0155 88.4803C95.2797 88.4425 95.4715 88.3859 95.5911 88.3104C95.7137 88.2318 95.7751 88.1107 95.7751 87.9471V87.9188C95.7751 87.5634 95.6697 87.2881 95.459 87.0931C95.2482 86.8981 94.9447 86.8006 94.5484 86.8006C94.13 86.8006 93.7982 86.8918 93.5528 87.0743C93.3106 87.2567 93.1471 87.4722 93.0622 87.7206L91.4674 87.4942C91.5933 87.0538 91.8008 86.6858 92.0902 86.3901C92.3796 86.0913 92.7335 85.868 93.1518 85.7202C93.5701 85.5692 94.0325 85.4937 94.5389 85.4937C94.8881 85.4937 95.2356 85.5346 95.5816 85.6164C95.9276 85.6981 96.2437 85.8334 96.53 86.0221C96.8162 86.2077 97.0458 86.4609 97.2188 86.7817C97.395 87.1026 97.483 87.5036 97.483 87.9849V92.8351H95.8411V91.8396H95.7845C95.6807 92.0409 95.5345 92.2296 95.3457 92.4057C95.1601 92.5787 94.9258 92.7187 94.6427 92.8256C94.3628 92.9294 94.0341 92.9813 93.6566 92.9813ZM94.1001 91.7263C94.443 91.7263 94.7402 91.6587 94.9919 91.5234C95.2435 91.385 95.4369 91.2026 95.5722 90.9761C95.7106 90.7497 95.7798 90.5028 95.7798 90.2354V89.3814C95.7263 89.4255 95.6351 89.4663 95.5061 89.5041C95.3803 89.5418 95.2388 89.5749 95.0815 89.6032C94.9242 89.6315 94.7685 89.6566 94.6144 89.6787C94.4603 89.7007 94.3266 89.7196 94.2134 89.7353C93.9586 89.7699 93.7306 89.8265 93.5293 89.9051C93.3279 89.9838 93.1691 90.0939 93.0527 90.2354C92.9363 90.3738 92.8782 90.5531 92.8782 90.7733C92.8782 91.0878 92.993 91.3253 93.2226 91.4857C93.4522 91.6461 93.7447 91.7263 94.1001 91.7263ZM99.2004 95.5527V85.5881H100.88V86.7865H100.979C101.067 86.6103 101.191 86.4232 101.352 86.225C101.512 86.0237 101.729 85.8523 102.003 85.7107C102.277 85.566 102.626 85.4937 103.05 85.4937C103.61 85.4937 104.115 85.6368 104.565 85.923C105.018 86.2061 105.376 86.626 105.641 87.1828C105.908 87.7364 106.042 88.4158 106.042 89.221C106.042 90.0168 105.911 90.6931 105.65 91.2498C105.389 91.8065 105.034 92.2312 104.584 92.5237C104.134 92.8162 103.624 92.9625 103.055 92.9625C102.64 92.9625 102.296 92.8933 102.022 92.7549C101.748 92.6165 101.528 92.4498 101.361 92.2548C101.198 92.0566 101.07 91.8694 100.979 91.6933H100.908V95.5527H99.2004ZM100.875 89.2116C100.875 89.6802 100.941 90.0907 101.074 90.443C101.209 90.7953 101.402 91.0705 101.654 91.2687C101.909 91.4637 102.217 91.5612 102.579 91.5612C102.956 91.5612 103.272 91.4605 103.527 91.2592C103.782 91.0548 103.974 90.7764 104.103 90.4241C104.235 90.0687 104.301 89.6645 104.301 89.2116C104.301 88.7618 104.236 88.3623 104.107 88.0132C103.978 87.664 103.786 87.3904 103.532 87.1922C103.277 86.9941 102.959 86.895 102.579 86.895C102.214 86.895 101.904 86.9909 101.649 87.1828C101.394 87.3746 101.201 87.6436 101.069 87.9896C100.94 88.3356 100.875 88.7429 100.875 89.2116ZM107.504 95.5527V85.5881H109.184V86.7865H109.283C109.371 86.6103 109.495 86.4232 109.656 86.225C109.816 86.0237 110.033 85.8523 110.307 85.7107C110.581 85.566 110.93 85.4937 111.354 85.4937C111.914 85.4937 112.419 85.6368 112.869 85.923C113.322 86.2061 113.68 86.626 113.945 87.1828C114.212 87.7364 114.346 88.4158 114.346 89.221C114.346 90.0168 114.215 90.6931 113.954 91.2498C113.693 91.8065 113.337 92.2312 112.888 92.5237C112.438 92.8162 111.928 92.9625 111.359 92.9625C110.944 92.9625 110.599 92.8933 110.326 92.7549C110.052 92.6165 109.832 92.4498 109.665 92.2548C109.502 92.0566 109.374 91.8694 109.283 91.6933H109.212V95.5527H107.504ZM109.179 89.2116C109.179 89.6802 109.245 90.0907 109.377 90.443C109.513 90.7953 109.706 91.0705 109.958 91.2687C110.213 91.4637 110.521 91.5612 110.882 91.5612C111.26 91.5612 111.576 91.4605 111.831 91.2592C112.086 91.0548 112.277 90.7764 112.406 90.4241C112.539 90.0687 112.605 89.6645 112.605 89.2116C112.605 88.7618 112.54 88.3623 112.411 88.0132C112.282 87.664 112.09 87.3904 111.836 87.1922C111.581 86.9941 111.263 86.895 110.882 86.895C110.518 86.895 110.208 86.9909 109.953 87.1828C109.698 87.3746 109.505 87.6436 109.373 87.9896C109.244 88.3356 109.179 88.7429 109.179 89.2116Z" fill="white"/>
</g>
<g clip-path="url(#clip1_217_11024)">
<rect x="28.3652" y="118.766" width="175.83" height="70.238" rx="6.79012" fill="#B629DE"/>
<line x1="29.653" y1="241.531" x2="242.206" y2="135.414" stroke="white" stroke-opacity="0.11" stroke-width="13.5802"/>
<line x1="41.7844" y1="265.832" x2="254.337" y2="159.715" stroke="white" stroke-opacity="0.11" stroke-width="13.5802"/>
<line x1="53.9162" y1="290.132" x2="266.469" y2="184.015" stroke="white" stroke-opacity="0.11" stroke-width="13.5802"/>
<line x1="16.591" y1="216.94" x2="229.144" y2="110.823" stroke="white" stroke-opacity="0.11" stroke-width="13.5802"/>
<line x1="-44.6062" y1="187.573" x2="167.947" y2="81.4564" stroke="white" stroke-opacity="0.11" stroke-width="13.5802"/>
<line x1="-44.6062" y1="157.018" x2="167.947" y2="50.9009" stroke="white" stroke-opacity="0.11" stroke-width="13.5802"/>
<line x1="4.4592" y1="192.64" x2="217.012" y2="86.5232" stroke="white" stroke-opacity="0.11" stroke-width="13.5802"/>
<path d="M49.6613 150.741H46.3145V140.865H49.7288C50.7094 140.865 51.5518 141.063 52.2558 141.458C52.9631 141.85 53.5065 142.415 53.8859 143.151C54.2652 143.887 54.4549 144.768 54.4549 145.794C54.4549 146.822 54.2636 147.706 53.881 148.446C53.5017 149.185 52.9535 149.753 52.2366 150.148C51.5228 150.544 50.6644 150.741 49.6613 150.741ZM48.1036 149.193H49.5745C50.2625 149.193 50.8364 149.068 51.2962 148.817C51.7559 148.563 52.1015 148.186 52.333 147.684C52.5645 147.179 52.6802 146.549 52.6802 145.794C52.6802 145.038 52.5645 144.411 52.333 143.913C52.1015 143.411 51.7591 143.037 51.3058 142.789C50.8557 142.538 50.2963 142.413 49.6276 142.413H48.1036V149.193ZM59.357 150.886C58.6143 150.886 57.973 150.732 57.4328 150.423C56.8959 150.111 56.4828 149.671 56.1934 149.102C55.9041 148.53 55.7594 147.856 55.7594 147.081C55.7594 146.319 55.9041 145.65 56.1934 145.075C56.486 144.496 56.8943 144.046 57.4184 143.725C57.9424 143.4 58.5581 143.238 59.2654 143.238C59.7219 143.238 60.1527 143.312 60.5578 143.459C60.9661 143.604 61.3262 143.829 61.6381 144.135C61.9531 144.44 62.2007 144.829 62.3807 145.302C62.5608 145.771 62.6508 146.33 62.6508 146.98V147.515H56.5792V146.338H60.9774C60.9742 146.004 60.9018 145.707 60.7604 145.446C60.6189 145.183 60.4212 144.975 60.1672 144.824C59.9164 144.673 59.6239 144.598 59.2895 144.598C58.9326 144.598 58.6192 144.684 58.3491 144.858C58.079 145.028 57.8685 145.253 57.7174 145.533C57.5695 145.81 57.4939 146.113 57.4907 146.445V147.472C57.4907 147.903 57.5695 148.272 57.727 148.581C57.8845 148.886 58.1048 149.121 58.3877 149.285C58.6706 149.446 59.0018 149.526 59.3811 149.526C59.6351 149.526 59.865 149.491 60.0708 149.42C60.2765 149.346 60.4549 149.238 60.6061 149.097C60.7572 148.956 60.8713 148.78 60.9485 148.571L62.5785 148.755C62.4756 149.185 62.2795 149.562 61.9901 149.883C61.704 150.201 61.3375 150.449 60.8906 150.626C60.4437 150.799 59.9325 150.886 59.357 150.886ZM70.532 143.334L67.8941 150.741H65.9651L63.3272 143.334H65.1887L66.891 148.837H66.9682L68.6754 143.334H70.532ZM74.7674 150.886C74.0247 150.886 73.3833 150.732 72.8432 150.423C72.3063 150.111 71.8932 149.671 71.6038 149.102C71.3145 148.53 71.1698 147.856 71.1698 147.081C71.1698 146.319 71.3145 145.65 71.6038 145.075C71.8964 144.496 72.3047 144.046 72.8288 143.725C73.3528 143.4 73.9685 143.238 74.6758 143.238C75.1323 143.238 75.5631 143.312 75.9682 143.459C76.3765 143.604 76.7366 143.829 77.0485 144.135C77.3635 144.44 77.6111 144.829 77.7911 145.302C77.9712 145.771 78.0612 146.33 78.0612 146.98V147.515H71.9896V146.338H76.3878C76.3846 146.004 76.3122 145.707 76.1708 145.446C76.0293 145.183 75.8316 144.975 75.5776 144.824C75.3268 144.673 75.0343 144.598 74.6999 144.598C74.343 144.598 74.0296 144.684 73.7595 144.858C73.4894 145.028 73.2789 145.253 73.1278 145.533C72.9799 145.81 72.9043 146.113 72.9011 146.445V147.472C72.9011 147.903 72.9799 148.272 73.1374 148.581C73.2949 148.886 73.5152 149.121 73.7981 149.285C74.081 149.446 74.4122 149.526 74.7915 149.526C75.0455 149.526 75.2754 149.491 75.4811 149.42C75.6869 149.346 75.8653 149.238 76.0164 149.097C76.1676 148.956 76.2817 148.78 76.3588 148.571L77.9889 148.755C77.886 149.185 77.6899 149.562 77.4005 149.883C77.1144 150.201 76.7479 150.449 76.301 150.626C75.8541 150.799 75.3429 150.886 74.7674 150.886ZM81.2839 140.865V150.741H79.5381V140.865H81.2839ZM86.3101 150.886C85.5868 150.886 84.9598 150.727 84.4294 150.409C83.8989 150.09 83.4874 149.645 83.1948 149.073C82.9054 148.501 82.7608 147.832 82.7608 147.067C82.7608 146.302 82.9054 145.631 83.1948 145.056C83.4874 144.48 83.8989 144.033 84.4294 143.715C84.9598 143.397 85.5868 143.238 86.3101 143.238C87.0335 143.238 87.6605 143.397 88.1909 143.715C88.7214 144.033 89.1313 144.48 89.4207 145.056C89.7132 145.631 89.8595 146.302 89.8595 147.067C89.8595 147.832 89.7132 148.501 89.4207 149.073C89.1313 149.645 88.7214 150.09 88.1909 150.409C87.6605 150.727 87.0335 150.886 86.3101 150.886ZM86.3198 149.488C86.712 149.488 87.04 149.38 87.3036 149.164C87.5672 148.946 87.7633 148.653 87.8919 148.287C88.0237 147.92 88.0897 147.512 88.0897 147.062C88.0897 146.609 88.0237 146.199 87.8919 145.832C87.7633 145.462 87.5672 145.168 87.3036 144.95C87.04 144.731 86.712 144.622 86.3198 144.622C85.9179 144.622 85.5835 144.731 85.3167 144.95C85.0531 145.168 84.8553 145.462 84.7235 145.832C84.5949 146.199 84.5306 146.609 84.5306 147.062C84.5306 147.512 84.5949 147.92 84.7235 148.287C84.8553 148.653 85.0531 148.946 85.3167 149.164C85.5835 149.38 85.9179 149.488 86.3198 149.488ZM91.3412 153.519V143.334H93.0581V144.559H93.1593C93.2494 144.379 93.3764 144.188 93.5403 143.985C93.7043 143.779 93.9261 143.604 94.2058 143.459C94.4855 143.312 94.8424 143.238 95.2764 143.238C95.8487 143.238 96.3647 143.384 96.8245 143.676C97.2874 143.966 97.6539 144.395 97.924 144.964C98.1973 145.53 98.3339 146.224 98.3339 147.047C98.3339 147.861 98.2005 148.552 97.9336 149.121C97.6668 149.69 97.3035 150.124 96.8438 150.423C96.384 150.722 95.8632 150.872 95.2813 150.872C94.8569 150.872 94.5048 150.801 94.2251 150.659C93.9454 150.518 93.7204 150.348 93.55 150.148C93.3828 149.946 93.2526 149.754 93.1593 149.574H93.087V153.519H91.3412ZM93.0532 147.038C93.0532 147.517 93.1208 147.936 93.2558 148.296C93.394 148.657 93.5918 148.938 93.849 149.14C94.1094 149.34 94.4245 149.439 94.7942 149.439C95.18 149.439 95.5031 149.336 95.7635 149.131C96.0239 148.922 96.22 148.637 96.3519 148.277C96.4869 147.914 96.5544 147.501 96.5544 147.038C96.5544 146.578 96.4885 146.17 96.3567 145.813C96.2249 145.456 96.0287 145.176 95.7683 144.974C95.5079 144.771 95.1832 144.67 94.7942 144.67C94.4212 144.67 94.1046 144.768 93.8441 144.964C93.5837 145.16 93.386 145.435 93.251 145.789C93.1192 146.142 93.0532 146.559 93.0532 147.038ZM99.8289 150.741V143.334H101.497V144.593H101.584C101.739 144.168 101.994 143.837 102.351 143.599C102.708 143.358 103.134 143.238 103.629 143.238C104.131 143.238 104.553 143.36 104.897 143.604C105.245 143.845 105.489 144.175 105.63 144.593H105.708C105.872 144.181 106.148 143.853 106.537 143.609C106.929 143.361 107.394 143.238 107.931 143.238C108.612 143.238 109.169 143.453 109.599 143.884C110.03 144.315 110.246 144.943 110.246 145.769V150.741H108.495V146.039C108.495 145.58 108.373 145.244 108.128 145.032C107.884 144.816 107.585 144.708 107.231 144.708C106.81 144.708 106.481 144.84 106.243 145.104C106.008 145.364 105.891 145.704 105.891 146.121V150.741H104.179V145.967C104.179 145.585 104.063 145.279 103.832 145.051C103.603 144.823 103.304 144.708 102.935 144.708C102.684 144.708 102.456 144.773 102.25 144.901C102.044 145.027 101.88 145.205 101.758 145.437C101.636 145.665 101.575 145.932 101.575 146.237V150.741H99.8289ZM115.296 150.886C114.553 150.886 113.912 150.732 113.372 150.423C112.835 150.111 112.422 149.671 112.132 149.102C111.843 148.53 111.698 147.856 111.698 147.081C111.698 146.319 111.843 145.65 112.132 145.075C112.425 144.496 112.833 144.046 113.357 143.725C113.881 143.4 114.497 143.238 115.204 143.238C115.661 143.238 116.092 143.312 116.497 143.459C116.905 143.604 117.265 143.829 117.577 144.135C117.892 144.44 118.14 144.829 118.32 145.302C118.5 145.771 118.59 146.33 118.59 146.98V147.515H112.518V146.338H116.916C116.913 146.004 116.841 145.707 116.699 145.446C116.558 145.183 116.36 144.975 116.106 144.824C115.855 144.673 115.563 144.598 115.228 144.598C114.872 144.598 114.558 144.684 114.288 144.858C114.018 145.028 113.807 145.253 113.656 145.533C113.508 145.81 113.433 146.113 113.43 146.445V147.472C113.43 147.903 113.508 148.272 113.666 148.581C113.823 148.886 114.044 149.121 114.327 149.285C114.61 149.446 114.941 149.526 115.32 149.526C115.574 149.526 115.804 149.491 116.01 149.42C116.215 149.346 116.394 149.238 116.545 149.097C116.696 148.956 116.81 148.78 116.887 148.571L118.517 148.755C118.415 149.185 118.218 149.562 117.929 149.883C117.643 150.201 117.276 150.449 116.83 150.626C116.383 150.799 115.871 150.886 115.296 150.886ZM121.812 146.401V150.741H120.067V143.334H121.735V144.593H121.822C121.992 144.178 122.264 143.848 122.637 143.604C123.013 143.36 123.478 143.238 124.031 143.238C124.542 143.238 124.987 143.347 125.367 143.566C125.749 143.784 126.045 144.101 126.254 144.516C126.466 144.93 126.571 145.433 126.567 146.025V150.741H124.822V146.295C124.822 145.8 124.693 145.413 124.436 145.133C124.182 144.853 123.83 144.713 123.38 144.713C123.074 144.713 122.803 144.781 122.565 144.916C122.33 145.048 122.145 145.239 122.01 145.49C121.878 145.74 121.812 146.044 121.812 146.401ZM132.041 143.334V144.684H127.783V143.334H132.041ZM128.834 141.559H130.58V148.513C130.58 148.748 130.615 148.928 130.686 149.054C130.76 149.176 130.856 149.259 130.975 149.304C131.094 149.349 131.226 149.372 131.371 149.372C131.48 149.372 131.58 149.364 131.67 149.348C131.763 149.332 131.834 149.317 131.882 149.304L132.176 150.669C132.083 150.701 131.949 150.737 131.776 150.775C131.605 150.814 131.396 150.836 131.149 150.843C130.712 150.856 130.318 150.79 129.967 150.645C129.617 150.497 129.339 150.269 129.133 149.96C128.93 149.652 128.831 149.266 128.834 148.803V141.559ZM136.947 140.865H139.136L142.068 148.022H142.184L145.116 140.865H147.306V150.741H145.589V143.956H145.497L142.768 150.713H141.485L138.755 143.942H138.664V150.741H136.947V140.865ZM150.575 140.865L153.146 148.639H153.247L155.812 140.865H157.78L154.298 150.741H152.089L148.612 140.865H150.575ZM159.081 150.741V140.865H162.785C163.543 140.865 164.18 141.006 164.694 141.289C165.212 141.572 165.603 141.961 165.866 142.456C166.133 142.948 166.266 143.508 166.266 144.135C166.266 144.768 166.133 145.331 165.866 145.822C165.599 146.314 165.206 146.702 164.685 146.985C164.164 147.264 163.522 147.404 162.761 147.404H160.306V145.933H162.519C162.963 145.933 163.326 145.856 163.609 145.702C163.892 145.548 164.101 145.335 164.236 145.065C164.374 144.795 164.444 144.485 164.444 144.135C164.444 143.784 164.374 143.476 164.236 143.209C164.101 142.942 163.891 142.734 163.604 142.587C163.322 142.435 162.957 142.36 162.51 142.36H160.87V150.741H159.081ZM52.8538 164.334L50.2159 171.741H48.2869L45.649 164.334H47.5105L49.2128 169.837H49.29L50.9972 164.334H52.8538ZM57.0892 171.886C56.3466 171.886 55.7052 171.732 55.165 171.423C54.6281 171.111 54.215 170.671 53.9256 170.102C53.6363 169.53 53.4916 168.856 53.4916 168.081C53.4916 167.319 53.6363 166.65 53.9256 166.075C54.2182 165.496 54.6265 165.046 55.1506 164.725C55.6746 164.4 56.2903 164.238 56.9976 164.238C57.4541 164.238 57.8849 164.312 58.29 164.459C58.6983 164.604 59.0584 164.829 59.3703 165.135C59.6854 165.44 59.9329 165.829 60.1129 166.302C60.293 166.771 60.383 167.33 60.383 167.98V168.515H54.3114V167.338H58.7096C58.7064 167.004 58.634 166.707 58.4926 166.446C58.3511 166.183 58.1534 165.975 57.8994 165.824C57.6486 165.673 57.3561 165.598 57.0217 165.598C56.6648 165.598 56.3514 165.684 56.0813 165.858C55.8113 166.028 55.6007 166.253 55.4496 166.533C55.3017 166.81 55.2261 167.113 55.2229 167.445V168.472C55.2229 168.903 55.3017 169.272 55.4592 169.581C55.6167 169.886 55.837 170.121 56.1199 170.285C56.4028 170.446 56.734 170.526 57.1133 170.526C57.3673 170.526 57.5972 170.491 57.803 170.42C58.0087 170.346 58.1872 170.238 58.3383 170.097C58.4894 169.956 58.6035 169.78 58.6807 169.571L60.3107 169.755C60.2078 170.185 60.0117 170.562 59.7223 170.883C59.4362 171.201 59.0697 171.449 58.6228 171.626C58.1759 171.799 57.6647 171.886 57.0892 171.886ZM61.8599 171.741V164.334H63.5526V165.569H63.6298C63.7648 165.141 63.9963 164.811 64.3242 164.58C64.6554 164.345 65.0331 164.228 65.4575 164.228C65.554 164.228 65.6617 164.233 65.7806 164.242C65.9028 164.249 66.0041 164.26 66.0844 164.276V165.882C66.0105 165.856 65.8932 165.834 65.7324 165.815C65.5749 165.792 65.4222 165.781 65.2743 165.781C64.956 165.781 64.6698 165.85 64.4159 165.988C64.1651 166.123 63.9674 166.311 63.8227 166.552C63.678 166.794 63.6057 167.072 63.6057 167.387V171.741H61.8599ZM73.0988 166.292L71.5074 166.466C71.4624 166.305 71.3836 166.154 71.2711 166.012C71.1618 165.871 71.0139 165.757 70.8274 165.67C70.6409 165.583 70.4127 165.54 70.1426 165.54C69.7793 165.54 69.4739 165.618 69.2263 165.776C68.982 165.934 68.8614 166.138 68.8646 166.388C68.8614 166.604 68.9402 166.779 69.1009 166.914C69.2649 167.049 69.535 167.16 69.9111 167.247L71.1746 167.517C71.8755 167.668 72.3963 167.908 72.7371 168.235C73.0811 168.563 73.2547 168.993 73.258 169.523C73.2547 169.989 73.1181 170.401 72.848 170.758C72.5812 171.111 72.2099 171.388 71.734 171.587C71.2582 171.786 70.7117 171.886 70.0944 171.886C69.1877 171.886 68.4579 171.696 67.905 171.317C67.352 170.934 67.0224 170.402 66.9163 169.721L68.6187 169.557C68.6958 169.891 68.8598 170.144 69.1106 170.314C69.3614 170.484 69.6877 170.57 70.0896 170.57C70.5043 170.57 70.8371 170.484 71.0878 170.314C71.3418 170.144 71.4688 169.933 71.4688 169.682C71.4688 169.47 71.3868 169.295 71.2229 169.157C71.0621 169.018 70.8113 168.912 70.4705 168.838L69.207 168.573C68.4965 168.425 67.9709 168.176 67.6301 167.826C67.2893 167.472 67.1205 167.025 67.1237 166.485C67.1205 166.028 67.2443 165.633 67.495 165.299C67.749 164.961 68.1011 164.701 68.5512 164.517C69.0045 164.331 69.5269 164.238 70.1185 164.238C70.9866 164.238 71.6697 164.422 72.1681 164.792C72.6696 165.162 72.9799 165.662 73.0988 166.292ZM74.6975 171.741V164.334H76.4432V171.741H74.6975ZM75.5752 163.283C75.2987 163.283 75.0608 163.191 74.8615 163.008C74.6621 162.821 74.5625 162.598 74.5625 162.338C74.5625 162.074 74.6621 161.85 74.8615 161.667C75.0608 161.481 75.2987 161.387 75.5752 161.387C75.8549 161.387 76.0928 161.481 76.2889 161.667C76.4883 161.85 76.5879 162.074 76.5879 162.338C76.5879 162.598 76.4883 162.821 76.2889 163.008C76.0928 163.191 75.8549 163.283 75.5752 163.283ZM81.4695 171.886C80.7461 171.886 80.1192 171.727 79.5887 171.409C79.0583 171.09 78.6467 170.645 78.3542 170.073C78.0648 169.501 77.9201 168.832 77.9201 168.067C77.9201 167.302 78.0648 166.631 78.3542 166.056C78.6467 165.48 79.0583 165.033 79.5887 164.715C80.1192 164.397 80.7461 164.238 81.4695 164.238C82.1929 164.238 82.8198 164.397 83.3503 164.715C83.8808 165.033 84.2907 165.48 84.5801 166.056C84.8726 166.631 85.0189 167.302 85.0189 168.067C85.0189 168.832 84.8726 169.501 84.5801 170.073C84.2907 170.645 83.8808 171.09 83.3503 171.409C82.8198 171.727 82.1929 171.886 81.4695 171.886ZM81.4792 170.488C81.8714 170.488 82.1993 170.38 82.463 170.164C82.7266 169.946 82.9227 169.653 83.0513 169.287C83.1831 168.92 83.249 168.512 83.249 168.062C83.249 167.609 83.1831 167.199 83.0513 166.832C82.9227 166.462 82.7266 166.168 82.463 165.95C82.1993 165.731 81.8714 165.622 81.4792 165.622C81.0773 165.622 80.7429 165.731 80.4761 165.95C80.2125 166.168 80.0147 166.462 79.8829 166.832C79.7543 167.199 79.69 167.609 79.69 168.062C79.69 168.512 79.7543 168.92 79.8829 169.287C80.0147 169.653 80.2125 169.946 80.4761 170.164C80.7429 170.38 81.0773 170.488 81.4792 170.488ZM88.2464 167.401V171.741H86.5006V164.334H88.1692V165.593H88.256C88.4264 165.178 88.6981 164.848 89.071 164.604C89.4472 164.36 89.9118 164.238 90.4648 164.238C90.9759 164.238 91.4212 164.347 91.8006 164.566C92.1832 164.784 92.479 165.101 92.6879 165.516C92.9001 165.93 93.0046 166.433 93.0014 167.025V171.741H91.2556V167.295C91.2556 166.8 91.127 166.413 90.8698 166.133C90.6159 165.853 90.2638 165.713 89.8137 165.713C89.5083 165.713 89.2366 165.781 88.9987 165.916C88.764 166.048 88.5791 166.239 88.4441 166.49C88.3123 166.74 88.2464 167.044 88.2464 167.401Z" fill="white"/>
</g>
<g clip-path="url(#clip2_217_11024)">
<rect x="59.4756" y="198.611" width="175.683" height="70.1793" rx="6.78445" fill="#01D1B8"/>
<line x1="60.7625" y1="321.274" x2="273.138" y2="215.246" stroke="white" stroke-opacity="0.11" stroke-width="13.5689"/>
<line x1="72.8836" y1="345.554" x2="285.259" y2="239.526" stroke="white" stroke-opacity="0.11" stroke-width="13.5689"/>
<line x1="85.0057" y1="369.834" x2="297.381" y2="263.806" stroke="white" stroke-opacity="0.11" stroke-width="13.5689"/>
<line x1="47.7117" y1="296.704" x2="260.087" y2="190.675" stroke="white" stroke-opacity="0.11" stroke-width="13.5689"/>
<line x1="-13.4343" y1="267.361" x2="198.941" y2="161.333" stroke="white" stroke-opacity="0.11" stroke-width="13.5689"/>
<line x1="-13.4343" y1="236.831" x2="198.941" y2="130.803" stroke="white" stroke-opacity="0.11" stroke-width="13.5689"/>
<line x1="35.5897" y1="272.424" x2="247.965" y2="166.396" stroke="white" stroke-opacity="0.11" stroke-width="13.5689"/>
<path d="M78.6771 230.573H76.769L80.2431 220.704H82.45L85.929 230.573H84.0208L81.3851 222.728H81.308L78.6771 230.573ZM78.7398 226.703H83.9438V228.139H78.7398V226.703ZM88.896 220.704V230.573H87.1517V220.704H88.896ZM90.6897 233.348V223.171H92.405V224.395H92.5062C92.5962 224.215 92.7231 224.024 92.8869 223.822C93.0507 223.616 93.2724 223.441 93.5518 223.297C93.8313 223.149 94.1879 223.075 94.6216 223.075C95.1934 223.075 95.7089 223.221 96.1683 223.514C96.6309 223.803 96.9971 224.231 97.2669 224.8C97.54 225.365 97.6765 226.059 97.6765 226.882C97.6765 227.694 97.5432 228.385 97.2765 228.954C97.0099 229.522 96.6469 229.956 96.1876 230.255C95.7282 230.553 95.2078 230.703 94.6264 230.703C94.2023 230.703 93.8506 230.632 93.5711 230.491C93.2916 230.349 93.0668 230.179 92.8965 229.98C92.7295 229.778 92.5994 229.586 92.5062 229.407H92.434V233.348H90.6897ZM92.4002 226.872C92.4002 227.351 92.4677 227.77 92.6026 228.13C92.7407 228.489 92.9383 228.771 93.1953 228.973C93.4555 229.172 93.7703 229.272 94.1397 229.272C94.5252 229.272 94.848 229.169 95.1082 228.963C95.3684 228.754 95.5644 228.47 95.6961 228.11C95.831 227.747 95.8985 227.335 95.8985 226.872C95.8985 226.413 95.8326 226.005 95.7009 225.648C95.5692 225.292 95.3732 225.012 95.113 224.81C94.8528 224.607 94.5284 224.506 94.1397 224.506C93.7671 224.506 93.4507 224.604 93.1905 224.8C92.9303 224.996 92.7327 225.271 92.5978 225.624C92.4661 225.977 92.4002 226.393 92.4002 226.872ZM100.915 226.236V230.573H99.1702V220.704H100.876V224.429H100.963C101.136 224.011 101.404 223.682 101.767 223.441C102.134 223.197 102.599 223.075 103.165 223.075C103.679 223.075 104.127 223.183 104.509 223.398C104.891 223.613 105.187 223.928 105.396 224.342C105.608 224.757 105.714 225.263 105.714 225.86V230.573H103.969V226.13C103.969 225.632 103.841 225.245 103.584 224.969C103.33 224.689 102.974 224.55 102.514 224.55C102.206 224.55 101.93 224.617 101.685 224.752C101.445 224.884 101.255 225.075 101.117 225.325C100.982 225.576 100.915 225.879 100.915 226.236ZM109.622 230.722C109.153 230.722 108.73 230.638 108.354 230.471C107.982 230.301 107.686 230.051 107.468 229.72C107.252 229.389 107.145 228.981 107.145 228.496C107.145 228.078 107.222 227.733 107.376 227.46C107.53 227.187 107.741 226.968 108.007 226.805C108.274 226.641 108.574 226.517 108.908 226.434C109.246 226.347 109.594 226.284 109.954 226.246C110.388 226.201 110.739 226.16 111.009 226.125C111.279 226.087 111.475 226.029 111.597 225.952C111.722 225.871 111.785 225.748 111.785 225.581V225.552C111.785 225.189 111.677 224.908 111.462 224.709C111.247 224.509 110.937 224.41 110.532 224.41C110.105 224.41 109.766 224.503 109.516 224.689C109.268 224.876 109.101 225.096 109.014 225.349L107.386 225.118C107.514 224.668 107.726 224.293 108.022 223.991C108.317 223.685 108.679 223.457 109.106 223.306C109.533 223.152 110.005 223.075 110.523 223.075C110.879 223.075 111.234 223.117 111.588 223.2C111.941 223.284 112.264 223.422 112.556 223.615C112.848 223.804 113.083 224.063 113.26 224.39C113.439 224.718 113.529 225.128 113.529 225.619V230.573H111.853V229.556H111.795C111.689 229.762 111.539 229.954 111.347 230.134C111.157 230.311 110.918 230.454 110.629 230.563C110.343 230.669 110.007 230.722 109.622 230.722ZM110.074 229.44C110.425 229.44 110.728 229.371 110.985 229.233C111.242 229.092 111.44 228.905 111.578 228.674C111.719 228.443 111.79 228.191 111.79 227.918V227.045C111.735 227.09 111.642 227.132 111.51 227.171C111.382 227.209 111.237 227.243 111.077 227.272C110.916 227.301 110.757 227.327 110.6 227.349C110.442 227.372 110.306 227.391 110.19 227.407C109.93 227.442 109.697 227.5 109.491 227.58C109.286 227.661 109.124 227.773 109.005 227.918C108.886 228.059 108.827 228.242 108.827 228.467C108.827 228.788 108.944 229.031 109.178 229.195C109.413 229.358 109.712 229.44 110.074 229.44ZM122.345 223.171V224.521H118.09V223.171H122.345ZM119.141 221.398H120.885V228.346C120.885 228.581 120.92 228.761 120.991 228.886C121.065 229.008 121.161 229.092 121.28 229.137C121.399 229.182 121.53 229.204 121.675 229.204C121.784 229.204 121.884 229.196 121.974 229.18C122.067 229.164 122.138 229.15 122.186 229.137L122.48 230.5C122.387 230.532 122.253 230.568 122.08 230.606C121.91 230.645 121.701 230.667 121.453 230.674C121.017 230.687 120.623 230.621 120.273 230.476C119.923 230.328 119.645 230.1 119.439 229.792C119.237 229.484 119.137 229.098 119.141 228.636V221.398ZM127.001 230.717C126.259 230.717 125.618 230.563 125.078 230.255C124.542 229.943 124.129 229.503 123.84 228.934C123.551 228.363 123.406 227.69 123.406 226.915C123.406 226.154 123.551 225.486 123.84 224.911C124.132 224.333 124.54 223.883 125.064 223.562C125.587 223.237 126.202 223.075 126.909 223.075C127.365 223.075 127.796 223.149 128.201 223.297C128.608 223.441 128.968 223.666 129.28 223.971C129.595 224.276 129.842 224.665 130.022 225.137C130.202 225.606 130.292 226.165 130.292 226.814V227.349H124.225V226.173H128.62C128.616 225.839 128.544 225.542 128.403 225.282C128.262 225.019 128.064 224.811 127.81 224.66C127.56 224.509 127.267 224.434 126.933 224.434C126.577 224.434 126.263 224.521 125.994 224.694C125.724 224.864 125.513 225.089 125.362 225.369C125.215 225.645 125.139 225.948 125.136 226.279V227.306C125.136 227.736 125.215 228.106 125.372 228.414C125.529 228.719 125.749 228.954 126.032 229.117C126.315 229.278 126.646 229.358 127.025 229.358C127.279 229.358 127.508 229.323 127.714 229.252C127.919 229.178 128.098 229.071 128.249 228.93C128.4 228.788 128.514 228.613 128.591 228.404L130.219 228.587C130.117 229.018 129.921 229.394 129.632 229.715C129.346 230.033 128.979 230.28 128.533 230.457C128.086 230.63 127.576 230.717 127.001 230.717ZM137.617 225.128L136.027 225.301C135.982 225.141 135.903 224.99 135.791 224.848C135.682 224.707 135.534 224.593 135.348 224.506C135.161 224.419 134.933 224.376 134.663 224.376C134.3 224.376 133.995 224.455 133.748 224.612C133.504 224.77 133.383 224.974 133.386 225.224C133.383 225.439 133.462 225.614 133.623 225.749C133.786 225.884 134.056 225.995 134.432 226.082L135.694 226.352C136.395 226.503 136.915 226.742 137.256 227.07C137.599 227.397 137.773 227.826 137.776 228.356C137.773 228.822 137.636 229.233 137.366 229.59C137.1 229.943 136.729 230.219 136.253 230.418C135.778 230.618 135.232 230.717 134.615 230.717C133.709 230.717 132.98 230.528 132.428 230.149C131.875 229.766 131.546 229.235 131.44 228.554L133.141 228.39C133.218 228.724 133.382 228.976 133.632 229.146C133.883 229.317 134.209 229.402 134.61 229.402C135.025 229.402 135.357 229.317 135.608 229.146C135.862 228.976 135.988 228.766 135.988 228.515C135.988 228.303 135.906 228.128 135.743 227.99C135.582 227.852 135.331 227.746 134.991 227.672L133.729 227.407C133.019 227.259 132.493 227.01 132.153 226.66C131.812 226.307 131.644 225.86 131.647 225.32C131.644 224.864 131.767 224.469 132.018 224.135C132.272 223.798 132.623 223.538 133.073 223.355C133.526 223.168 134.048 223.075 134.639 223.075C135.507 223.075 136.189 223.26 136.687 223.629C137.188 223.999 137.498 224.498 137.617 225.128ZM142.91 223.171V224.521H138.655V223.171H142.91ZM139.706 221.398H141.45V228.346C141.45 228.581 141.486 228.761 141.556 228.886C141.63 229.008 141.726 229.092 141.845 229.137C141.964 229.182 142.096 229.204 142.24 229.204C142.35 229.204 142.449 229.196 142.539 229.18C142.632 229.164 142.703 229.15 142.751 229.137L143.045 230.5C142.952 230.532 142.819 230.568 142.645 230.606C142.475 230.645 142.266 230.667 142.019 230.674C141.582 230.687 141.188 230.621 140.838 230.476C140.488 230.328 140.21 230.1 140.005 229.792C139.802 229.484 139.703 229.098 139.706 228.636V221.398ZM144.369 230.573V223.171H146.113V230.573H144.369ZM145.246 222.121C144.97 222.121 144.732 222.029 144.533 221.846C144.334 221.66 144.234 221.437 144.234 221.177C144.234 220.913 144.334 220.69 144.533 220.507C144.732 220.32 144.97 220.227 145.246 220.227C145.525 220.227 145.763 220.32 145.959 220.507C146.158 220.69 146.258 220.913 146.258 221.177C146.258 221.437 146.158 221.66 145.959 221.846C145.763 222.029 145.525 222.121 145.246 222.121ZM149.651 226.236V230.573H147.907V223.171H149.574V224.429H149.661C149.831 224.015 150.103 223.685 150.475 223.441C150.851 223.197 151.315 223.075 151.868 223.075C152.379 223.075 152.823 223.184 153.203 223.403C153.585 223.621 153.88 223.938 154.089 224.352C154.301 224.766 154.406 225.269 154.402 225.86V230.573H152.658V226.13C152.658 225.635 152.53 225.248 152.273 224.969C152.019 224.689 151.667 224.55 151.217 224.55C150.912 224.55 150.641 224.617 150.403 224.752C150.168 224.884 149.984 225.075 149.849 225.325C149.717 225.576 149.651 225.879 149.651 226.236ZM159.394 233.502C158.768 233.502 158.23 233.417 157.78 233.247C157.33 233.08 156.969 232.855 156.696 232.572C156.423 232.29 156.233 231.976 156.127 231.633L157.698 231.252C157.769 231.397 157.872 231.54 158.007 231.681C158.141 231.825 158.323 231.944 158.551 232.037C158.782 232.134 159.073 232.182 159.423 232.182C159.918 232.182 160.327 232.062 160.652 231.821C160.976 231.583 161.139 231.191 161.139 230.645V229.243H161.052C160.962 229.423 160.83 229.607 160.657 229.797C160.486 229.986 160.26 230.145 159.977 230.274C159.698 230.402 159.346 230.467 158.922 230.467C158.353 230.467 157.838 230.333 157.375 230.067C156.916 229.797 156.55 229.395 156.277 228.862C156.007 228.326 155.872 227.654 155.872 226.848C155.872 226.035 156.007 225.349 156.277 224.79C156.55 224.228 156.918 223.803 157.38 223.514C157.843 223.221 158.358 223.075 158.927 223.075C159.361 223.075 159.717 223.149 159.997 223.297C160.279 223.441 160.504 223.616 160.671 223.822C160.838 224.024 160.965 224.215 161.052 224.395H161.148V223.171H162.868V230.693C162.868 231.326 162.717 231.85 162.415 232.264C162.114 232.678 161.701 232.988 161.177 233.194C160.654 233.399 160.059 233.502 159.394 233.502ZM159.409 229.098C159.778 229.098 160.093 229.008 160.353 228.828C160.613 228.648 160.811 228.39 160.946 228.053C161.081 227.715 161.148 227.311 161.148 226.838C161.148 226.373 161.081 225.965 160.946 225.614C160.814 225.264 160.618 224.993 160.358 224.8C160.101 224.604 159.785 224.506 159.409 224.506C159.02 224.506 158.696 224.607 158.435 224.81C158.175 225.012 157.979 225.29 157.848 225.643C157.716 225.993 157.65 226.392 157.65 226.838C157.65 227.291 157.716 227.688 157.848 228.028C157.982 228.366 158.18 228.629 158.44 228.819C158.704 229.005 159.026 229.098 159.409 229.098Z" fill="white"/>
</g>
<g clip-path="url(#clip3_217_11024)">
<rect x="96.0762" y="278.398" width="177.428" height="70.8765" rx="6.85185" fill="#9878F6"/>
<line x1="97.3765" y1="402.278" x2="311.862" y2="295.197" stroke="white" stroke-opacity="0.11" stroke-width="13.7037"/>
<line x1="109.618" y1="426.8" x2="324.103" y2="319.718" stroke="white" stroke-opacity="0.11" stroke-width="13.7037"/>
<line x1="121.86" y1="451.321" x2="336.345" y2="344.24" stroke="white" stroke-opacity="0.11" stroke-width="13.7037"/>
<line x1="84.1953" y1="377.464" x2="298.681" y2="270.382" stroke="white" stroke-opacity="0.11" stroke-width="13.7037"/>
<line x1="22.4414" y1="347.83" x2="236.927" y2="240.749" stroke="white" stroke-opacity="0.11" stroke-width="13.7037"/>
<line x1="22.4414" y1="316.997" x2="236.927" y2="209.915" stroke="white" stroke-opacity="0.11" stroke-width="13.7037"/>
<line x1="71.9531" y1="352.943" x2="286.438" y2="245.862" stroke="white" stroke-opacity="0.11" stroke-width="13.7037"/>
<path d="M114.189 310.527V300.561H118.004C118.725 300.561 119.323 300.675 119.8 300.902C120.28 301.126 120.639 301.432 120.875 301.822C121.116 302.211 121.236 302.652 121.236 303.145C121.236 303.551 121.158 303.898 121.002 304.187C120.846 304.472 120.637 304.704 120.374 304.882C120.111 305.061 119.818 305.189 119.493 305.267V305.364C119.847 305.384 120.186 305.492 120.51 305.69C120.838 305.885 121.106 306.161 121.313 306.518C121.521 306.874 121.625 307.306 121.625 307.812C121.625 308.328 121.5 308.792 121.25 309.204C121 309.613 120.624 309.935 120.121 310.172C119.618 310.409 118.986 310.527 118.223 310.527H114.189ZM115.994 309.019H117.936C118.592 309.019 119.064 308.894 119.352 308.644C119.644 308.391 119.79 308.067 119.79 307.671C119.79 307.376 119.717 307.11 119.571 306.873C119.425 306.633 119.218 306.445 118.948 306.308C118.679 306.169 118.358 306.099 117.985 306.099H115.994V309.019ZM115.994 304.8H117.78C118.092 304.8 118.373 304.743 118.622 304.629C118.872 304.513 119.068 304.349 119.211 304.138C119.357 303.924 119.43 303.671 119.43 303.379C119.43 302.993 119.294 302.675 119.021 302.425C118.752 302.175 118.351 302.05 117.819 302.05H115.994V304.8ZM126.427 310.673C125.677 310.673 125.03 310.518 124.485 310.206C123.943 309.892 123.526 309.447 123.234 308.873C122.942 308.295 122.796 307.616 122.796 306.834C122.796 306.065 122.942 305.39 123.234 304.809C123.53 304.226 123.942 303.771 124.47 303.447C124.999 303.119 125.621 302.955 126.334 302.955C126.795 302.955 127.23 303.03 127.638 303.179C128.051 303.325 128.414 303.552 128.729 303.861C129.047 304.169 129.296 304.561 129.478 305.038C129.66 305.512 129.751 306.076 129.751 306.732V307.272H123.624V306.084H128.062C128.059 305.747 127.986 305.447 127.843 305.184C127.7 304.918 127.501 304.709 127.244 304.556C126.991 304.404 126.696 304.328 126.359 304.328C125.999 304.328 125.682 304.415 125.41 304.59C125.137 304.762 124.925 304.99 124.772 305.272C124.623 305.551 124.547 305.857 124.543 306.192V307.228C124.543 307.663 124.623 308.036 124.782 308.347C124.941 308.656 125.163 308.892 125.449 309.058C125.734 309.22 126.068 309.301 126.451 309.301C126.707 309.301 126.939 309.265 127.147 309.194C127.355 309.119 127.535 309.011 127.687 308.868C127.84 308.725 127.955 308.548 128.033 308.338L129.678 308.523C129.574 308.957 129.376 309.337 129.084 309.661C128.795 309.982 128.425 310.232 127.974 310.411C127.523 310.586 127.007 310.673 126.427 310.673ZM134.973 303.053V304.415H130.676V303.053H134.973ZM131.737 301.262H133.499V308.279C133.499 308.516 133.535 308.698 133.606 308.824C133.681 308.948 133.778 309.032 133.898 309.077C134.018 309.123 134.151 309.145 134.297 309.145C134.407 309.145 134.508 309.137 134.599 309.121C134.693 309.105 134.764 309.09 134.813 309.077L135.11 310.454C135.016 310.487 134.881 310.523 134.706 310.562C134.534 310.6 134.323 310.623 134.073 310.63C133.632 310.643 133.234 310.576 132.881 310.43C132.527 310.281 132.247 310.051 132.039 309.739C131.835 309.428 131.734 309.038 131.737 308.571V301.262ZM138.598 310.678C138.124 310.678 137.697 310.594 137.318 310.425C136.941 310.253 136.643 310 136.422 309.666C136.205 309.332 136.096 308.92 136.096 308.43C136.096 308.008 136.174 307.66 136.33 307.384C136.486 307.108 136.698 306.887 136.967 306.722C137.237 306.557 137.54 306.432 137.877 306.347C138.218 306.26 138.57 306.196 138.933 306.157C139.371 306.112 139.727 306.071 139.999 306.036C140.272 305.997 140.469 305.938 140.593 305.861C140.719 305.78 140.783 305.655 140.783 305.486V305.457C140.783 305.09 140.674 304.806 140.457 304.605C140.239 304.404 139.926 304.303 139.517 304.303C139.086 304.303 138.744 304.397 138.491 304.586C138.241 304.774 138.072 304.996 137.984 305.252L136.34 305.019C136.469 304.565 136.683 304.185 136.982 303.88C137.28 303.572 137.645 303.341 138.077 303.189C138.508 303.033 138.985 302.955 139.508 302.955C139.868 302.955 140.226 302.998 140.583 303.082C140.94 303.166 141.266 303.306 141.561 303.5C141.856 303.692 142.093 303.953 142.272 304.284C142.453 304.615 142.544 305.028 142.544 305.525V310.527H140.851V309.501H140.792C140.685 309.708 140.534 309.903 140.34 310.085C140.148 310.263 139.907 310.407 139.615 310.518C139.326 310.625 138.987 310.678 138.598 310.678ZM139.055 309.384C139.409 309.384 139.715 309.314 139.975 309.175C140.234 309.032 140.434 308.844 140.573 308.61C140.716 308.377 140.787 308.122 140.787 307.846V306.965C140.732 307.011 140.638 307.053 140.505 307.092C140.375 307.131 140.229 307.165 140.067 307.194C139.905 307.223 139.744 307.249 139.585 307.272C139.426 307.295 139.289 307.314 139.172 307.33C138.909 307.366 138.674 307.424 138.466 307.505C138.259 307.587 138.095 307.7 137.975 307.846C137.855 307.989 137.795 308.174 137.795 308.401C137.795 308.725 137.913 308.97 138.15 309.136C138.387 309.301 138.688 309.384 139.055 309.384ZM151.447 303.053V304.415H147.15V303.053H151.447ZM148.211 301.262H149.973V308.279C149.973 308.516 150.008 308.698 150.08 308.824C150.154 308.948 150.252 309.032 150.372 309.077C150.492 309.123 150.625 309.145 150.771 309.145C150.881 309.145 150.982 309.137 151.073 309.121C151.167 309.105 151.238 309.09 151.287 309.077L151.583 310.454C151.489 310.487 151.355 310.523 151.18 310.562C151.008 310.6 150.797 310.623 150.547 310.63C150.106 310.643 149.708 310.576 149.355 310.43C149.001 310.281 148.72 310.051 148.513 309.739C148.308 309.428 148.208 309.038 148.211 308.571V301.262ZM156.149 310.673C155.4 310.673 154.753 310.518 154.208 310.206C153.666 309.892 153.249 309.447 152.957 308.873C152.665 308.295 152.519 307.616 152.519 306.834C152.519 306.065 152.665 305.39 152.957 304.809C153.252 304.226 153.664 303.771 154.193 303.447C154.722 303.119 155.343 302.955 156.057 302.955C156.518 302.955 156.952 303.03 157.361 303.179C157.773 303.325 158.136 303.552 158.451 303.861C158.769 304.169 159.019 304.561 159.201 305.038C159.382 305.512 159.473 306.076 159.473 306.732V307.272H153.346V306.084H157.784C157.781 305.747 157.708 305.447 157.565 305.184C157.423 304.918 157.223 304.709 156.967 304.556C156.714 304.404 156.419 304.328 156.081 304.328C155.721 304.328 155.405 304.415 155.132 304.59C154.86 304.762 154.647 304.99 154.495 305.272C154.346 305.551 154.269 305.857 154.266 306.192V307.228C154.266 307.663 154.346 308.036 154.505 308.347C154.663 308.656 154.886 308.892 155.171 309.058C155.457 309.22 155.791 309.301 156.174 309.301C156.43 309.301 156.662 309.265 156.87 309.194C157.077 309.119 157.257 309.011 157.41 308.868C157.562 308.725 157.677 308.548 157.755 308.338L159.4 308.523C159.296 308.957 159.098 309.337 158.806 309.661C158.518 309.982 158.148 310.232 157.697 310.411C157.246 310.586 156.73 310.673 156.149 310.673ZM166.871 305.028L165.265 305.204C165.22 305.041 165.14 304.889 165.027 304.746C164.917 304.603 164.767 304.488 164.579 304.401C164.391 304.313 164.161 304.269 163.888 304.269C163.522 304.269 163.213 304.349 162.963 304.508C162.717 304.667 162.595 304.873 162.599 305.126C162.595 305.343 162.675 305.52 162.837 305.656C163.002 305.792 163.275 305.904 163.655 305.992L164.93 306.265C165.637 306.417 166.162 306.659 166.506 306.99C166.853 307.321 167.029 307.754 167.032 308.289C167.029 308.759 166.891 309.175 166.618 309.535C166.349 309.892 165.974 310.171 165.494 310.372C165.014 310.573 164.462 310.673 163.839 310.673C162.925 310.673 162.188 310.482 161.63 310.099C161.072 309.713 160.74 309.176 160.633 308.488L162.35 308.323C162.428 308.66 162.594 308.915 162.847 309.087C163.1 309.259 163.429 309.345 163.835 309.345C164.253 309.345 164.589 309.259 164.842 309.087C165.098 308.915 165.226 308.703 165.226 308.45C165.226 308.235 165.144 308.059 164.978 307.919C164.816 307.78 164.563 307.673 164.219 307.598L162.944 307.33C162.227 307.181 161.697 306.93 161.353 306.576C161.009 306.219 160.839 305.768 160.842 305.223C160.839 304.762 160.963 304.363 161.216 304.026C161.473 303.685 161.828 303.423 162.282 303.238C162.74 303.049 163.267 302.955 163.864 302.955C164.74 302.955 165.429 303.142 165.932 303.515C166.438 303.888 166.751 304.393 166.871 305.028ZM172.217 303.053V304.415H167.92V303.053H172.217ZM168.981 301.262H170.742V308.279C170.742 308.516 170.778 308.698 170.849 308.824C170.924 308.948 171.021 309.032 171.141 309.077C171.261 309.123 171.394 309.145 171.54 309.145C171.651 309.145 171.751 309.137 171.842 309.121C171.936 309.105 172.008 309.09 172.056 309.077L172.353 310.454C172.259 310.487 172.124 310.523 171.949 310.562C171.777 310.6 171.566 310.623 171.317 310.63C170.875 310.643 170.478 310.576 170.124 310.43C169.771 310.281 169.49 310.051 169.282 309.739C169.078 309.428 168.978 309.038 168.981 308.571V301.262ZM173.69 310.527V303.053H175.452V310.527H173.69ZM174.576 301.992C174.297 301.992 174.057 301.899 173.856 301.714C173.655 301.526 173.554 301.301 173.554 301.038C173.554 300.772 173.655 300.547 173.856 300.362C174.057 300.173 174.297 300.079 174.576 300.079C174.858 300.079 175.098 300.173 175.296 300.362C175.497 300.547 175.598 300.772 175.598 301.038C175.598 301.301 175.497 301.526 175.296 301.714C175.098 301.899 174.858 301.992 174.576 301.992ZM179.025 306.148V310.527H177.263V303.053H178.947V304.323H179.035C179.207 303.904 179.481 303.572 179.857 303.325C180.237 303.079 180.705 302.955 181.263 302.955C181.779 302.955 182.229 303.066 182.611 303.286C182.998 303.507 183.296 303.826 183.507 304.245C183.721 304.663 183.826 305.171 183.823 305.768V310.527H182.062V306.041C182.062 305.541 181.932 305.15 181.672 304.868C181.416 304.586 181.061 304.445 180.607 304.445C180.298 304.445 180.024 304.513 179.784 304.649C179.547 304.782 179.361 304.975 179.224 305.228C179.091 305.481 179.025 305.788 179.025 306.148ZM188.865 313.486C188.232 313.486 187.689 313.4 187.235 313.228C186.78 313.06 186.415 312.833 186.14 312.547C185.864 312.262 185.672 311.945 185.565 311.598L187.152 311.214C187.223 311.36 187.327 311.504 187.463 311.647C187.6 311.793 187.783 311.913 188.013 312.007C188.247 312.104 188.54 312.153 188.894 312.153C189.394 312.153 189.807 312.031 190.135 311.788C190.463 311.548 190.626 311.152 190.626 310.6V309.184H190.539C190.448 309.366 190.315 309.553 190.14 309.744C189.968 309.935 189.739 310.096 189.454 310.226C189.171 310.356 188.816 310.42 188.388 310.42C187.814 310.42 187.293 310.286 186.826 310.016C186.362 309.744 185.992 309.338 185.716 308.8C185.444 308.258 185.307 307.58 185.307 306.766C185.307 305.945 185.444 305.252 185.716 304.688C185.992 304.12 186.363 303.69 186.831 303.398C187.298 303.103 187.818 302.955 188.393 302.955C188.831 302.955 189.191 303.03 189.473 303.179C189.759 303.325 189.986 303.502 190.154 303.71C190.323 303.914 190.451 304.107 190.539 304.289H190.636V303.053H192.373V310.649C192.373 311.288 192.221 311.817 191.916 312.236C191.611 312.654 191.194 312.967 190.665 313.175C190.137 313.382 189.536 313.486 188.865 313.486ZM188.879 309.038C189.252 309.038 189.57 308.948 189.833 308.766C190.096 308.584 190.295 308.323 190.432 307.982C190.568 307.642 190.636 307.233 190.636 306.756C190.636 306.286 190.568 305.874 190.432 305.52C190.299 305.166 190.101 304.892 189.838 304.698C189.578 304.5 189.259 304.401 188.879 304.401C188.487 304.401 188.159 304.503 187.896 304.707C187.634 304.912 187.436 305.192 187.303 305.549C187.17 305.903 187.103 306.305 187.103 306.756C187.103 307.213 187.17 307.614 187.303 307.958C187.439 308.299 187.638 308.565 187.901 308.756C188.167 308.944 188.493 309.038 188.879 309.038Z" fill="white"/>
</g>
<g clip-path="url(#clip4_217_11024)">
<rect x="132.677" y="358.852" width="177.428" height="70.8765" rx="6.85185" fill="#03DAE4"/>
<line x1="133.976" y1="482.733" x2="348.461" y2="375.652" stroke="white" stroke-opacity="0.11" stroke-width="13.7037"/>
<line x1="146.218" y1="507.255" x2="360.704" y2="400.174" stroke="white" stroke-opacity="0.11" stroke-width="13.7037"/>
<line x1="158.46" y1="531.776" x2="372.946" y2="424.695" stroke="white" stroke-opacity="0.11" stroke-width="13.7037"/>
<line x1="120.796" y1="457.919" x2="335.281" y2="350.838" stroke="white" stroke-opacity="0.11" stroke-width="13.7037"/>
<line x1="59.0425" y1="428.285" x2="273.528" y2="321.204" stroke="white" stroke-opacity="0.11" stroke-width="13.7037"/>
<line x1="59.0425" y1="397.452" x2="273.528" y2="290.37" stroke="white" stroke-opacity="0.11" stroke-width="13.7037"/>
<line x1="108.554" y1="433.398" x2="323.039" y2="326.316" stroke="white" stroke-opacity="0.11" stroke-width="13.7037"/>
<path d="M154.167 390.982H150.79V381.016H154.236C155.225 381.016 156.075 381.215 156.786 381.614C157.499 382.01 158.048 382.579 158.43 383.322C158.813 384.065 159.005 384.954 159.005 385.989C159.005 387.027 158.812 387.919 158.425 388.666C158.043 389.412 157.49 389.984 156.766 390.383C156.046 390.783 155.18 390.982 154.167 390.982ZM152.596 389.42H154.08C154.774 389.42 155.353 389.293 155.817 389.04C156.281 388.784 156.63 388.403 156.863 387.897C157.097 387.387 157.214 386.752 157.214 385.989C157.214 385.227 157.097 384.594 156.863 384.091C156.63 383.585 156.284 383.207 155.827 382.957C155.373 382.704 154.808 382.578 154.133 382.578H152.596V389.42ZM163.951 391.128C163.202 391.128 162.555 390.972 162.01 390.661C161.468 390.346 161.051 389.902 160.759 389.327C160.467 388.75 160.321 388.07 160.321 387.288C160.321 386.52 160.467 385.845 160.759 385.264C161.054 384.68 161.466 384.226 161.995 383.901C162.524 383.574 163.145 383.41 163.859 383.41C164.319 383.41 164.754 383.485 165.163 383.634C165.575 383.78 165.938 384.007 166.253 384.315C166.571 384.623 166.821 385.016 167.002 385.493C167.184 385.966 167.275 386.531 167.275 387.186V387.726H161.148V386.539H165.586C165.583 386.202 165.51 385.902 165.367 385.639C165.225 385.373 165.025 385.163 164.769 385.011C164.516 384.859 164.221 384.782 163.883 384.782C163.523 384.782 163.207 384.87 162.934 385.045C162.662 385.217 162.449 385.444 162.297 385.726C162.147 386.005 162.071 386.312 162.068 386.646V387.683C162.068 388.117 162.147 388.49 162.306 388.802C162.465 389.11 162.688 389.347 162.973 389.512C163.259 389.675 163.593 389.756 163.976 389.756C164.232 389.756 164.464 389.72 164.671 389.649C164.879 389.574 165.059 389.465 165.212 389.323C165.364 389.18 165.479 389.003 165.557 388.792L167.202 388.977C167.098 389.412 166.9 389.791 166.608 390.116C166.32 390.437 165.95 390.687 165.499 390.865C165.048 391.04 164.532 391.128 163.951 391.128ZM175.228 383.507L172.566 390.982H170.619L167.957 383.507H169.836L171.554 389.06H171.632L173.354 383.507H175.228ZM179.502 391.128C178.752 391.128 178.105 390.972 177.56 390.661C177.018 390.346 176.601 389.902 176.309 389.327C176.017 388.75 175.871 388.07 175.871 387.288C175.871 386.52 176.017 385.845 176.309 385.264C176.605 384.68 177.017 384.226 177.545 383.901C178.074 383.574 178.696 383.41 179.409 383.41C179.87 383.41 180.305 383.485 180.713 383.634C181.125 383.78 181.489 384.007 181.804 384.315C182.121 384.623 182.371 385.016 182.553 385.493C182.735 385.966 182.825 386.531 182.825 387.186V387.726H176.699V386.539H181.137C181.134 386.202 181.061 385.902 180.918 385.639C180.775 385.373 180.576 385.163 180.319 385.011C180.066 384.859 179.771 384.782 179.434 384.782C179.073 384.782 178.757 384.87 178.485 385.045C178.212 385.217 178 385.444 177.847 385.726C177.698 386.005 177.622 386.312 177.618 386.646V387.683C177.618 388.117 177.698 388.49 177.857 388.802C178.016 389.11 178.238 389.347 178.524 389.512C178.809 389.675 179.143 389.756 179.526 389.756C179.782 389.756 180.014 389.72 180.222 389.649C180.43 389.574 180.61 389.465 180.762 389.323C180.915 389.18 181.03 389.003 181.108 388.792L182.752 388.977C182.649 389.412 182.451 389.791 182.159 390.116C181.87 390.437 181.5 390.687 181.049 390.865C180.598 391.04 180.082 391.128 179.502 391.128ZM186.077 381.016V390.982H184.316V381.016H186.077ZM191.149 391.128C190.419 391.128 189.787 390.967 189.252 390.646C188.716 390.325 188.301 389.876 188.006 389.298C187.714 388.721 187.568 388.046 187.568 387.274C187.568 386.502 187.714 385.825 188.006 385.245C188.301 384.664 188.716 384.213 189.252 383.892C189.787 383.571 190.419 383.41 191.149 383.41C191.879 383.41 192.512 383.571 193.047 383.892C193.583 384.213 193.996 384.664 194.288 385.245C194.583 385.825 194.731 386.502 194.731 387.274C194.731 388.046 194.583 388.721 194.288 389.298C193.996 389.876 193.583 390.325 193.047 390.646C192.512 390.967 191.879 391.128 191.149 391.128ZM191.159 389.717C191.555 389.717 191.886 389.608 192.152 389.391C192.418 389.17 192.616 388.875 192.746 388.505C192.879 388.135 192.945 387.723 192.945 387.269C192.945 386.812 192.879 386.398 192.746 386.028C192.616 385.655 192.418 385.358 192.152 385.138C191.886 384.917 191.555 384.807 191.159 384.807C190.754 384.807 190.416 384.917 190.147 385.138C189.881 385.358 189.681 385.655 189.548 386.028C189.419 386.398 189.354 386.812 189.354 387.269C189.354 387.723 189.419 388.135 189.548 388.505C189.681 388.875 189.881 389.17 190.147 389.391C190.416 389.608 190.754 389.717 191.159 389.717ZM196.226 393.785V383.507H197.959V384.743H198.061C198.152 384.562 198.28 384.369 198.445 384.164C198.611 383.957 198.835 383.78 199.117 383.634C199.399 383.485 199.759 383.41 200.197 383.41C200.775 383.41 201.295 383.558 201.759 383.853C202.226 384.145 202.596 384.578 202.869 385.152C203.145 385.723 203.282 386.424 203.282 387.254C203.282 388.075 203.148 388.773 202.879 389.347C202.609 389.921 202.243 390.359 201.779 390.661C201.315 390.963 200.789 391.113 200.202 391.113C199.774 391.113 199.419 391.042 199.136 390.899C198.854 390.757 198.627 390.585 198.455 390.383C198.286 390.179 198.155 389.986 198.061 389.804H197.988V393.785H196.226ZM197.954 387.245C197.954 387.728 198.022 388.151 198.158 388.515C198.298 388.878 198.497 389.162 198.757 389.366C199.02 389.568 199.337 389.668 199.711 389.668C200.1 389.668 200.426 389.564 200.689 389.357C200.951 389.146 201.149 388.859 201.282 388.495C201.419 388.129 201.487 387.712 201.487 387.245C201.487 386.781 201.42 386.369 201.287 386.009C201.154 385.649 200.956 385.366 200.694 385.162C200.431 384.957 200.103 384.855 199.711 384.855C199.334 384.855 199.015 384.954 198.752 385.152C198.489 385.35 198.29 385.627 198.153 385.984C198.02 386.341 197.954 386.761 197.954 387.245ZM204.791 390.982V383.507H206.475V384.777H206.562C206.718 384.349 206.976 384.015 207.336 383.775C207.696 383.532 208.126 383.41 208.626 383.41C209.132 383.41 209.558 383.533 209.906 383.78C210.256 384.023 210.503 384.356 210.645 384.777H210.723C210.889 384.362 211.168 384.031 211.56 383.785C211.956 383.535 212.425 383.41 212.967 383.41C213.654 383.41 214.216 383.627 214.65 384.062C215.085 384.497 215.302 385.131 215.302 385.965V390.982H213.536V386.237C213.536 385.773 213.413 385.434 213.166 385.22C212.92 385.003 212.618 384.894 212.261 384.894C211.836 384.894 211.503 385.027 211.263 385.293C211.026 385.556 210.908 385.898 210.908 386.32V390.982H209.181V386.164C209.181 385.778 209.064 385.47 208.83 385.24C208.6 385.009 208.298 384.894 207.925 384.894C207.672 384.894 207.442 384.959 207.234 385.089C207.026 385.215 206.861 385.395 206.738 385.629C206.614 385.859 206.553 386.129 206.553 386.437V390.982H204.791ZM220.399 391.128C219.649 391.128 219.002 390.972 218.457 390.661C217.915 390.346 217.498 389.902 217.206 389.327C216.914 388.75 216.768 388.07 216.768 387.288C216.768 386.52 216.914 385.845 217.206 385.264C217.502 384.68 217.914 384.226 218.442 383.901C218.971 383.574 219.593 383.41 220.306 383.41C220.767 383.41 221.202 383.485 221.61 383.634C222.022 383.78 222.386 384.007 222.701 384.315C223.018 384.623 223.268 385.016 223.45 385.493C223.632 385.966 223.722 386.531 223.722 387.186V387.726H217.596V386.539H222.034C222.031 386.202 221.958 385.902 221.815 385.639C221.672 385.373 221.473 385.163 221.216 385.011C220.963 384.859 220.668 384.782 220.331 384.782C219.97 384.782 219.654 384.87 219.382 385.045C219.109 385.217 218.897 385.444 218.744 385.726C218.595 386.005 218.519 386.312 218.515 386.646V387.683C218.515 388.117 218.595 388.49 218.754 388.802C218.913 389.11 219.135 389.347 219.421 389.512C219.706 389.675 220.04 389.756 220.423 389.756C220.679 389.756 220.911 389.72 221.119 389.649C221.327 389.574 221.507 389.465 221.659 389.323C221.812 389.18 221.927 389.003 222.005 388.792L223.649 388.977C223.546 389.412 223.348 389.791 223.056 390.116C222.767 390.437 222.397 390.687 221.946 390.865C221.495 391.04 220.979 391.128 220.399 391.128ZM226.974 386.602V390.982H225.213V383.507H226.897V384.777H226.984C227.156 384.359 227.43 384.026 227.807 383.78C228.186 383.533 228.655 383.41 229.213 383.41C229.729 383.41 230.178 383.52 230.561 383.741C230.947 383.962 231.245 384.281 231.456 384.7C231.67 385.118 231.776 385.626 231.773 386.223V390.982H230.011V386.495C230.011 385.996 229.881 385.605 229.622 385.322C229.365 385.04 229.01 384.899 228.556 384.899C228.248 384.899 227.974 384.967 227.734 385.103C227.497 385.236 227.31 385.43 227.174 385.683C227.041 385.936 226.974 386.242 226.974 386.602ZM237.296 383.507V384.87H232.999V383.507H237.296ZM234.06 381.716H235.821V388.734C235.821 388.971 235.857 389.152 235.929 389.279C236.003 389.402 236.1 389.486 236.221 389.532C236.341 389.577 236.474 389.6 236.62 389.6C236.73 389.6 236.83 389.592 236.921 389.576C237.015 389.559 237.087 389.545 237.135 389.532L237.432 390.909C237.338 390.942 237.204 390.977 237.028 391.016C236.856 391.055 236.646 391.078 236.396 391.084C235.954 391.097 235.557 391.031 235.203 390.885C234.85 390.735 234.569 390.505 234.362 390.194C234.157 389.882 234.057 389.493 234.06 389.026V381.716ZM242.149 390.982V389.678L245.609 386.286C245.94 385.952 246.216 385.655 246.436 385.395C246.657 385.136 246.822 384.884 246.933 384.641C247.043 384.398 247.098 384.138 247.098 383.863C247.098 383.548 247.027 383.279 246.884 383.055C246.741 382.828 246.545 382.652 246.295 382.529C246.045 382.406 245.761 382.344 245.444 382.344C245.116 382.344 244.829 382.412 244.582 382.549C244.336 382.682 244.144 382.871 244.008 383.118C243.875 383.365 243.808 383.658 243.808 383.999H242.091C242.091 383.366 242.235 382.816 242.524 382.349C242.812 381.882 243.21 381.52 243.716 381.264C244.225 381.008 244.809 380.879 245.468 380.879C246.136 380.879 246.723 381.004 247.229 381.254C247.736 381.504 248.128 381.846 248.407 382.281C248.689 382.716 248.83 383.212 248.83 383.77C248.83 384.143 248.759 384.51 248.616 384.87C248.474 385.23 248.222 385.629 247.862 386.067C247.505 386.505 247.004 387.035 246.358 387.658L244.641 389.405V389.473H248.981V390.982H242.149ZM251.765 391.089C251.47 391.089 251.217 390.985 251.006 390.778C250.795 390.57 250.691 390.317 250.694 390.019C250.691 389.727 250.795 389.477 251.006 389.269C251.217 389.061 251.47 388.958 251.765 388.958C252.05 388.958 252.299 389.061 252.509 389.269C252.724 389.477 252.832 389.727 252.836 390.019C252.832 390.216 252.78 390.396 252.68 390.559C252.582 390.721 252.453 390.851 252.29 390.948C252.132 391.042 251.956 391.089 251.765 391.089ZM257.931 391.172C257.129 391.172 256.442 390.969 255.867 390.564C255.296 390.155 254.857 389.566 254.548 388.797C254.244 388.025 254.091 387.095 254.091 386.009C254.094 384.922 254.248 383.997 254.553 383.235C254.862 382.469 255.301 381.885 255.872 381.483C256.446 381.081 257.133 380.879 257.931 380.879C258.729 380.879 259.415 381.081 259.989 381.483C260.563 381.885 261.003 382.469 261.308 383.235C261.616 384 261.77 384.925 261.77 386.009C261.77 387.099 261.616 388.03 261.308 388.802C261.003 389.571 260.563 390.158 259.989 390.564C259.418 390.969 258.732 391.172 257.931 391.172ZM257.931 389.649C258.554 389.649 259.045 389.342 259.405 388.729C259.768 388.113 259.95 387.206 259.95 386.009C259.95 385.217 259.867 384.552 259.702 384.013C259.537 383.475 259.303 383.069 259.001 382.797C258.7 382.521 258.343 382.383 257.931 382.383C257.311 382.383 256.821 382.691 256.461 383.308C256.101 383.921 255.919 384.821 255.916 386.009C255.913 386.803 255.992 387.472 256.154 388.014C256.32 388.555 256.553 388.964 256.855 389.24C257.157 389.512 257.515 389.649 257.931 389.649ZM152.863 412.133C152.39 412.133 151.963 412.049 151.583 411.88C151.207 411.708 150.909 411.455 150.688 411.121C150.471 410.787 150.362 410.375 150.362 409.885C150.362 409.463 150.44 409.114 150.595 408.838C150.751 408.563 150.964 408.342 151.233 408.177C151.502 408.011 151.806 407.886 152.143 407.802C152.484 407.714 152.836 407.651 153.199 407.612C153.637 407.567 153.992 407.526 154.265 407.49C154.537 407.451 154.735 407.393 154.858 407.315C154.985 407.234 155.048 407.109 155.048 406.94V406.911C155.048 406.545 154.94 406.261 154.722 406.06C154.505 405.859 154.192 405.758 153.783 405.758C153.351 405.758 153.009 405.852 152.756 406.04C152.506 406.228 152.338 406.451 152.25 406.707L150.605 406.473C150.735 406.019 150.949 405.64 151.248 405.335C151.546 405.026 151.911 404.796 152.343 404.644C152.774 404.488 153.251 404.41 153.773 404.41C154.133 404.41 154.492 404.452 154.849 404.537C155.206 404.621 155.532 404.76 155.827 404.955C156.122 405.146 156.359 405.408 156.537 405.739C156.719 406.069 156.81 406.483 156.81 406.979V411.982H155.116V410.955H155.058C154.951 411.163 154.8 411.358 154.605 411.539C154.414 411.718 154.172 411.862 153.88 411.972C153.592 412.079 153.253 412.133 152.863 412.133ZM153.321 410.838C153.674 410.838 153.981 410.769 154.24 410.629C154.5 410.486 154.699 410.298 154.839 410.065C154.982 409.831 155.053 409.576 155.053 409.301V408.42C154.998 408.465 154.904 408.507 154.771 408.546C154.641 408.585 154.495 408.619 154.333 408.649C154.171 408.678 154.01 408.704 153.851 408.726C153.692 408.749 153.554 408.769 153.437 408.785C153.175 408.821 152.939 408.879 152.732 408.96C152.524 409.041 152.36 409.155 152.24 409.301C152.12 409.443 152.06 409.628 152.06 409.855C152.06 410.18 152.179 410.425 152.416 410.59C152.652 410.756 152.954 410.838 153.321 410.838ZM158.581 414.785V404.507H160.314V405.743H160.416C160.507 405.562 160.635 405.369 160.8 405.164C160.966 404.957 161.19 404.78 161.472 404.634C161.754 404.485 162.114 404.41 162.552 404.41C163.13 404.41 163.65 404.558 164.114 404.853C164.581 405.145 164.951 405.578 165.224 406.152C165.5 406.723 165.637 407.424 165.637 408.254C165.637 409.075 165.503 409.773 165.234 410.347C164.964 410.921 164.598 411.359 164.134 411.661C163.67 411.963 163.144 412.113 162.557 412.113C162.129 412.113 161.774 412.042 161.491 411.899C161.209 411.757 160.982 411.585 160.81 411.383C160.641 411.179 160.51 410.986 160.416 410.804H160.343V414.785H158.581ZM160.309 408.245C160.309 408.728 160.377 409.151 160.513 409.515C160.653 409.878 160.852 410.162 161.112 410.366C161.374 410.568 161.692 410.668 162.066 410.668C162.455 410.668 162.781 410.564 163.044 410.357C163.306 410.146 163.504 409.859 163.637 409.495C163.774 409.129 163.842 408.712 163.842 408.245C163.842 407.781 163.775 407.369 163.642 407.009C163.509 406.649 163.311 406.366 163.049 406.162C162.786 405.957 162.458 405.855 162.066 405.855C161.689 405.855 161.37 405.954 161.107 406.152C160.844 406.35 160.645 406.627 160.508 406.984C160.375 407.341 160.309 407.761 160.309 408.245ZM167.146 414.785V404.507H168.878V405.743H168.981C169.071 405.562 169.2 405.369 169.365 405.164C169.531 404.957 169.754 404.78 170.037 404.634C170.319 404.485 170.679 404.41 171.117 404.41C171.694 404.41 172.215 404.558 172.679 404.853C173.146 405.145 173.516 405.578 173.789 406.152C174.064 406.723 174.202 407.424 174.202 408.254C174.202 409.075 174.068 409.773 173.798 410.347C173.529 410.921 173.162 411.359 172.699 411.661C172.235 411.963 171.709 412.113 171.122 412.113C170.694 412.113 170.338 412.042 170.056 411.899C169.774 411.757 169.547 411.585 169.375 411.383C169.206 411.179 169.075 410.986 168.981 410.804H168.908V414.785H167.146ZM168.874 408.245C168.874 408.728 168.942 409.151 169.078 409.515C169.217 409.878 169.417 410.162 169.677 410.366C169.939 410.568 170.257 410.668 170.63 410.668C171.02 410.668 171.346 410.564 171.608 410.357C171.871 410.146 172.069 409.859 172.202 409.495C172.338 409.129 172.407 408.712 172.407 408.245C172.407 407.781 172.34 407.369 172.207 407.009C172.074 406.649 171.876 406.366 171.613 406.162C171.351 405.957 171.023 405.855 170.63 405.855C170.254 405.855 169.934 405.954 169.672 406.152C169.409 406.35 169.209 406.627 169.073 406.984C168.94 407.341 168.874 407.761 168.874 408.245Z" fill="white"/>
</g>
<line x1="193.425" y1="22.9653" x2="193.425" y2="457.207" stroke="url(#paint0_linear_217_11024)" stroke-width="3"/>
<path d="M192.418 10.2982C192.792 10.6187 193.344 10.6187 193.718 10.2982L200.522 4.47339C201.227 3.86941 200.8 2.71376 199.872 2.71376H186.265C185.336 2.71376 184.909 3.86941 185.614 4.47339L192.418 10.2982Z" fill="#CA403F"/>
<defs>
<linearGradient id="paint0_linear_217_11024" x1="323.424" y1="160.176" x2="319.472" y2="436.193" gradientUnits="userSpaceOnUse">
<stop stop-color="#CA403E"/>
<stop offset="1" stop-color="#CA403E" stop-opacity="0"/>
</linearGradient>
<clipPath id="clip0_217_11024">
<rect y="40.2272" width="172.023" height="68.7173" rx="6.64311" fill="white"/>
</clipPath>
<clipPath id="clip1_217_11024">
<rect x="28.3652" y="118.766" width="175.83" height="70.238" rx="6.79012" fill="white"/>
</clipPath>
<clipPath id="clip2_217_11024">
<rect x="59.4756" y="198.611" width="175.683" height="70.1793" rx="6.78445" fill="white"/>
</clipPath>
<clipPath id="clip3_217_11024">
<rect x="96.0762" y="278.398" width="177.428" height="70.8765" rx="6.85185" fill="white"/>
</clipPath>
<clipPath id="clip4_217_11024">
<rect x="132.677" y="358.852" width="177.428" height="70.8765" rx="6.85185" fill="white"/>
</clipPath>
</defs>
</svg>
